<!-- Generated by IcoMoon.io -->
<svg version="1.1" xmlns="http://www.w3.org/2000/svg" width="8" height="8" viewBox="0 0 8 8">
<title>500px</title>
<path d="M1.977 5.256c0.002 0.005 0.044 0.119 0.067 0.177 0.131 0.311 0.32 0.592 0.561 0.833s0.52 0.43 0.833 0.561c0.323 0.136 0.666 0.206 1.019 0.206s0.697-0.069 1.019-0.206c0.313-0.131 0.592-0.32 0.833-0.561s0.43-0.52 0.561-0.833c0.136-0.323 0.206-0.666 0.206-1.019s-0.069-0.697-0.206-1.019c-0.131-0.313-0.32-0.592-0.561-0.833s-0.52-0.43-0.833-0.561c-0.323-0.136-0.666-0.206-1.019-0.206-0.358 0-0.716 0.072-1.033 0.206-0.255 0.108-0.686 0.384-0.938 0.645l-0.002 0.002v-2.156h3.62c0.131-0.002 0.131-0.186 0.131-0.245 0-0.061 0-0.244-0.133-0.245h-3.914c-0.106 0-0.172 0.089-0.172 0.17v3.033c0 0.098 0.122 0.169 0.236 0.192 0.222 0.047 0.272-0.023 0.327-0.098l0.008-0.009c0.083-0.123 0.341-0.383 0.344-0.386 0.403-0.403 0.942-0.625 1.519-0.625 0.573 0 1.111 0.222 1.514 0.625 0.405 0.405 0.628 0.941 0.628 1.509 0 0.57-0.222 1.108-0.625 1.509-0.397 0.397-0.953 0.625-1.523 0.625-0.386 0-0.759-0.103-1.080-0.298l0.002-1.844c0-0.245 0.106-0.514 0.286-0.716 0.205-0.231 0.486-0.358 0.794-0.358 0.297 0 0.575 0.112 0.783 0.317 0.205 0.203 0.319 0.475 0.319 0.764 0 0.616-0.484 1.098-1.103 1.098-0.119 0-0.336-0.053-0.345-0.055-0.125-0.037-0.178 0.136-0.195 0.194-0.067 0.22 0.034 0.264 0.055 0.27 0.198 0.063 0.33 0.073 0.502 0.073 0.873 0 1.584-0.711 1.584-1.584 0-0.867-0.711-1.572-1.583-1.572-0.428 0-0.83 0.164-1.131 0.459-0.288 0.283-0.452 0.659-0.452 1.034v0.009c-0.002 0.047-0.002 1.153-0.003 1.516l-0.002-0.002c-0.164-0.181-0.327-0.459-0.434-0.744-0.042-0.111-0.138-0.092-0.267-0.052-0.063 0.017-0.234 0.070-0.195 0.197v0zM3.837 4.823c0 0.053 0.048 0.1 0.078 0.127l0.009 0.009c0.050 0.048 0.097 0.073 0.141 0.073 0.036 0 0.058-0.017 0.066-0.025 0.022-0.020 0.269-0.272 0.294-0.295l0.277 0.275c0.025 0.028 0.053 0.044 0.086 0.044 0.044 0 0.092-0.027 0.142-0.078 0.119-0.122 0.059-0.188 0.031-0.219l-0.28-0.28 0.292-0.294c0.064-0.069 0.008-0.142-0.048-0.198-0.081-0.081-0.161-0.103-0.211-0.056l-0.291 0.291-0.294-0.294c-0.016-0.016-0.036-0.023-0.056-0.023-0.039 0-0.086 0.027-0.138 0.078-0.091 0.091-0.109 0.153-0.063 0.203l0.294 0.292-0.292 0.292c-0.027 0.025-0.039 0.052-0.038 0.078zM4.477 0.858c-0.469 0-0.969 0.095-1.334 0.253-0.039 0.016-0.063 0.047-0.067 0.091-0.005 0.042 0.006 0.097 0.034 0.169 0.023 0.058 0.083 0.212 0.2 0.167 0.375-0.144 0.791-0.222 1.167-0.222 0.428 0 0.844 0.084 1.234 0.248 0.311 0.131 0.603 0.322 0.922 0.597 0.023 0.020 0.048 0.030 0.073 0.030 0.063 0 0.122-0.061 0.173-0.119 0.084-0.095 0.144-0.175 0.059-0.255-0.305-0.287-0.638-0.503-1.050-0.678-0.447-0.186-0.923-0.281-1.413-0.281zM7.003 6.65v0c-0.056-0.056-0.105-0.089-0.147-0.102s-0.081-0.003-0.111 0.027l-0.028 0.028c-0.291 0.291-0.63 0.519-1.006 0.678-0.391 0.166-0.805 0.248-1.231 0.248-0.428 0-0.842-0.084-1.231-0.248-0.377-0.159-0.716-0.388-1.006-0.678-0.303-0.303-0.531-0.642-0.678-1.006-0.144-0.356-0.191-0.623-0.206-0.711-0.002-0.008-0.003-0.014-0.003-0.019-0.020-0.103-0.116-0.111-0.252-0.089-0.056 0.009-0.23 0.036-0.214 0.159v0.003c0.045 0.289 0.127 0.572 0.241 0.841 0.183 0.433 0.445 0.822 0.78 1.156s0.723 0.595 1.156 0.78c0.448 0.189 0.925 0.286 1.416 0.286s0.967-0.097 1.416-0.286c0.433-0.183 0.822-0.445 1.156-0.78 0 0 0.019-0.019 0.030-0.030 0.034-0.042 0.067-0.112-0.080-0.258z"></path>
</svg>
