<!-- Generated by IcoMoon.io -->
<svg version="1.1" xmlns="http://www.w3.org/2000/svg" width="8" height="8" viewBox="0 0 8 8">
<title>address-book</title>
<path d="M1.5 0v8h6v-8h-6zM4.5 2.003c0.551 0 0.997 0.447 0.997 0.997s-0.447 0.997-0.997 0.997-0.997-0.447-0.997-0.997 0.447-0.997 0.997-0.997v0zM6 6h-3v-0.5c0-0.552 0.448-1 1-1v0h1c0.552 0 1 0.448 1 1v0.5z"></path>
<path d="M0.5 0.5h0.75v1.5h-0.75v-1.5z"></path>
<path d="M0.5 2.5h0.75v1.5h-0.75v-1.5z"></path>
<path d="M0.5 4.5h0.75v1.5h-0.75v-1.5z"></path>
<path d="M0.5 6.5h0.75v1.5h-0.75v-1.5z"></path>
</svg>
