<!-- Generated by IcoMoon.io -->
<svg version="1.1" xmlns="http://www.w3.org/2000/svg" width="8" height="8" viewBox="0 0 8 8">
<title>alarm</title>
<path d="M4 1c-1.933 0-3.5 1.567-3.5 3.5s1.567 3.5 3.5 3.5 3.5-1.567 3.5-3.5-1.567-3.5-3.5-3.5zM4 7.313c-1.553 0-2.813-1.259-2.813-2.813s1.259-2.813 2.813-2.813c1.553 0 2.813 1.259 2.813 2.813s-1.259 2.813-2.813 2.813zM7.303 2.244c0.125-0.219 0.197-0.473 0.197-0.744 0-0.828-0.672-1.5-1.5-1.5-0.483 0-0.913 0.228-1.187 0.583 1.030 0.213 1.916 0.822 2.49 1.661v0zM3.187 0.583c-0.274-0.354-0.704-0.583-1.187-0.583-0.828 0-1.5 0.672-1.5 1.5 0 0.271 0.072 0.524 0.197 0.744 0.574-0.839 1.46-1.448 2.49-1.661z"></path>
<path d="M4 4.5v-2h-0.5v2.5h2v-0.5z"></path>
</svg>
