<!-- Generated by IcoMoon.io -->
<svg version="1.1" xmlns="http://www.w3.org/2000/svg" width="8" height="8" viewBox="0 0 8 8">
<title>amazon</title>
<path d="M7.231 6.916c-0.877 0.647-2.145 0.991-3.239 0.991-1.533 0-2.913-0.566-3.956-1.509-0.081-0.073-0.009-0.175 0.089-0.117 1.127 0.656 2.52 1.050 3.959 1.050 0.97 0 2.038-0.202 3.020-0.619 0.147-0.063 0.272 0.098 0.127 0.205z"></path>
<path d="M7.595 6.5c-0.112-0.144-0.741-0.069-1.023-0.034-0.086 0.009-0.098-0.064-0.022-0.119 0.502-0.352 1.323-0.25 1.419-0.133 0.097 0.119-0.025 0.942-0.495 1.336-0.072 0.061-0.141 0.028-0.109-0.052 0.108-0.264 0.344-0.855 0.231-0.998z"></path>
<path d="M5.527 5.919l0.002 0.002c0.194-0.17 0.542-0.475 0.739-0.639 0.078-0.063 0.064-0.167 0.003-0.255-0.177-0.244-0.364-0.442-0.364-0.892v-1.5c0-0.636 0.044-1.219-0.423-1.656-0.369-0.353-0.981-0.478-1.45-0.478-0.916 0-1.938 0.342-2.152 1.473-0.023 0.12 0.066 0.184 0.144 0.202l0.933 0.102c0.087-0.005 0.15-0.091 0.167-0.178 0.080-0.389 0.406-0.578 0.773-0.578 0.198 0 0.423 0.072 0.541 0.25 0.134 0.198 0.117 0.469 0.117 0.698v0.125c-0.558 0.063-1.288 0.103-1.809 0.333-0.603 0.261-1.027 0.792-1.027 1.573 0 1 0.63 1.5 1.441 1.5 0.684 0 1.058-0.161 1.586-0.702 0.175 0.253 0.231 0.377 0.552 0.642 0.073 0.039 0.164 0.036 0.228-0.022zM4.556 3.572c0 0.375 0.009 0.688-0.18 1.020-0.153 0.272-0.395 0.438-0.666 0.438-0.369 0-0.584-0.281-0.584-0.697 0-0.82 0.736-0.969 1.431-0.969v0.208z"></path>
</svg>
