<!-- Generated by IcoMoon.io -->
<svg version="1.1" xmlns="http://www.w3.org/2000/svg" width="8" height="8" viewBox="0 0 8 8">
<title>android</title>
<path d="M7 3c-0.275 0-0.5 0.225-0.5 0.5v2c0 0.275 0.225 0.5 0.5 0.5s0.5-0.225 0.5-0.5v-2c0-0.275-0.225-0.5-0.5-0.5zM1 3c-0.275 0-0.5 0.225-0.5 0.5v2c0 0.275 0.225 0.5 0.5 0.5s0.5-0.225 0.5-0.5v-2c0-0.275-0.225-0.5-0.5-0.5zM1.75 5.75c0 0.414 0.336 0.75 0.75 0.75v0 1c0 0.275 0.225 0.5 0.5 0.5s0.5-0.225 0.5-0.5v-1h1v1c0 0.275 0.225 0.5 0.5 0.5s0.5-0.225 0.5-0.5v-1c0.414 0 0.75-0.336 0.75-0.75v-2.75h-4.5v2.75z"></path>
<path d="M6.236 2.5c-0.076-0.687-0.461-1.28-1.013-1.638l0.25-0.5c0.062-0.123 0.012-0.274-0.112-0.335s-0.274-0.012-0.335 0.112l-0.251 0.502-0.065-0.026c-0.223-0.074-0.462-0.115-0.71-0.115s-0.487 0.040-0.71 0.115l-0.065 0.026-0.251-0.502c-0.062-0.123-0.212-0.174-0.335-0.112s-0.174 0.212-0.112 0.335l0.25 0.5c-0.552 0.358-0.937 0.951-1.013 1.638v0.25h4.486v-0.25h-0.014zM3.25 2c-0.138 0-0.25-0.112-0.25-0.25s0.112-0.25 0.249-0.25c0 0 0 0 0.001 0s0-0 0-0c0.138 0 0.249 0.112 0.249 0.25s-0.112 0.25-0.25 0.25zM4.75 2c-0.138 0-0.25-0.112-0.25-0.25s0.112-0.25 0.249-0.25c0 0 0 0 0 0s0-0 0.001-0c0.138 0 0.249 0.112 0.249 0.25s-0.112 0.25-0.25 0.25z"></path>
</svg>
