<!-- Generated by IcoMoon.io -->
<svg version="1.1" xmlns="http://www.w3.org/2000/svg" width="8" height="8" viewBox="0 0 8 8">
<title>appleinc</title>
<path d="M6.184 4.251c-0.010-1.013 0.826-1.499 0.864-1.523-0.47-0.688-1.202-0.782-1.463-0.793-0.623-0.063-1.216 0.367-1.532 0.367s-0.803-0.357-1.32-0.348c-0.679 0.010-1.305 0.395-1.655 1.003-0.706 1.224-0.181 3.038 0.507 4.031 0.336 0.486 0.737 1.032 1.263 1.012 0.507-0.020 0.698-0.328 1.311-0.328s0.785 0.328 1.321 0.318c0.545-0.010 0.89-0.495 1.224-0.983 0.386-0.564 0.545-1.11 0.554-1.138-0.012-0.006-1.063-0.408-1.074-1.618zM5.176 1.278c0.279-0.339 0.468-0.809 0.416-1.278-0.402 0.016-0.89 0.268-1.178 0.606-0.259 0.3-0.486 0.778-0.425 1.238 0.449 0.035 0.907-0.228 1.187-0.566z"></path>
</svg>
