<!-- Generated by IcoMoon.io -->
<svg version="1.1" xmlns="http://www.w3.org/2000/svg" width="8" height="8" viewBox="0 0 8 8">
<title>attachment</title>
<path d="M5.202 2.555l-0.507-0.507-2.538 2.537c-0.42 0.42-0.42 1.102 0 1.522s1.102 0.42 1.522 0l3.045-3.045c0.701-0.7 0.701-1.836 0-2.537s-1.837-0.701-2.537 0l-3.197 3.197c-0.002 0.002-0.005 0.005-0.007 0.007-0.977 0.977-0.977 2.561 0 3.538s2.561 0.977 3.539 0c0.002-0.002 0.004-0.004 0.006-0.007l0 0 2.182-2.182-0.508-0.507-2.182 2.182c-0.002 0.002-0.004 0.004-0.007 0.007-0.696 0.696-1.828 0.696-2.524 0s-0.696-1.828 0-2.523c0.002-0.002 0.005-0.005 0.007-0.007l-0-0 3.197-3.197c0.42-0.42 1.103-0.42 1.523 0s0.42 1.103 0 1.522l-3.045 3.045c-0.14 0.14-0.368 0.14-0.508 0s-0.14-0.367 0-0.507l2.538-2.537z"></path>
</svg>
