<!-- Generated by IcoMoon.io -->
<svg version="1.1" xmlns="http://www.w3.org/2000/svg" width="8" height="8" viewBox="0 0 8 8">
<title>baffled</title>
<path d="M4 8c2.209 0 4-1.791 4-4s-1.791-4-4-4-4 1.791-4 4 1.791 4 4 4zM4 0.75c1.795 0 3.25 1.455 3.25 3.25s-1.455 3.25-3.25 3.25-3.25-1.455-3.25-3.25 1.455-3.25 3.25-3.25z"></path>
<path d="M3 3.25c0 0.138-0.112 0.25-0.25 0.25s-0.25-0.112-0.25-0.25c0-0.138 0.112-0.25 0.25-0.25s0.25 0.112 0.25 0.25z"></path>
<path d="M2.75 2.5c0.414 0 0.75 0.336 0.75 0.75s-0.336 0.75-0.75 0.75-0.75-0.336-0.75-0.75 0.336-0.75 0.75-0.75zM2.75 2c-0.689 0-1.25 0.561-1.25 1.25s0.561 1.25 1.25 1.25 1.25-0.561 1.25-1.25-0.561-1.25-1.25-1.25v0z"></path>
<path d="M5.5 3.25c0 0.138-0.112 0.25-0.25 0.25s-0.25-0.112-0.25-0.25c0-0.138 0.112-0.25 0.25-0.25s0.25 0.112 0.25 0.25z"></path>
<path d="M5.25 2.5c0.414 0 0.75 0.336 0.75 0.75s-0.336 0.75-0.75 0.75-0.75-0.336-0.75-0.75 0.336-0.75 0.75-0.75zM5.25 2c-0.689 0-1.25 0.561-1.25 1.25s0.561 1.25 1.25 1.25 1.25-0.561 1.25-1.25-0.561-1.25-1.25-1.25v0z"></path>
<path d="M3 5.5h2v0.5h-2v-0.5z"></path>
</svg>
