<!-- Generated by IcoMoon.io -->
<svg version="1.1" xmlns="http://www.w3.org/2000/svg" width="8" height="8" viewBox="0 0 8 8">
<title>baffled2</title>
<path d="M3 3.25c0 0.138-0.112 0.25-0.25 0.25s-0.25-0.112-0.25-0.25 0.112-0.25 0.25-0.25 0.25 0.112 0.25 0.25z"></path>
<path d="M5.5 3.25c0 0.138-0.112 0.25-0.25 0.25s-0.25-0.112-0.25-0.25 0.112-0.25 0.25-0.25 0.25 0.112 0.25 0.25z"></path>
<path d="M4 0c-2.209 0-4 1.791-4 4s1.791 4 4 4 4-1.791 4-4-1.791-4-4-4zM2 3.25c0-0.414 0.336-0.75 0.75-0.75s0.75 0.336 0.75 0.75-0.336 0.75-0.75 0.75-0.75-0.336-0.75-0.75zM5 6h-2v-0.5h2v0.5zM5.25 4c-0.414 0-0.75-0.336-0.75-0.75s0.336-0.75 0.75-0.75 0.75 0.336 0.75 0.75-0.336 0.75-0.75 0.75z"></path>
</svg>
