<!-- Generated by IcoMoon.io -->
<svg version="1.1" xmlns="http://www.w3.org/2000/svg" width="8" height="8" viewBox="0 0 8 8">
<title>basecamp</title>
<path d="M4 0.833c-1.459 0-2.584 1.222-3.222 2.419-0.359 0.673-0.611 1.411-0.727 2.166-0.012 0.086-0.025 0.172-0.034 0.259-0.005 0.047-0.009 0.094-0.013 0.141-0.005 0.059-0.002 0.078 0.030 0.128 0.094 0.152 0.205 0.292 0.33 0.419 0.256 0.263 0.567 0.464 0.897 0.62 0.752 0.355 1.6 0.483 2.425 0.511 0.852 0.028 1.727-0.042 2.541-0.308 0.695-0.227 1.366-0.622 1.752-1.261 0.042-0.069 0.013-0.17 0.005-0.25-0.009-0.095-0.022-0.189-0.037-0.283-0.028-0.184-0.066-0.366-0.111-0.547-0.091-0.369-0.214-0.731-0.364-1.080-0.544-1.262-1.55-2.609-2.981-2.888-0.161-0.031-0.325-0.047-0.489-0.047zM4.050 6.955c-0.892 0-1.864-0.080-2.667-0.509-0.313-0.167-0.631-0.409-0.781-0.742-0.044-0.097-0.028-0.134-0.008-0.248 0.014-0.073 0.020-0.145 0.053-0.214 0.045-0.095 0.092-0.189 0.141-0.283 0.164-0.317 0.341-0.631 0.545-0.927 0.102-0.145 0.209-0.289 0.334-0.414 0.087-0.087 0.194-0.181 0.317-0.211 0.378-0.091 0.667 0.347 0.897 0.567 0.111 0.106 0.259 0.227 0.425 0.206 0.114-0.014 0.216-0.103 0.297-0.177 0.277-0.248 0.498-0.556 0.728-0.845 0.114-0.142 0.227-0.286 0.35-0.422 0.083-0.092 0.173-0.197 0.284-0.256 0.198-0.108 0.452 0.114 0.589 0.228 0.234 0.195 0.442 0.423 0.641 0.655 0.189 0.22 0.372 0.444 0.533 0.686 0.248 0.375 0.464 0.775 0.661 1.18 0.042 0.088 0.056 0.147 0.072 0.244 0.009 0.053 0.030 0.114 0.022 0.169-0.011 0.077-0.064 0.159-0.103 0.222-0.094 0.148-0.22 0.277-0.359 0.384-0.583 0.452-1.372 0.602-2.089 0.669-0.294 0.028-0.588 0.039-0.881 0.039z"></path>
</svg>
