<!-- Generated by IcoMoon.io -->
<svg version="1.1" xmlns="http://www.w3.org/2000/svg" width="8" height="8" viewBox="0 0 8 8">
<title>behance</title>
<path d="M2.32 1.603c0.236 0 0.448 0.020 0.642 0.063 0.194 0.041 0.358 0.109 0.497 0.203 0.138 0.094 0.244 0.219 0.322 0.375 0.075 0.155 0.112 0.348 0.112 0.578 0 0.248-0.056 0.455-0.169 0.62-0.114 0.166-0.28 0.3-0.502 0.406 0.303 0.087 0.527 0.241 0.677 0.458 0.15 0.219 0.222 0.481 0.222 0.791 0 0.25-0.048 0.464-0.144 0.645-0.097 0.183-0.228 0.331-0.389 0.445-0.163 0.116-0.35 0.2-0.559 0.255-0.208 0.055-0.422 0.083-0.644 0.083h-2.386v-4.922h2.32zM2.18 3.591c0.192 0 0.352-0.045 0.477-0.138 0.125-0.091 0.184-0.241 0.184-0.447 0-0.114-0.020-0.209-0.061-0.283-0.042-0.073-0.097-0.131-0.167-0.172-0.069-0.042-0.147-0.070-0.239-0.086-0.089-0.017-0.183-0.025-0.278-0.025h-1.012v1.15h1.097zM2.239 5.686c0.106 0 0.208-0.009 0.303-0.031 0.097-0.022 0.183-0.055 0.255-0.105 0.072-0.048 0.133-0.112 0.177-0.197 0.044-0.083 0.064-0.189 0.064-0.319 0-0.253-0.072-0.434-0.214-0.544-0.142-0.108-0.331-0.161-0.566-0.161h-1.175v1.355h1.156z"></path>
<path d="M5.666 5.669c0.147 0.144 0.358 0.216 0.633 0.216 0.197 0 0.369-0.050 0.511-0.15s0.228-0.206 0.261-0.316h0.862c-0.139 0.43-0.348 0.734-0.636 0.919-0.283 0.184-0.63 0.278-1.031 0.278-0.281 0-0.533-0.045-0.759-0.134-0.227-0.091-0.416-0.217-0.575-0.383-0.155-0.166-0.277-0.362-0.362-0.594-0.084-0.23-0.128-0.484-0.128-0.759 0-0.267 0.044-0.516 0.131-0.745 0.089-0.231 0.211-0.43 0.373-0.597s0.353-0.3 0.578-0.397c0.223-0.097 0.47-0.145 0.744-0.145 0.302 0 0.566 0.058 0.792 0.177 0.225 0.117 0.411 0.275 0.556 0.472s0.248 0.423 0.313 0.677c0.064 0.253 0.086 0.517 0.069 0.794h-2.573c0 0.28 0.094 0.547 0.242 0.689zM6.789 3.797c-0.116-0.128-0.314-0.198-0.553-0.198-0.156 0-0.286 0.027-0.389 0.080-0.102 0.053-0.184 0.119-0.248 0.197-0.063 0.078-0.106 0.162-0.131 0.252-0.025 0.086-0.041 0.166-0.045 0.234h1.594c-0.023-0.25-0.109-0.434-0.227-0.564z"></path>
<path d="M5.222 2h1.995v0.486h-1.995v-0.486z"></path>
</svg>
