<!-- Generated by IcoMoon.io -->
<svg version="1.1" xmlns="http://www.w3.org/2000/svg" width="8" height="8" viewBox="0 0 8 8">
<title>behance2</title>
<path d="M3.158 3.505c0.102-0.073 0.15-0.195 0.15-0.364 0-0.094-0.016-0.17-0.048-0.23-0.034-0.059-0.078-0.106-0.136-0.139-0.056-0.034-0.12-0.058-0.194-0.070-0.072-0.014-0.148-0.020-0.227-0.020h-0.823v0.934h0.891c0.156 0.002 0.286-0.036 0.388-0.111z"></path>
<path d="M3.297 4.348c-0.116-0.088-0.269-0.131-0.459-0.131h-0.958v1.102h0.939c0.087 0 0.169-0.008 0.247-0.025s0.148-0.044 0.208-0.084c0.059-0.039 0.108-0.092 0.144-0.159s0.053-0.155 0.053-0.259c0-0.206-0.058-0.353-0.173-0.442z"></path>
<path d="M7.25 0h-6.5c-0.412 0-0.75 0.338-0.75 0.75v6.5c0 0.412 0.338 0.75 0.75 0.75h6.5c0.412 0 0.75-0.338 0.75-0.75v-6.5c0-0.412-0.338-0.75-0.75-0.75zM5.244 2.105h1.62v0.395h-1.62v-0.395zM4.231 5.362c-0.078 0.148-0.184 0.269-0.316 0.362-0.133 0.094-0.284 0.162-0.455 0.208-0.169 0.045-0.344 0.067-0.522 0.067h-1.939v-3.998h1.884c0.191 0 0.364 0.017 0.522 0.050 0.156 0.033 0.291 0.089 0.403 0.166 0.111 0.077 0.198 0.178 0.261 0.305 0.061 0.125 0.092 0.283 0.092 0.469 0 0.202-0.045 0.369-0.138 0.503s-0.227 0.244-0.408 0.33c0.247 0.070 0.428 0.195 0.548 0.372 0.122 0.178 0.181 0.392 0.181 0.642 0.002 0.205-0.037 0.38-0.116 0.525zM7.495 4.744h-2.089c0 0.228 0.078 0.445 0.197 0.563 0.119 0.116 0.291 0.175 0.514 0.175 0.161 0 0.298-0.041 0.416-0.122 0.116-0.081 0.186-0.167 0.213-0.256h0.7c-0.112 0.348-0.283 0.597-0.516 0.747-0.23 0.15-0.511 0.225-0.838 0.225-0.228 0-0.433-0.037-0.617-0.109-0.184-0.073-0.338-0.177-0.467-0.311-0.127-0.134-0.223-0.295-0.294-0.483-0.069-0.186-0.105-0.394-0.105-0.617 0-0.217 0.036-0.419 0.106-0.606 0.072-0.188 0.172-0.35 0.303-0.484 0.131-0.136 0.287-0.244 0.469-0.323 0.181-0.078 0.381-0.117 0.603-0.117 0.245 0 0.459 0.047 0.644 0.144 0.183 0.095 0.333 0.223 0.452 0.384s0.202 0.344 0.255 0.55c0.052 0.203 0.069 0.417 0.055 0.642z"></path>
<path d="M6.067 3.623c-0.127 0-0.233 0.022-0.316 0.066s-0.15 0.097-0.202 0.159c-0.052 0.064-0.086 0.131-0.106 0.205-0.020 0.070-0.033 0.134-0.036 0.191h1.294c-0.019-0.203-0.089-0.353-0.183-0.458-0.097-0.106-0.256-0.163-0.452-0.163z"></path>
</svg>
