<!-- Generated by IcoMoon.io -->
<svg version="1.1" xmlns="http://www.w3.org/2000/svg" width="8" height="8" viewBox="0 0 8 8">
<title>bell</title>
<path d="M8.012 6.25c0-2.25-2-1.75-2-3.5 0-0.145-0.014-0.269-0.039-0.374-0.131-0.883-0.72-1.592-1.483-1.808 0.007-0.031 0.010-0.063 0.010-0.095 0-0.26-0.225-0.473-0.5-0.473s-0.5 0.213-0.5 0.473c0 0.033 0.004 0.065 0.010 0.095-0.855 0.242-1.492 1.104-1.51 2.136-0 0.015-0.001 0.030-0.001 0.046 0 1.75-2 1.25-2 3.5 0 0.596 1.333 1.094 3.117 1.219 0.168 0.316 0.5 0.531 0.883 0.531s0.715-0.215 0.883-0.531c1.784-0.126 3.117-0.624 3.117-1.219 0-0.002-0-0.004-0-0.005l0.012 0.005zM6.455 6.673c-0.424 0.113-0.923 0.194-1.459 0.239-0.045-0.511-0.473-0.912-0.996-0.912s-0.951 0.401-0.996 0.912c-0.536-0.045-1.035-0.126-1.459-0.239-0.583-0.156-0.862-0.33-0.964-0.423 0.102-0.093 0.381-0.267 0.964-0.423 0.678-0.181 1.55-0.28 2.455-0.28s1.777 0.1 2.455 0.28c0.583 0.156 0.862 0.33 0.964 0.423-0.102 0.093-0.381 0.267-0.964 0.423z"></path>
</svg>
