<!-- Generated by IcoMoon.io -->
<svg version="1.1" xmlns="http://www.w3.org/2000/svg" width="8" height="8" viewBox="0 0 8 8">
<title>bin</title>
<path d="M1 2.5v5c0 0.275 0.225 0.5 0.5 0.5h4.5c0.275 0 0.5-0.225 0.5-0.5v-5h-5.5zM2.5 7h-0.5v-3.5h0.5v3.5zM3.5 7h-0.5v-3.5h0.5v3.5zM4.5 7h-0.5v-3.5h0.5v3.5zM5.5 7h-0.5v-3.5h0.5v3.5z"></path>
<path d="M6.625 1h-1.625v-0.625c0-0.206-0.169-0.375-0.375-0.375h-1.75c-0.206 0-0.375 0.169-0.375 0.375v0.625h-1.625c-0.206 0-0.375 0.169-0.375 0.375v0.625h6.5v-0.625c0-0.206-0.169-0.375-0.375-0.375zM4.5 1h-1.5v-0.494h1.5v0.494z"></path>
</svg>
