<!-- Generated by IcoMoon.io -->
<svg version="1.1" xmlns="http://www.w3.org/2000/svg" width="8" height="8" viewBox="0 0 8 8">
<title>binoculars</title>
<path d="M0.5 0h3v0.5h-3zM4.5 0h3v0.5h-3zM7.438 2.5h-0.438v-2h-2v2h-2v-2h-2v2h-0.438c-0.309 0-0.563 0.253-0.563 0.563v4.375c0 0.309 0.253 0.563 0.563 0.563h2.375c0.309 0 0.563-0.253 0.563-0.563v-2.938h1v2.938c0 0.309 0.253 0.563 0.563 0.563h2.375c0.309 0 0.563-0.253 0.563-0.563v-4.375c0-0.309-0.253-0.563-0.563-0.563zM2.719 7.5h-1.938c-0.155 0-0.281-0.112-0.281-0.25s0.127-0.25 0.281-0.25h1.938c0.155 0 0.281 0.112 0.281 0.25s-0.127 0.25-0.281 0.25zM4.25 4h-0.5c-0.138 0-0.25-0.112-0.25-0.25s0.112-0.25 0.25-0.25h0.5c0.138 0 0.25 0.112 0.25 0.25s-0.112 0.25-0.25 0.25zM7.219 7.5h-1.938c-0.155 0-0.281-0.112-0.281-0.25s0.127-0.25 0.281-0.25h1.938c0.155 0 0.281 0.112 0.281 0.25s-0.127 0.25-0.281 0.25z"></path>
</svg>
