<!-- Generated by IcoMoon.io -->
<svg version="1.1" xmlns="http://www.w3.org/2000/svg" width="8" height="8" viewBox="0 0 8 8">
<title>blocked</title>
<path d="M6.828 1.172c-0.756-0.755-1.76-1.172-2.828-1.172s-2.073 0.416-2.828 1.172c-0.755 0.756-1.172 1.76-1.172 2.828s0.416 2.073 1.172 2.828c0.756 0.755 1.76 1.172 2.828 1.172s2.073-0.416 2.828-1.172c0.755-0.756 1.172-1.76 1.172-2.828s-0.416-2.073-1.172-2.828zM7 4c0 0.647-0.206 1.247-0.556 1.737l-4.182-4.182c0.491-0.35 1.090-0.556 1.737-0.556 1.654 0 3 1.346 3 3zM1 4c0-0.647 0.206-1.247 0.556-1.737l4.182 4.182c-0.491 0.35-1.090 0.556-1.737 0.556-1.654 0-3-1.346-3-3z"></path>
</svg>
