<!-- Generated by IcoMoon.io -->
<svg version="1.1" xmlns="http://www.w3.org/2000/svg" width="8" height="8" viewBox="0 0 8 8">
<title>blogger</title>
<path d="M7.483 3h-0.448c-0.275 0-0.516-0.232-0.534-0.5v0c0-1.427-1.15-2.5-2.587-2.5h-1.311c-1.436 0-2.6 1.156-2.601 2.583v2.834c0 1.427 1.165 2.582 2.601 2.582h2.8c1.437 0 2.598-1.155 2.598-2.582v-1.831c0-0.285-0.23-0.587-0.517-0.587zM2.5 2h1.5c0.275 0 0.5 0.225 0.5 0.5s-0.225 0.5-0.5 0.5h-1.5c-0.275 0-0.5-0.225-0.5-0.5s0.225-0.5 0.5-0.5zM5.5 6h-3c-0.275 0-0.5-0.225-0.5-0.5s0.225-0.5 0.5-0.5h3c0.275 0 0.5 0.225 0.5 0.5s-0.225 0.5-0.5 0.5z"></path>
</svg>
