<!-- Generated by IcoMoon.io -->
<svg version="1.1" xmlns="http://www.w3.org/2000/svg" width="8" height="8" viewBox="0 0 8 8">
<title>blog</title>
<path d="M3 0v0.75c0.574 0 1.131 0.112 1.654 0.334 0.506 0.214 0.961 0.521 1.351 0.911s0.697 0.845 0.911 1.351c0.221 0.523 0.334 1.080 0.334 1.654h0.75c0-2.761-2.239-5-5-5z"></path>
<path d="M3 1.5v0.75c0.735 0 1.425 0.286 1.945 0.805s0.805 1.21 0.805 1.945h0.75c0-1.933-1.567-3.5-3.5-3.5z"></path>
<path d="M3.75 3l-0.5 0.5-1.75 0.5-1.5 3.25 0.198 0.198 1.819-1.819c-0.011-0.041-0.017-0.085-0.017-0.129 0-0.276 0.224-0.5 0.5-0.5s0.5 0.224 0.5 0.5-0.224 0.5-0.5 0.5c-0.045 0-0.088-0.006-0.129-0.017l-1.819 1.819 0.198 0.198 3.25-1.5 0.5-1.75 0.5-0.5-1.25-1.25z"></path>
</svg>
