<!-- Generated by IcoMoon.io -->
<svg version="1.1" xmlns="http://www.w3.org/2000/svg" width="8" height="8" viewBox="0 0 8 8">
<title>blogger2</title>
<path d="M7.25 0h-6.5c-0.412 0-0.75 0.338-0.75 0.75v6.5c0 0.412 0.338 0.75 0.75 0.75h6.5c0.412 0 0.75-0.338 0.75-0.75v-6.5c0-0.412-0.338-0.75-0.75-0.75zM7 5.063c0 1.070-0.87 1.938-1.948 1.938h-2.1c-1.078 0-1.952-0.867-1.952-1.938v-2.125c0-1.070 0.873-1.938 1.952-1.938h0.983c1.078 0 1.941 0.805 1.941 1.875 0.014 0.2 0.195 0.375 0.4 0.375h0.336c0.216 0 0.388 0.227 0.388 0.441v1.372z"></path>
<path d="M5.5 5c0 0.275-0.225 0.5-0.5 0.5h-2c-0.275 0-0.5-0.225-0.5-0.5v0c0-0.275 0.225-0.5 0.5-0.5h2c0.275 0 0.5 0.225 0.5 0.5v0z"></path>
<path d="M4.5 3c0 0.275-0.225 0.5-0.5 0.5h-1c-0.275 0-0.5-0.225-0.5-0.5v0c0-0.275 0.225-0.5 0.5-0.5h1c0.275 0 0.5 0.225 0.5 0.5v0z"></path>
</svg>
