<!-- Generated by IcoMoon.io -->
<svg version="1.1" xmlns="http://www.w3.org/2000/svg" width="9" height="8" viewBox="0 0 9 8">
<title>books</title>
<path d="M1.75 1h-1.5c-0.138 0-0.25 0.113-0.25 0.25v5.5c0 0.138 0.113 0.25 0.25 0.25h1.5c0.137 0 0.25-0.112 0.25-0.25v-5.5c0-0.137-0.113-0.25-0.25-0.25zM1.5 2.5h-1v-0.5h1v0.5z"></path>
<path d="M4.25 1h-1.5c-0.138 0-0.25 0.113-0.25 0.25v5.5c0 0.138 0.112 0.25 0.25 0.25h1.5c0.138 0 0.25-0.112 0.25-0.25v-5.5c0-0.137-0.112-0.25-0.25-0.25zM4 2.5h-1v-0.5h1v0.5z"></path>
<path d="M5.977 1.387l-1.34 0.675c-0.123 0.062-0.173 0.213-0.111 0.336l2.25 4.465c0.062 0.123 0.213 0.173 0.336 0.111l1.34-0.675c0.123-0.062 0.173-0.213 0.111-0.336l-2.25-4.465c-0.062-0.123-0.213-0.173-0.336-0.111z"></path>
</svg>
