<!-- Generated by IcoMoon.io -->
<svg version="1.1" xmlns="http://www.w3.org/2000/svg" width="8" height="8" viewBox="0 0 8 8">
<title>briefcase</title>
<path d="M7.5 2h-2v-0.5c0-0.275-0.225-0.5-0.5-0.5h-2c-0.275 0-0.5 0.225-0.5 0.5v0.5h-2c-0.275 0-0.5 0.225-0.5 0.5v4.5c0 0.275 0.225 0.5 0.5 0.5h7c0.275 0 0.5-0.225 0.5-0.5v-4.5c0-0.275-0.225-0.5-0.5-0.5zM3 1.501c0-0 0.001-0.001 0.001-0.001h1.998c0 0 0.001 0.001 0.001 0.001v0.499h-2v-0.499zM7.5 4h-1v0.75c0 0.138-0.112 0.25-0.25 0.25h-0.5c-0.138 0-0.25-0.112-0.25-0.25v-0.75h-3v0.75c0 0.138-0.112 0.25-0.25 0.25h-0.5c-0.138 0-0.25-0.112-0.25-0.25v-0.75h-1v-0.5h7v0.5z"></path>
</svg>
