<!-- Generated by IcoMoon.io -->
<svg version="1.1" xmlns="http://www.w3.org/2000/svg" width="8" height="8" viewBox="0 0 8 8">
<title>brightness-contrast</title>
<path d="M4 2c-1.105 0-2 0.895-2 2s0.895 2 2 2 2-0.895 2-2-0.895-2-2-2zM4 5.25v-2.5c0.689 0 1.25 0.561 1.25 1.25s-0.561 1.25-1.25 1.25zM4 6.5c0.276 0 0.5 0.224 0.5 0.5v0.5c0 0.276-0.224 0.5-0.5 0.5s-0.5-0.224-0.5-0.5v-0.5c0-0.276 0.224-0.5 0.5-0.5zM4 1.5c-0.276 0-0.5-0.224-0.5-0.5v-0.5c0-0.276 0.224-0.5 0.5-0.5s0.5 0.224 0.5 0.5v0.5c0 0.276-0.224 0.5-0.5 0.5zM7.5 3.5c0.276 0 0.5 0.224 0.5 0.5s-0.224 0.5-0.5 0.5h-0.5c-0.276 0-0.5-0.224-0.5-0.5s0.224-0.5 0.5-0.5h0.5zM1.5 4c0 0.276-0.224 0.5-0.5 0.5h-0.5c-0.276 0-0.5-0.224-0.5-0.5s0.224-0.5 0.5-0.5h0.5c0.276 0 0.5 0.224 0.5 0.5zM6.475 5.768l0.354 0.354c0.195 0.195 0.195 0.512 0 0.707s-0.512 0.195-0.707 0l-0.354-0.354c-0.195-0.195-0.195-0.512 0-0.707s0.512-0.195 0.707 0zM1.525 2.232l-0.354-0.354c-0.195-0.195-0.195-0.512 0-0.707s0.512-0.195 0.707 0l0.354 0.354c0.195 0.195 0.195 0.512 0 0.707s-0.512 0.195-0.707 0zM6.475 2.232c-0.195 0.195-0.512 0.195-0.707 0s-0.195-0.512 0-0.707l0.354-0.354c0.195-0.195 0.512-0.195 0.707 0s0.195 0.512 0 0.707l-0.354 0.354zM1.525 5.768c0.195-0.195 0.512-0.195 0.707 0s0.195 0.512 0 0.707l-0.354 0.354c-0.195 0.195-0.512 0.195-0.707 0s-0.195-0.512 0-0.707l0.354-0.354z"></path>
</svg>
