<!-- Generated by IcoMoon.io -->
<svg version="1.1" xmlns="http://www.w3.org/2000/svg" width="9" height="8" viewBox="0 0 9 8">
<title>bubbles</title>
<path d="M8.5 7.040c0 0.355 0.203 0.663 0.5 0.814v0.125c-0.083 0.011-0.168 0.017-0.254 0.017-0.531 0-1.011-0.223-1.349-0.58-0.205 0.055-0.422 0.084-0.647 0.084-1.243 0-2.25-0.895-2.25-2s1.007-2 2.25-2c1.243 0 2.25 0.895 2.25 2 0 0.432-0.154 0.833-0.417 1.16-0.053 0.116-0.083 0.245-0.083 0.38zM4 0c2.175 0 3.945 1.411 3.999 3.168-0.384-0.171-0.809-0.262-1.249-0.262-0.747 0-1.452 0.261-1.985 0.736-0.553 0.492-0.858 1.152-0.858 1.858 0 0.349 0.075 0.687 0.217 0.998-0.041 0.001-0.082 0.002-0.123 0.002-0.212 0-0.42-0.014-0.624-0.039-0.859 0.859-1.885 1.013-2.876 1.036v-0.21c0.535-0.262 1-0.74 1-1.286 0-0.076-0.006-0.151-0.017-0.224-0.905-0.596-1.483-1.506-1.483-2.526 0-1.795 1.791-3.25 4-3.25z"></path>
</svg>
