<!-- Generated by IcoMoon.io -->
<svg version="1.1" xmlns="http://www.w3.org/2000/svg" width="8" height="8" viewBox="0 0 8 8">
<title>bubble2</title>
<path d="M4 1.5c-0.429 0-0.844 0.068-1.232 0.201-0.365 0.125-0.69 0.303-0.966 0.527-0.517 0.42-0.802 0.961-0.802 1.522 0 0.315 0.087 0.62 0.26 0.907 0.178 0.296 0.445 0.567 0.773 0.783 0.237 0.156 0.397 0.406 0.439 0.687 0.014 0.094 0.023 0.188 0.026 0.282 0.058-0.048 0.115-0.1 0.171-0.156 0.189-0.189 0.444-0.293 0.707-0.293 0.042 0 0.084 0.003 0.126 0.008 0.164 0.021 0.331 0.031 0.497 0.031 0.429 0 0.844-0.068 1.232-0.201 0.365-0.125 0.69-0.303 0.966-0.527 0.517-0.42 0.802-0.961 0.802-1.522s-0.285-1.102-0.802-1.522c-0.276-0.224-0.601-0.401-0.966-0.527-0.388-0.133-0.803-0.201-1.232-0.201zM4 0.5v0c2.209 0 4 1.455 4 3.25s-1.791 3.25-4 3.25c-0.212 0-0.42-0.014-0.624-0.039-0.859 0.859-1.885 1.013-2.876 1.036v-0.21c0.535-0.262 1-0.74 1-1.286 0-0.076-0.006-0.151-0.017-0.224-0.905-0.596-1.483-1.506-1.483-2.526 0-1.795 1.791-3.25 4-3.25z"></path>
</svg>
