<!-- Generated by IcoMoon.io -->
<svg version="1.1" xmlns="http://www.w3.org/2000/svg" width="9" height="8" viewBox="0 0 9 8">
<title>bubbles4</title>
<path d="M3.75 1c-0.396 0-0.778 0.062-1.136 0.185-0.335 0.115-0.634 0.277-0.887 0.482-0.469 0.38-0.727 0.866-0.727 1.369 0 0.281 0.079 0.554 0.234 0.812 0.162 0.268 0.405 0.514 0.705 0.711 0.238 0.156 0.398 0.406 0.44 0.687 0.007 0.047 0.013 0.094 0.017 0.141 0.021-0.020 0.042-0.040 0.063-0.061 0.189-0.188 0.443-0.292 0.706-0.292 0.042 0 0.084 0.003 0.126 0.008 0.151 0.019 0.306 0.029 0.459 0.029 0.396 0 0.778-0.062 1.136-0.185 0.335-0.115 0.634-0.277 0.887-0.482 0.469-0.38 0.727-0.866 0.727-1.369s-0.258-0.989-0.727-1.369c-0.253-0.205-0.551-0.367-0.887-0.482-0.358-0.122-0.74-0.185-1.136-0.185zM3.75 0v0c2.071 0 3.75 1.359 3.75 3.035s-1.679 3.035-3.75 3.035c-0.199 0-0.394-0.013-0.585-0.037-0.806 0.802-1.736 0.946-2.665 0.967v-0.196c0.502-0.245 0.906-0.691 0.906-1.201 0-0.071-0.006-0.141-0.016-0.209-0.848-0.556-1.39-1.406-1.39-2.359 0-1.676 1.679-3.035 3.75-3.035zM7.781 6.802c0 0.437 0.284 0.82 0.719 1.029v0.168c-0.806-0.018-1.545-0.141-2.243-0.829-0.165 0.021-0.334 0.032-0.507 0.032-0.746 0-1.433-0.201-1.981-0.539 1.13-0.004 2.197-0.366 3.007-1.021 0.408-0.33 0.73-0.717 0.956-1.151 0.24-0.46 0.362-0.95 0.362-1.456 0-0.082-0.004-0.163-0.010-0.244 0.567 0.468 0.916 1.106 0.916 1.81 0 0.816-0.47 1.545-1.205 2.022-0.009 0.059-0.014 0.118-0.014 0.179z"></path>
</svg>
