<!-- Generated by IcoMoon.io -->
<svg version="1.1" xmlns="http://www.w3.org/2000/svg" width="9" height="8" viewBox="0 0 9 8">
<title>bubbles3</title>
<path d="M8.5 7.040c0 0.355 0.203 0.663 0.5 0.814v0.125c-0.083 0.011-0.168 0.017-0.254 0.017-0.531 0-1.011-0.223-1.349-0.58-0.205 0.055-0.422 0.084-0.647 0.084-1.243 0-2.25-0.895-2.25-2s1.007-2 2.25-2c1.243 0 2.25 0.895 2.25 2 0 0.432-0.154 0.833-0.417 1.16-0.053 0.116-0.083 0.245-0.083 0.38zM1.802 1.728c-0.517 0.42-0.802 0.961-0.802 1.522 0 0.315 0.087 0.62 0.26 0.907 0.178 0.296 0.445 0.567 0.773 0.783 0.237 0.156 0.397 0.406 0.439 0.687 0.014 0.094 0.023 0.188 0.026 0.282 0.058-0.048 0.115-0.1 0.171-0.156 0.189-0.189 0.444-0.293 0.707-0.293 0.042 0 0.084 0.003 0.126 0.008 0.164 0.021 0.331 0.031 0.497 0.031v1c-0.212-0-0.42-0.014-0.623-0.039-0.859 0.859-1.885 1.013-2.876 1.036v-0.21c0.535-0.262 1-0.74 1-1.286 0-0.076-0.006-0.151-0.017-0.224-0.905-0.596-1.483-1.506-1.483-2.526 0-1.795 1.791-3.25 4-3.25 2.175 0 3.945 1.411 3.999 3.168-0.321-0.143-0.671-0.23-1.033-0.255-0.090-0.438-0.355-0.85-0.768-1.186-0.276-0.224-0.601-0.401-0.966-0.527-0.388-0.133-0.803-0.201-1.232-0.201s-0.844 0.068-1.232 0.201c-0.365 0.125-0.69 0.303-0.966 0.527z"></path>
</svg>
