<!-- Generated by IcoMoon.io -->
<svg version="1.1" xmlns="http://www.w3.org/2000/svg" width="8" height="8" viewBox="0 0 8 8">
<title>bug</title>
<path d="M8 4.5v-0.5h-1.51c-0.046-0.568-0.248-1.086-0.56-1.502h1.265l0.547-2.189-0.485-0.121-0.453 1.811h-1.365c-0.007-0.005-0.014-0.011-0.021-0.016 0.052-0.152 0.081-0.316 0.081-0.486 0-0.826-0.672-1.496-1.5-1.496s-1.5 0.67-1.5 1.496c0 0.17 0.029 0.334 0.081 0.486-0.007 0.005-0.014 0.011-0.021 0.016h-1.365l-0.453-1.811-0.485 0.121 0.547 2.189h1.265c-0.312 0.416-0.514 0.934-0.56 1.502h-1.51v0.5h1.511c0.030 0.357 0.121 0.694 0.263 0.998h-0.969l-0.547 2.189 0.485 0.121 0.453-1.811h0.878c0.459 0.61 1.152 0.998 1.927 0.998s1.468-0.388 1.927-0.998h0.878l0.453 1.811 0.485-0.121-0.547-2.189h-0.969c0.142-0.304 0.233-0.641 0.263-0.998h1.511z"></path>
</svg>
