<!-- Generated by IcoMoon.io -->
<svg version="1.1" xmlns="http://www.w3.org/2000/svg" width="8" height="8" viewBox="0 0 8 8">
<title>bullhorn</title>
<path d="M8 3.354c0-1.57-0.459-2.843-1.027-2.853 0.002-0 0.005-0 0.007-0h-0.648c0 0-1.522 1.143-3.713 1.592-0.067 0.354-0.11 0.776-0.11 1.262s0.043 0.908 0.11 1.262c2.191 0.449 3.713 1.592 3.713 1.592h0.648c-0.002 0-0.005-0-0.007-0 0.568-0.010 1.027-1.284 1.027-2.853zM6.756 5.775c-0.073 0-0.153-0.076-0.193-0.121-0.099-0.11-0.194-0.281-0.275-0.495-0.182-0.478-0.282-1.12-0.282-1.806s0.1-1.327 0.282-1.806c0.081-0.214 0.176-0.385 0.275-0.495 0.041-0.045 0.12-0.121 0.193-0.121s0.153 0.076 0.193 0.121c0.099 0.11 0.194 0.281 0.275 0.495 0.182 0.478 0.282 1.12 0.282 1.806s-0.1 1.327-0.282 1.806c-0.081 0.214-0.176 0.385-0.275 0.495-0.041 0.045-0.12 0.121-0.193 0.121zM1.967 3.354c0-0.406 0.030-0.8 0.086-1.165-0.37 0.051-0.695 0.081-1.096 0.081-0.524 0-0.524 0-0.524 0l-0.433 0.74v0.689l0.433 0.74c0 0 0 0 0.524 0 0.402 0 0.726 0.029 1.096 0.081-0.057-0.365-0.086-0.759-0.086-1.165zM2.876 5.017l-1-0.191 0.639 2.512c0.033 0.13 0.162 0.196 0.287 0.146l0.926-0.371c0.125-0.050 0.174-0.187 0.111-0.305l-0.963-1.79zM6.756 4.287c-0.028 0-0.059-0.029-0.075-0.047-0.038-0.042-0.075-0.108-0.106-0.191-0.070-0.184-0.109-0.432-0.109-0.696s0.039-0.512 0.109-0.696c0.031-0.082 0.068-0.148 0.106-0.191 0.016-0.018 0.046-0.047 0.075-0.047s0.059 0.029 0.075 0.047c0.038 0.042 0.075 0.108 0.106 0.191 0.070 0.184 0.109 0.432 0.109 0.696s-0.039 0.512-0.109 0.696c-0.031 0.082-0.068 0.148-0.106 0.191-0.016 0.017-0.046 0.047-0.075 0.047z"></path>
</svg>
