<!-- Generated by IcoMoon.io -->
<svg version="1.1" xmlns="http://www.w3.org/2000/svg" width="8" height="8" viewBox="0 0 8 8">
<title>calculator</title>
<path d="M3 0.5h-2.5c-0.275 0-0.5 0.225-0.5 0.5v2.5c0 0.275 0.225 0.5 0.5 0.5h2.5c0.275 0 0.5-0.225 0.5-0.5v-2.5c0-0.275-0.225-0.5-0.5-0.5zM3 2.5h-2.5v-0.5h2.5v0.5zM7 0.5h-2.5c-0.275 0-0.5 0.225-0.5 0.5v6.5c0 0.275 0.225 0.5 0.5 0.5h2.5c0.275 0 0.5-0.225 0.5-0.5v-6.5c0-0.275-0.225-0.5-0.5-0.5zM7 5h-2.5v-0.5h2.5v0.5zM7 3.5h-2.5v-0.5h2.5v0.5zM3 4.5h-2.5c-0.275 0-0.5 0.225-0.5 0.5v2.5c0 0.275 0.225 0.5 0.5 0.5h2.5c0.275 0 0.5-0.225 0.5-0.5v-2.5c0-0.275-0.225-0.5-0.5-0.5zM3 6.5h-1v1h-0.5v-1h-1v-0.5h1v-1h0.5v1h1v0.5z"></path>
</svg>
