<!-- Generated by IcoMoon.io -->
<svg version="1.1" xmlns="http://www.w3.org/2000/svg" width="8" height="8" viewBox="0 0 8 8">
<title>camera</title>
<path d="M2.375 4.75c0 0.897 0.728 1.625 1.625 1.625s1.625-0.728 1.625-1.625-0.728-1.625-1.625-1.625-1.625 0.728-1.625 1.625zM7.5 2h-1.75c-0.125-0.5-0.25-1-0.75-1h-2c-0.5 0-0.625 0.5-0.75 1h-1.75c-0.275 0-0.5 0.225-0.5 0.5v4.5c0 0.275 0.225 0.5 0.5 0.5h7c0.275 0 0.5-0.225 0.5-0.5v-4.5c0-0.275-0.225-0.5-0.5-0.5zM4 6.969c-1.225 0-2.219-0.993-2.219-2.219s0.993-2.219 2.219-2.219c1.225 0 2.219 0.993 2.219 2.219s-0.993 2.219-2.219 2.219zM7.5 3.5h-1v-0.5h1v0.5z"></path>
</svg>
