<!-- Generated by IcoMoon.io -->
<svg version="1.1" xmlns="http://www.w3.org/2000/svg" width="8" height="8" viewBox="0 0 8 8">
<title>cart</title>
<path d="M3 7.25c0 0.414-0.336 0.75-0.75 0.75s-0.75-0.336-0.75-0.75c0-0.414 0.336-0.75 0.75-0.75s0.75 0.336 0.75 0.75z"></path>
<path d="M8 7.25c0 0.414-0.336 0.75-0.75 0.75s-0.75-0.336-0.75-0.75c0-0.414 0.336-0.75 0.75-0.75s0.75 0.336 0.75 0.75z"></path>
<path d="M8 4v-3h-6c0-0.276-0.224-0.5-0.5-0.5h-1.5v0.5h1l0.376 3.219c-0.229 0.183-0.376 0.465-0.376 0.781 0 0.552 0.448 1 1 1h6v-0.5h-6c-0.276 0-0.5-0.224-0.5-0.5 0-0.002 0-0.003 0-0.005l6.5-0.995z"></path>
</svg>
