<!-- Generated by IcoMoon.io -->
<svg version="1.1" xmlns="http://www.w3.org/2000/svg" width="8" height="8" viewBox="0 0 8 8">
<title>chrome</title>
<path d="M2.018 3.489l-1.145-1.983c0.733-0.918 1.861-1.506 3.127-1.506 1.464 0 2.745 0.787 3.442 1.961h-3.264c-0.059-0.005-0.118-0.008-0.178-0.008-0.952 0-1.755 0.653-1.982 1.535zM5.432 2.539h2.293c0.178 0.453 0.275 0.945 0.275 1.461 0 2.194-1.766 3.975-3.955 3.999l1.636-2.833c0.23-0.331 0.366-0.733 0.366-1.166 0-0.572-0.236-1.089-0.615-1.461zM2.547 4c0-0.801 0.652-1.453 1.453-1.453s1.453 0.652 1.453 1.453c0 0.801-0.652 1.453-1.453 1.453s-1.453-0.652-1.453-1.453zM4.548 5.972l-1.145 1.983c-1.926-0.288-3.403-1.949-3.403-3.956 0-0.713 0.187-1.382 0.513-1.961l1.633 2.829c0.327 0.696 1.035 1.179 1.854 1.179 0.19 0 0.374-0.026 0.548-0.075z"></path>
</svg>
