<!-- Generated by IcoMoon.io -->
<svg version="1.1" xmlns="http://www.w3.org/2000/svg" width="8" height="8" viewBox="0 0 8 8">
<title>clipboard</title>
<path d="M7.25 1h-2.25c0-0.552-0.448-1-1-1s-1 0.448-1 1h-2.25c-0.138 0-0.25 0.112-0.25 0.25v6.5c0 0.138 0.112 0.25 0.25 0.25h6.5c0.138 0 0.25-0.112 0.25-0.25v-6.5c0-0.138-0.112-0.25-0.25-0.25zM4 0.5c0.276 0 0.5 0.224 0.5 0.5s-0.224 0.5-0.5 0.5c-0.276 0-0.5-0.224-0.5-0.5s0.224-0.5 0.5-0.5zM7 7.5h-6v-6h1v0.75c0 0.138 0.112 0.25 0.25 0.25h3.5c0.138 0 0.25-0.112 0.25-0.25v-0.75h1v6z"></path>
<path d="M3.5 6.707l-1.604-1.854 0.457-0.457 1.146 0.896 2.146-1.896 0.457 0.457z"></path>
</svg>
