<!-- Generated by IcoMoon.io -->
<svg version="1.1" xmlns="http://www.w3.org/2000/svg" width="8" height="8" viewBox="0 0 8 8">
<title>cloud</title>
<path d="M8 5.137c0-0.641-0.443-1.179-1.039-1.324-0.025-1.005-0.847-1.813-1.858-1.813-0.592 0-1.119 0.277-1.46 0.709-0.191-0.247-0.49-0.406-0.826-0.406-0.577 0-1.044 0.468-1.044 1.045 0 0.050 0.004 0.1 0.011 0.148-0.088-0.016-0.178-0.025-0.27-0.025-0.836-0-1.514 0.678-1.514 1.514s0.678 1.514 1.514 1.514l5.127-0c0.751-0.001 1.359-0.611 1.359-1.363z"></path>
</svg>
