<!-- Generated by IcoMoon.io -->
<svg version="1.1" xmlns="http://www.w3.org/2000/svg" width="8" height="8" viewBox="0 0 8 8">
<title>cloud-upload</title>
<path d="M6.971 3.019c0.019-0.087 0.029-0.177 0.029-0.269 0-0.69-0.56-1.25-1.25-1.25-0.111 0-0.219 0.015-0.321 0.042-0.194-0.604-0.76-1.042-1.429-1.042-0.682 0-1.258 0.456-1.44 1.079-0.178-0.052-0.366-0.079-0.56-0.079-1.105 0-2 0.895-2 2s0.895 2 2 2h1v1.5h2v-1.5h1.75c0.69 0 1.25-0.56 1.25-1.25 0-0.615-0.444-1.126-1.029-1.231zM4.5 5v1.5h-1v-1.5h-1.25l1.75-1.75 1.75 1.75h-1.25z"></path>
</svg>
