<!-- Generated by IcoMoon.io -->
<svg version="1.1" xmlns="http://www.w3.org/2000/svg" width="8" height="8" viewBox="0 0 8 8">
<title>cloud-check</title>
<path d="M6.971 4.019c0.019-0.087 0.029-0.177 0.029-0.269 0-0.69-0.56-1.25-1.25-1.25-0.111 0-0.219 0.015-0.321 0.042-0.194-0.604-0.76-1.042-1.429-1.042-0.682 0-1.258 0.456-1.44 1.079-0.178-0.052-0.366-0.079-0.56-0.079-1.105 0-2 0.895-2 2s0.895 2 2 2h4.75c0.69 0 1.25-0.56 1.25-1.25 0-0.615-0.444-1.126-1.029-1.231zM3.25 6l-1.25-1.25 0.5-0.5 0.75 0.75 1.75-1.75 0.5 0.5-2.25 2.25z"></path>
</svg>
