<!-- Generated by IcoMoon.io -->
<svg version="1.1" xmlns="http://www.w3.org/2000/svg" width="8" height="8" viewBox="0 0 8 8">
<title>clubs</title>
<path d="M6.147 3.069c-0.461 0-0.876 0.192-1.171 0.505-0.125 0.133-0.342 0.29-0.577 0.428 0.11-0.421 0.458-0.951 0.7-1.183 0.31-0.298 0.5-0.717 0.5-1.184 0-0.898-0.715-1.626-1.6-1.635-0.885 0.010-1.6 0.738-1.6 1.635 0 0.466 0.19 0.885 0.5 1.184 0.242 0.232 0.59 0.762 0.7 1.183-0.235-0.138-0.452-0.296-0.577-0.428-0.295-0.313-0.71-0.505-1.171-0.505-0.894 0-1.618 0.732-1.618 1.635s0.724 1.635 1.618 1.635c0.461 0 0.876-0.198 1.171-0.511 0.131-0.14 0.363-0.314 0.612-0.458-0.023 1.154-0.574 2.001-1.135 2.335v0.295h3v-0.295c-0.561-0.334-1.112-1.181-1.135-2.335 0.249 0.144 0.48 0.319 0.612 0.458 0.295 0.313 0.709 0.511 1.171 0.511 0.894 0 1.618-0.732 1.618-1.635s-0.724-1.635-1.618-1.635z"></path>
</svg>
