<!-- Generated by IcoMoon.io -->
<svg version="1.1" xmlns="http://www.w3.org/2000/svg" width="8" height="8" viewBox="0 0 8 8">
<title>codepen</title>
<path d="M7.389 2.875l-3.5-2.333c-0.084-0.056-0.193-0.056-0.277 0l-3.5 2.333c-0.070 0.046-0.111 0.124-0.111 0.208v2.333c0 0.084 0.042 0.162 0.111 0.208l3.5 2.333c0.042 0.028 0.090 0.042 0.139 0.042s0.097-0.014 0.139-0.042l3.5-2.333c0.070-0.046 0.111-0.124 0.111-0.208v-2.333c0-0.084-0.042-0.162-0.111-0.208zM3.75 5.116l-1.299-0.866 1.299-0.866 1.299 0.866-1.299 0.866zM4 2.95v-1.732l2.799 1.866-1.299 0.866-1.5-1zM3.5 2.95l-1.5 1-1.299-0.866 2.799-1.866v1.732zM1.549 4.25l-1.049 0.7v-1.399l1.049 0.7zM2 4.55l1.5 1v1.732l-2.799-1.866 1.299-0.866zM4 5.55l1.5-1 1.299 0.866-2.799 1.866v-1.732zM5.951 4.25l1.049-0.7v1.399l-1.049-0.7z"></path>
</svg>
