<!-- Generated by IcoMoon.io -->
<svg version="1.1" xmlns="http://www.w3.org/2000/svg" width="8" height="8" viewBox="0 0 8 8">
<title>cogs</title>
<path d="M2.842 5.641l0.323-0.452-0.354-0.354-0.452 0.323c-0.084-0.047-0.173-0.084-0.268-0.111l-0.091-0.548h-0.5l-0.091 0.548c-0.094 0.027-0.184 0.064-0.268 0.111l-0.452-0.323-0.354 0.354 0.323 0.452c-0.047 0.084-0.084 0.173-0.111 0.268l-0.548 0.091v0.5l0.548 0.091c0.027 0.094 0.064 0.184 0.111 0.268l-0.323 0.452 0.354 0.354 0.452-0.323c0.084 0.047 0.173 0.084 0.268 0.111l0.091 0.548h0.5l0.091-0.548c0.094-0.027 0.184-0.064 0.268-0.111l0.452 0.323 0.354-0.354-0.323-0.452c0.047-0.084 0.084-0.173 0.111-0.268l0.548-0.091v-0.5l-0.548-0.091c-0.027-0.094-0.064-0.184-0.111-0.268zM1.75 6.75c-0.276 0-0.5-0.224-0.5-0.5s0.224-0.5 0.5-0.5 0.5 0.224 0.5 0.5-0.224 0.5-0.5 0.5zM8 3v-0.5l-0.526-0.096c-0.010-0.063-0.022-0.125-0.037-0.186l0.45-0.29-0.191-0.462-0.523 0.113c-0.033-0.054-0.068-0.106-0.105-0.157l0.305-0.44-0.354-0.354-0.44 0.305c-0.051-0.037-0.103-0.072-0.157-0.105l0.113-0.523-0.462-0.191-0.29 0.45c-0.061-0.015-0.123-0.027-0.186-0.037l-0.096-0.526h-0.5l-0.096 0.526c-0.063 0.010-0.125 0.022-0.186 0.037l-0.29-0.45-0.462 0.191 0.113 0.523c-0.054 0.033-0.106 0.068-0.157 0.105l-0.44-0.305-0.354 0.354 0.305 0.44c-0.037 0.051-0.072 0.103-0.105 0.157l-0.523-0.113-0.191 0.462 0.45 0.29c-0.015 0.061-0.027 0.123-0.037 0.186l-0.526 0.096v0.5l0.526 0.096c0.010 0.063 0.022 0.125 0.037 0.186l-0.45 0.29 0.191 0.462 0.523-0.113c0.033 0.054 0.068 0.106 0.105 0.157l-0.305 0.44 0.354 0.354 0.44-0.305c0.051 0.037 0.103 0.072 0.157 0.105l-0.113 0.523 0.462 0.191 0.29-0.45c0.061 0.015 0.123 0.027 0.186 0.037l0.096 0.526h0.5l0.096-0.526c0.063-0.010 0.125-0.022 0.186-0.037l0.29 0.45 0.462-0.191-0.113-0.523c0.054-0.033 0.106-0.068 0.157-0.105l0.44 0.305 0.354-0.354-0.305-0.44c0.037-0.051 0.072-0.103 0.105-0.157l0.523 0.113 0.191-0.462-0.45-0.29c0.015-0.061 0.027-0.123 0.037-0.186l0.526-0.096zM5.25 3.837c-0.601 0-1.088-0.487-1.088-1.087s0.487-1.087 1.088-1.087 1.088 0.487 1.088 1.087c0 0.601-0.487 1.087-1.088 1.087z"></path>
</svg>
