<!-- Generated by IcoMoon.io -->
<svg version="1.1" xmlns="http://www.w3.org/2000/svg" width="8" height="8" viewBox="0 0 8 8">
<title>coin-pound</title>
<path d="M3.75 0.5c-2.071 0-3.75 1.679-3.75 3.75s1.679 3.75 3.75 3.75c2.071 0 3.75-1.679 3.75-3.75s-1.679-3.75-3.75-3.75zM3.75 7.25c-1.657 0-3-1.343-3-3s1.343-3 3-3c1.657 0 3 1.343 3 3s-1.343 3-3 3z"></path>
<path d="M4.75 5.5h-1.75v-1h0.75c0.138 0 0.25-0.112 0.25-0.25s-0.112-0.25-0.25-0.25h-0.75v-0.25c0-0.414 0.336-0.75 0.75-0.75 0.267 0 0.516 0.144 0.65 0.375 0.069 0.12 0.222 0.16 0.342 0.091s0.16-0.222 0.091-0.342c-0.223-0.385-0.638-0.625-1.083-0.625-0.689 0-1.25 0.561-1.25 1.25v0.25h-0.25c-0.138 0-0.25 0.112-0.25 0.25s0.112 0.25 0.25 0.25h0.25v1.5h2.25c0.138 0 0.25-0.112 0.25-0.25s-0.112-0.25-0.25-0.25z"></path>
</svg>
