<!-- Generated by IcoMoon.io -->
<svg version="1.1" xmlns="http://www.w3.org/2000/svg" width="8" height="8" viewBox="0 0 8 8">
<title>coin-yen</title>
<path d="M3.75 0.5c-2.071 0-3.75 1.679-3.75 3.75s1.679 3.75 3.75 3.75c2.071 0 3.75-1.679 3.75-3.75s-1.679-3.75-3.75-3.75zM3.75 7.25c-1.657 0-3-1.343-3-3s1.343-3 3-3c1.657 0 3 1.343 3 3s-1.343 3-3 3z"></path>
<path d="M4.75 4.5c0.138 0 0.25-0.112 0.25-0.25s-0.112-0.25-0.25-0.25h-0.533l0.741-1.111c0.077-0.115 0.046-0.27-0.069-0.347s-0.27-0.046-0.347 0.069l-0.792 1.188-0.792-1.188c-0.077-0.115-0.232-0.146-0.347-0.069s-0.146 0.232-0.069 0.347l0.741 1.111h-0.533c-0.138 0-0.25 0.112-0.25 0.25s0.112 0.25 0.25 0.25h0.75v0.5h-0.75c-0.138 0-0.25 0.112-0.25 0.25s0.112 0.25 0.25 0.25h0.75v0.75c0 0.138 0.112 0.25 0.25 0.25s0.25-0.112 0.25-0.25v-0.75h0.75c0.138 0 0.25-0.112 0.25-0.25s-0.112-0.25-0.25-0.25h-0.75v-0.5h0.75z"></path>
</svg>
