<!-- Generated by IcoMoon.io -->
<svg version="1.1" xmlns="http://www.w3.org/2000/svg" width="8" height="8" viewBox="0 0 8 8">
<title>coin-euro</title>
<path d="M3.75 0.5c-2.071 0-3.75 1.679-3.75 3.75s1.679 3.75 3.75 3.75c2.071 0 3.75-1.679 3.75-3.75s-1.679-3.75-3.75-3.75zM3.75 7.25c-1.657 0-3-1.343-3-3s1.343-3 3-3c1.657 0 3 1.343 3 3s-1.343 3-3 3z"></path>
<path d="M5.241 5.034c-0.119-0.069-0.272-0.029-0.342 0.090-0.135 0.232-0.383 0.376-0.649 0.376h-1c-0.326 0-0.604-0.209-0.707-0.5h1.207c0.138 0 0.25-0.112 0.25-0.25s-0.112-0.25-0.25-0.25h-1.25v-0.5h1.25c0.138 0 0.25-0.112 0.25-0.25s-0.112-0.25-0.25-0.25h-1.207c0.103-0.291 0.381-0.5 0.707-0.5h1c0.266 0 0.514 0.144 0.649 0.376 0.069 0.119 0.222 0.16 0.342 0.090s0.16-0.222 0.090-0.342c-0.224-0.385-0.638-0.624-1.081-0.624h-1c-0.604 0-1.109 0.43-1.225 1h-0.275c-0.138 0-0.25 0.112-0.25 0.25s0.112 0.25 0.25 0.25h0.25v0.5h-0.25c-0.138 0-0.25 0.112-0.25 0.25s0.112 0.25 0.25 0.25h0.275c0.116 0.57 0.621 1 1.225 1h1c0.443 0 0.857-0.239 1.081-0.624 0.069-0.119 0.029-0.272-0.090-0.342z"></path>
</svg>
