<!-- Generated by IcoMoon.io -->
<svg version="1.1" xmlns="http://www.w3.org/2000/svg" width="8" height="8" viewBox="0 0 8 8">
<title>command</title>
<path d="M5.75 7c-0.689 0-1.25-0.561-1.25-1.25v-0.75h-1v0.75c0 0.689-0.561 1.25-1.25 1.25s-1.25-0.561-1.25-1.25 0.561-1.25 1.25-1.25h0.75v-1h-0.75c-0.689 0-1.25-0.561-1.25-1.25s0.561-1.25 1.25-1.25 1.25 0.561 1.25 1.25v0.75h1v-0.75c0-0.689 0.561-1.25 1.25-1.25s1.25 0.561 1.25 1.25-0.561 1.25-1.25 1.25h-0.75v1h0.75c0.689 0 1.25 0.561 1.25 1.25s-0.561 1.25-1.25 1.25zM5 5v0.75c0 0.414 0.336 0.75 0.75 0.75s0.75-0.336 0.75-0.75-0.336-0.75-0.75-0.75h-0.75zM2.25 5c-0.414 0-0.75 0.336-0.75 0.75s0.336 0.75 0.75 0.75 0.75-0.336 0.75-0.75v-0.75h-0.75zM3.5 4.5h1v-1h-1v1zM5 3h0.75c0.414 0 0.75-0.336 0.75-0.75s-0.336-0.75-0.75-0.75-0.75 0.336-0.75 0.75v0.75zM2.25 1.5c-0.414 0-0.75 0.336-0.75 0.75s0.336 0.75 0.75 0.75h0.75v-0.75c0-0.414-0.336-0.75-0.75-0.75z"></path>
</svg>
