<!-- Generated by IcoMoon.io -->
<svg version="1.1" xmlns="http://www.w3.org/2000/svg" width="8" height="8" viewBox="0 0 8 8">
<title>compass2</title>
<path d="M4 0c-2.209 0-4 1.791-4 4s1.791 4 4 4 4-1.791 4-4-1.791-4-4-4zM0.75 4c0-1.795 1.455-3.25 3.25-3.25 0.856 0 1.635 0.331 2.215 0.872l-3.215 1.378-1.378 3.215c-0.541-0.58-0.872-1.359-0.872-2.215zM4.572 4.572l-2.001 0.857 0.857-2.001 1.143 1.143zM4 7.25c-0.856 0-1.635-0.331-2.215-0.872l3.215-1.378 1.378-3.215c0.541 0.58 0.872 1.359 0.872 2.215 0 1.795-1.455 3.25-3.25 3.25z"></path>
</svg>
