<!-- Generated by IcoMoon.io -->
<svg version="1.1" xmlns="http://www.w3.org/2000/svg" width="8" height="8" viewBox="0 0 8 8">
<title>compass</title>
<path d="M4.25 8c-0.018 0-0.036-0.002-0.054-0.006-0.114-0.025-0.196-0.127-0.196-0.244v-3.75h-3.75c-0.117 0-0.219-0.081-0.244-0.196s0.032-0.231 0.138-0.281l7.5-3.5c0.095-0.044 0.208-0.025 0.282 0.050s0.094 0.187 0.050 0.282l-3.5 7.5c-0.042 0.089-0.131 0.144-0.226 0.144zM1.377 3.5h2.873c0.138 0 0.25 0.112 0.25 0.25v2.873l2.733-5.856-5.856 2.733z"></path>
</svg>
