<!-- Generated by IcoMoon.io -->
<svg version="1.1" xmlns="http://www.w3.org/2000/svg" width="8" height="8" viewBox="0 0 8 8">
<title>confused</title>
<path d="M4 8c2.209 0 4-1.791 4-4s-1.791-4-4-4-4 1.791-4 4 1.791 4 4 4zM4 0.75c1.795 0 3.25 1.455 3.25 3.25s-1.455 3.25-3.25 3.25-3.25-1.455-3.25-3.25 1.455-3.25 3.25-3.25zM2 2.5c0-0.276 0.224-0.5 0.5-0.5s0.5 0.224 0.5 0.5c0 0.276-0.224 0.5-0.5 0.5s-0.5-0.224-0.5-0.5zM5 2.5c0-0.276 0.224-0.5 0.5-0.5s0.5 0.224 0.5 0.5c0 0.276-0.224 0.5-0.5 0.5s-0.5-0.224-0.5-0.5zM5.673 5h0.507c0.072 0.566-0.254 1.129-0.812 1.332-0.648 0.236-1.366-0.099-1.602-0.747-0.141-0.389-0.573-0.59-0.961-0.448-0.356 0.13-0.554 0.502-0.476 0.863h-0.507c-0.072-0.566 0.254-1.129 0.812-1.333 0.648-0.236 1.366 0.099 1.602 0.747 0.141 0.389 0.573 0.59 0.961 0.448 0.356-0.13 0.554-0.502 0.476-0.863z"></path>
</svg>
