<!-- Generated by IcoMoon.io -->
<svg version="1.1" xmlns="http://www.w3.org/2000/svg" width="10" height="8" viewBox="0 0 10 8">
<title>connection</title>
<path d="M5 4.5c0.827 0 1.577 0.336 2.12 0.88l-0.707 0.707c-0.362-0.362-0.862-0.586-1.414-0.586s-1.051 0.224-1.414 0.586l-0.707-0.707c0.543-0.543 1.293-0.88 2.12-0.88zM1.464 3.964c0.944-0.944 2.2-1.464 3.536-1.464s2.591 0.52 3.536 1.464l-0.707 0.707c-0.756-0.756-1.76-1.172-2.828-1.172s-2.073 0.416-2.828 1.172l-0.707-0.707zM7.725 1.050c0.834 0.353 1.582 0.857 2.225 1.5v0l-0.707 0.707c-1.133-1.133-2.64-1.757-4.243-1.757s-3.109 0.624-4.243 1.757l-0.707-0.707c0.643-0.643 1.391-1.147 2.225-1.5 0.863-0.365 1.78-0.55 2.725-0.55s1.862 0.185 2.725 0.55zM4.5 7c0-0.276 0.224-0.5 0.5-0.5s0.5 0.224 0.5 0.5c0 0.276-0.224 0.5-0.5 0.5s-0.5-0.224-0.5-0.5z"></path>
</svg>
