<!-- Generated by IcoMoon.io -->
<svg version="1.1" xmlns="http://www.w3.org/2000/svg" width="8" height="8" viewBox="0 0 8 8">
<title>cool2</title>
<path d="M4 0c-2.209 0-4 1.791-4 4s1.791 4 4 4c2.209 0 4-1.791 4-4s-1.791-4-4-4zM4 6.5c-0.379 0-0.737-0.084-1.059-0.235l0.259-0.432c0.245 0.107 0.515 0.167 0.8 0.167 0.728 0 1.365-0.389 1.715-0.971l0.429 0.257c-0.437 0.727-1.234 1.214-2.144 1.214zM6.5 3c0 0.275-0.225 0.5-0.5 0.5h-1c-0.275 0-0.5-0.225-0.5-0.5h-1c0 0.275-0.225 0.5-0.5 0.5h-1c-0.275 0-0.5-0.225-0.5-0.5v-0.75c0-0.138 0.113-0.25 0.25-0.25h1.5c0.138 0 0.25 0.112 0.25 0.25v0.25h1v-0.25c0-0.138 0.112-0.25 0.25-0.25h1.5c0.138 0 0.25 0.112 0.25 0.25v0.75z"></path>
</svg>
