<!-- Generated by IcoMoon.io -->
<svg version="1.1" xmlns="http://www.w3.org/2000/svg" width="8" height="8" viewBox="0 0 8 8">
<title>credit-card</title>
<path d="M7.25 1h-6.5c-0.412 0-0.75 0.337-0.75 0.75v4.5c0 0.412 0.338 0.75 0.75 0.75h6.5c0.412 0 0.75-0.338 0.75-0.75v-4.5c0-0.413-0.338-0.75-0.75-0.75zM0.75 1.5h6.5c0.136 0 0.25 0.114 0.25 0.25v0.75h-7v-0.75c0-0.136 0.114-0.25 0.25-0.25zM7.25 6.5h-6.5c-0.136 0-0.25-0.114-0.25-0.25v-2.25h7v2.25c0 0.136-0.114 0.25-0.25 0.25zM1 5h0.5v1h-0.5zM2 5h0.5v1h-0.5zM3 5h0.5v1h-0.5z"></path>
</svg>
