<!-- Generated by IcoMoon.io -->
<svg version="1.1" xmlns="http://www.w3.org/2000/svg" width="8" height="8" viewBox="0 0 8 8">
<title>cross</title>
<path d="M7.927 6.427c-0-0-0-0-0-0l-2.427-2.427 2.427-2.427c0-0 0-0 0-0 0.026-0.026 0.045-0.057 0.057-0.089 0.033-0.089 0.014-0.193-0.057-0.264l-1.146-1.146c-0.071-0.071-0.175-0.090-0.264-0.057-0.032 0.012-0.063 0.031-0.089 0.057 0 0-0 0-0 0l-2.427 2.427-2.427-2.427c-0-0-0-0-0-0-0.026-0.026-0.057-0.045-0.089-0.057-0.089-0.033-0.193-0.014-0.264 0.057l-1.146 1.146c-0.071 0.071-0.090 0.175-0.057 0.264 0.012 0.032 0.031 0.063 0.057 0.089 0 0 0 0 0 0l2.427 2.427-2.427 2.427c-0 0-0 0-0 0-0.026 0.026-0.045 0.057-0.057 0.089-0.033 0.089-0.014 0.193 0.057 0.264l1.146 1.146c0.071 0.071 0.175 0.090 0.264 0.057 0.032-0.012 0.063-0.031 0.089-0.057 0-0 0-0 0-0l2.427-2.427 2.427 2.427c0 0 0 0 0 0 0.026 0.026 0.057 0.045 0.089 0.057 0.089 0.033 0.193 0.014 0.264-0.057l1.146-1.146c0.071-0.071 0.090-0.175 0.057-0.264-0.012-0.032-0.031-0.063-0.057-0.089z"></path>
</svg>
