<!-- Generated by IcoMoon.io -->
<svg version="1.1" xmlns="http://www.w3.org/2000/svg" width="8" height="8" viewBox="0 0 8 8">
<title>crying</title>
<path d="M4 8c2.209 0 4-1.791 4-4s-1.791-4-4-4-4 1.791-4 4 1.791 4 4 4zM4 0.75c1.795 0 3.25 1.455 3.25 3.25s-1.455 3.25-3.25 3.25-3.25-1.455-3.25-3.25 1.455-3.25 3.25-3.25z"></path>
<path d="M6.25 3h-1c-0.138 0-0.25-0.112-0.25-0.25s0.112-0.25 0.25-0.25h1c0.138 0 0.25 0.112 0.25 0.25s-0.112 0.25-0.25 0.25z"></path>
<path d="M2.75 3h-1c-0.138 0-0.25-0.112-0.25-0.25s0.112-0.25 0.25-0.25h1c0.138 0 0.25 0.112 0.25 0.25s-0.112 0.25-0.25 0.25z"></path>
<path d="M4.75 6.688c-0.064 0-0.128-0.024-0.177-0.073-0.036-0.036-0.23-0.114-0.573-0.114s-0.537 0.078-0.573 0.114c-0.098 0.098-0.256 0.098-0.354 0s-0.098-0.256 0-0.354c0.235-0.235 0.727-0.261 0.927-0.261s0.691 0.025 0.927 0.261c0.098 0.098 0.098 0.256 0 0.354-0.049 0.049-0.113 0.073-0.177 0.073z"></path>
<path d="M5.75 4.5c-0.138 0-0.25-0.112-0.25-0.25v-0.5c0-0.138 0.112-0.25 0.25-0.25s0.25 0.112 0.25 0.25v0.5c0 0.138-0.112 0.25-0.25 0.25z"></path>
<path d="M5.75 6c-0.138 0-0.25-0.112-0.25-0.25v-0.5c0-0.138 0.112-0.25 0.25-0.25s0.25 0.112 0.25 0.25v0.5c0 0.138-0.112 0.25-0.25 0.25z"></path>
<path d="M2.25 4.5c-0.138 0-0.25-0.112-0.25-0.25v-0.5c0-0.138 0.112-0.25 0.25-0.25s0.25 0.112 0.25 0.25v0.5c0 0.138-0.112 0.25-0.25 0.25z"></path>
<path d="M2.25 6c-0.138 0-0.25-0.112-0.25-0.25v-0.5c0-0.138 0.112-0.25 0.25-0.25s0.25 0.112 0.25 0.25v0.5c0 0.138-0.112 0.25-0.25 0.25z"></path>
</svg>
