<!-- Generated by IcoMoon.io -->
<svg version="1.1" xmlns="http://www.w3.org/2000/svg" width="8" height="8" viewBox="0 0 8 8">
<title>database</title>
<path d="M4 0c-2.209 0-4 0.56-4 1.25v1c0 0.69 1.791 1.25 4 1.25s4-0.56 4-1.25v-1c0-0.69-1.791-1.25-4-1.25z"></path>
<path d="M4 4.25c-2.209 0-4-0.56-4-1.25v1.5c0 0.69 1.791 1.25 4 1.25s4-0.56 4-1.25v-1.5c0 0.69-1.791 1.25-4 1.25z"></path>
<path d="M4 6.5c-2.209 0-4-0.56-4-1.25v1.5c0 0.69 1.791 1.25 4 1.25s4-0.56 4-1.25v-1.5c0 0.69-1.791 1.25-4 1.25z"></path>
</svg>
