<!-- Generated by IcoMoon.io -->
<svg version="1.1" xmlns="http://www.w3.org/2000/svg" width="8" height="8" viewBox="0 0 8 8">
<title>dice</title>
<path d="M6.75 1.5h-4c-0.688 0-1.25 0.563-1.25 1.25v4c0 0.688 0.563 1.25 1.25 1.25h4c0.688 0 1.25-0.563 1.25-1.25v-4c0-0.688-0.563-1.25-1.25-1.25zM3.25 7c-0.414 0-0.75-0.336-0.75-0.75s0.336-0.75 0.75-0.75 0.75 0.336 0.75 0.75-0.336 0.75-0.75 0.75zM3.25 4c-0.414 0-0.75-0.336-0.75-0.75s0.336-0.75 0.75-0.75 0.75 0.336 0.75 0.75-0.336 0.75-0.75 0.75zM4.75 5.5c-0.414 0-0.75-0.336-0.75-0.75s0.336-0.75 0.75-0.75 0.75 0.336 0.75 0.75-0.336 0.75-0.75 0.75zM6.25 7c-0.414 0-0.75-0.336-0.75-0.75s0.336-0.75 0.75-0.75 0.75 0.336 0.75 0.75-0.336 0.75-0.75 0.75zM6.25 4c-0.414 0-0.75-0.336-0.75-0.75s0.336-0.75 0.75-0.75 0.75 0.336 0.75 0.75-0.336 0.75-0.75 0.75zM6.475 1c-0.117-0.569-0.623-1-1.225-1h-4c-0.688 0-1.25 0.563-1.25 1.25v4c0 0.602 0.431 1.108 1 1.225v-4.975c0-0.275 0.225-0.5 0.5-0.5h4.975z"></path>
</svg>
