<!-- Generated by IcoMoon.io -->
<svg version="1.1" xmlns="http://www.w3.org/2000/svg" width="8" height="8" viewBox="0 0 8 8">
<title>dribbble</title>
<path d="M4 8c-2.206 0-4-1.794-4-4s1.794-4 4-4c2.206 0 4 1.794 4 4s-1.794 4-4 4v0zM7.373 4.547c-0.117-0.037-1.058-0.317-2.128-0.145 0.447 1.228 0.628 2.228 0.664 2.436 0.766-0.519 1.313-1.339 1.464-2.291v0zM5.334 7.15c-0.052-0.3-0.248-1.344-0.728-2.591-0.008 0.003-0.016 0.005-0.022 0.008-1.928 0.672-2.62 2.008-2.681 2.133 0.58 0.452 1.308 0.722 2.097 0.722 0.473 0 0.925-0.097 1.334-0.272v0zM1.461 6.289c0.078-0.133 1.016-1.684 2.777-2.255 0.044-0.014 0.089-0.028 0.134-0.041-0.086-0.194-0.18-0.389-0.277-0.58-1.705 0.511-3.361 0.489-3.511 0.487-0.002 0.034-0.002 0.069-0.002 0.105 0 0.877 0.333 1.678 0.878 2.283v0zM0.656 3.305c0.153 0.002 1.561 0.008 3.159-0.416-0.566-1.006-1.177-1.853-1.267-1.977-0.956 0.452-1.672 1.333-1.892 2.392v0zM3.2 0.683c0.094 0.127 0.716 0.972 1.275 2 1.216-0.455 1.73-1.147 1.791-1.234-0.603-0.536-1.397-0.861-2.266-0.861-0.275 0.002-0.544 0.034-0.8 0.095v0zM6.645 1.845c-0.072 0.097-0.645 0.831-1.908 1.347 0.080 0.163 0.156 0.328 0.227 0.495 0.025 0.059 0.050 0.117 0.073 0.177 1.138-0.142 2.267 0.086 2.38 0.109-0.008-0.806-0.297-1.547-0.772-2.128v0z"></path>
</svg>
