<!-- Generated by IcoMoon.io -->
<svg version="1.1" xmlns="http://www.w3.org/2000/svg" width="8" height="8" viewBox="0 0 8 8">
<title>droplet</title>
<path d="M6.755 3.697c-0.514-1.433-1.602-2.72-2.755-3.697-1.152 0.977-2.241 2.263-2.755 3.697-0.318 0.886-0.349 1.848 0.098 2.698 0.514 0.978 1.552 1.605 2.657 1.605s2.142-0.627 2.657-1.605c0.447-0.85 0.416-1.812 0.098-2.698zM5.772 5.929c-0.342 0.65-1.038 1.071-1.772 1.071-0.431 0-0.848-0.145-1.188-0.396 0.103 0.013 0.208 0.021 0.313 0.021 0.917 0 1.786-0.525 2.214-1.338 0.351-0.666 0.32-1.358 0.187-1.909 0.114 0.22 0.21 0.439 0.288 0.656 0.177 0.493 0.313 1.221-0.042 1.895z"></path>
</svg>
