<!-- Generated by IcoMoon.io -->
<svg version="1.1" xmlns="http://www.w3.org/2000/svg" width="8" height="8" viewBox="0 0 8 8">
<title>earth</title>
<path d="M4 0c-2.209 0-4 1.791-4 4s1.791 4 4 4 4-1.791 4-4-1.791-4-4-4zM4 7.5c-0.492 0-0.96-0.102-1.385-0.285l1.821-2.049c0.041-0.046 0.063-0.105 0.063-0.166v-0.75c0-0.138-0.112-0.25-0.25-0.25-0.883 0-1.814-0.918-1.823-0.927-0.047-0.047-0.11-0.073-0.177-0.073h-1c-0.138 0-0.25 0.112-0.25 0.25v1.5c0 0.095 0.054 0.181 0.138 0.224l0.862 0.431v1.468c-0.907-0.632-1.5-1.683-1.5-2.872 0-0.537 0.121-1.045 0.337-1.5h0.913c0.066 0 0.13-0.026 0.177-0.073l1-1c0.047-0.047 0.073-0.11 0.073-0.177v-0.605c0.317-0.094 0.652-0.145 1-0.145 0.55 0 1.070 0.127 1.533 0.353-0.032 0.027-0.064 0.056-0.094 0.086-0.283 0.283-0.439 0.66-0.439 1.061s0.156 0.777 0.439 1.061c0.285 0.285 0.666 0.44 1.060 0.44 0.025 0 0.050-0.001 0.074-0.002 0.108 0.405 0.303 1.458-0.066 2.909-0.003 0.014-0.005 0.027-0.007 0.041-0.635 0.649-1.521 1.052-2.501 1.052z"></path>
</svg>
