<!-- Generated by IcoMoon.io -->
<svg version="1.1" xmlns="http://www.w3.org/2000/svg" width="8" height="8" viewBox="0 0 8 8">
<title>edge</title>
<path d="M0.12 3.552c0.234-1.85 1.497-3.528 3.759-3.552 1.366 0.027 2.489 0.645 3.158 1.825 0.336 0.616 0.441 1.262 0.463 1.977v0.839h-5.020c0.023 2.070 3.047 2 4.348 1.088v1.686c-0.763 0.458-2.492 0.867-3.831 0.341-1.141-0.428-1.953-1.622-1.948-2.77-0.038-1.489 0.741-2.475 1.948-3.036-0.256 0.317-0.452 0.667-0.553 1.273h2.834c0 0 0.166-1.694-1.605-1.694-1.669 0.058-2.872 1.028-3.553 2.023v0z"></path>
</svg>
