<!-- Generated by IcoMoon.io -->
<svg version="1.1" xmlns="http://www.w3.org/2000/svg" width="8" height="8" viewBox="0 0 8 8">
<title>ello</title>
<path d="M4 0c-2.209 0-4 1.791-4 4s1.791 4 4 4 4-1.791 4-4-1.791-4-4-4zM6.442 4.606c-0.287 1.115-1.292 1.894-2.442 1.894s-2.155-0.779-2.443-1.894c-0.049-0.189 0.065-0.382 0.254-0.431 0.029-0.007 0.059-0.011 0.089-0.011 0.161 0 0.302 0.109 0.342 0.265 0.207 0.803 0.93 1.363 1.758 1.363s1.551-0.561 1.758-1.363c0.040-0.156 0.181-0.265 0.342-0.265 0.030 0 0.060 0.004 0.089 0.011 0.091 0.024 0.168 0.081 0.216 0.163s0.061 0.177 0.038 0.268z"></path>
</svg>
