<!-- Generated by IcoMoon.io -->
<svg version="1.1" xmlns="http://www.w3.org/2000/svg" width="8" height="8" viewBox="0 0 8 8">
<title>envelop</title>
<path d="M7.25 1h-6.5c-0.412 0-0.75 0.337-0.75 0.75v5c0 0.412 0.338 0.75 0.75 0.75h6.5c0.412 0 0.75-0.338 0.75-0.75v-5c0-0.413-0.338-0.75-0.75-0.75zM3.115 4.3l-2.115 1.648v-3.919l2.115 2.271zM1.378 2h5.244l-2.622 1.969-2.622-1.969zM3.198 4.388l0.802 0.862 0.802-0.862 1.645 2.112h-4.895l1.645-2.112zM4.885 4.3l2.115-2.271v3.919l-2.115-1.648z"></path>
</svg>
