<!-- Generated by IcoMoon.io -->
<svg version="1.1" xmlns="http://www.w3.org/2000/svg" width="8" height="8" viewBox="0 0 8 8">
<title>equalizer2</title>
<path d="M7 3.5h0.125c0.206 0 0.375-0.169 0.375-0.375v-1.25c0-0.206-0.169-0.375-0.375-0.375h-0.125v-1.5h-1v1.5h-0.125c-0.206 0-0.375 0.169-0.375 0.375v1.25c0 0.206 0.169 0.375 0.375 0.375h0.125v4.5h1v-4.5zM6 2h1v1h-1v-1zM4.625 6.5c0.206 0 0.375-0.169 0.375-0.375v-1.25c0-0.206-0.169-0.375-0.375-0.375h-0.125v-4.5h-1v4.5h-0.125c-0.206 0-0.375 0.169-0.375 0.375v1.25c0 0.206 0.169 0.375 0.375 0.375h0.125v1.5h1v-1.5h0.125zM3.5 5h1v1h-1v-1zM2.125 3.5c0.206 0 0.375-0.169 0.375-0.375v-1.25c0-0.206-0.169-0.375-0.375-0.375h-0.125v-1.5h-1v1.5h-0.125c-0.206 0-0.375 0.169-0.375 0.375v1.25c0 0.206 0.169 0.375 0.375 0.375h0.125v4.5h1v-4.5h0.125zM1 2h1v1h-1v-1z"></path>
</svg>
