<!-- Generated by IcoMoon.io -->
<svg version="1.1" xmlns="http://www.w3.org/2000/svg" width="8" height="8" viewBox="0 0 8 8">
<title>equalizer</title>
<path d="M3.5 1v-0.125c0-0.206-0.169-0.375-0.375-0.375h-1.25c-0.206 0-0.375 0.169-0.375 0.375v0.125h-1.5v1h1.5v0.125c0 0.206 0.169 0.375 0.375 0.375h1.25c0.206 0 0.375-0.169 0.375-0.375v-0.125h4.5v-1h-4.5zM2 2v-1h1v1h-1zM6.5 3.375c0-0.206-0.169-0.375-0.375-0.375h-1.25c-0.206 0-0.375 0.169-0.375 0.375v0.125h-4.5v1h4.5v0.125c0 0.206 0.169 0.375 0.375 0.375h1.25c0.206 0 0.375-0.169 0.375-0.375v-0.125h1.5v-1h-1.5v-0.125zM5 4.5v-1h1v1h-1zM3.5 5.875c0-0.206-0.169-0.375-0.375-0.375h-1.25c-0.206 0-0.375 0.169-0.375 0.375v0.125h-1.5v1h1.5v0.125c0 0.206 0.169 0.375 0.375 0.375h1.25c0.206 0 0.375-0.169 0.375-0.375v-0.125h4.5v-1h-4.5v-0.125zM2 7v-1h1v1h-1z"></path>
</svg>
