<!-- Generated by IcoMoon.io -->
<svg version="1.1" xmlns="http://www.w3.org/2000/svg" width="8" height="8" viewBox="0 0 8 8">
<title>evil</title>
<path d="M5 3.5c-0.276 0-0.5-0.224-0.5-0.5 0-0.009 0-0.018 0.001-0.027 0.016-0.371 0.353-0.617 0.637-0.759 0.271-0.136 0.54-0.204 0.551-0.206 0.134-0.034 0.27 0.048 0.303 0.182s-0.048 0.27-0.182 0.303c-0.138 0.035-0.301 0.095-0.445 0.167 0.083 0.089 0.134 0.209 0.134 0.341 0 0.276-0.224 0.5-0.5 0.5zM2.189 2.493c-0.134-0.033-0.215-0.169-0.182-0.303s0.169-0.215 0.303-0.182c0.011 0.003 0.28 0.071 0.551 0.206 0.284 0.142 0.622 0.388 0.637 0.759 0 0.009 0.001 0.018 0.001 0.027 0 0.276-0.224 0.5-0.5 0.5s-0.5-0.224-0.5-0.5c0-0.132 0.051-0.251 0.134-0.341-0.144-0.072-0.307-0.132-0.445-0.167zM4 5.75c0.637 0 1.195-0.341 1.501-0.85l0.643 0.386c-0.437 0.727-1.234 1.214-2.144 1.214s-1.707-0.487-2.144-1.214l0.643-0.386c0.306 0.509 0.864 0.85 1.501 0.85zM8 0.5c0-0.356-0.074-0.694-0.208-1-0.262 0.6-0.753 1.078-1.363 1.322-0.673-0.515-1.515-0.822-2.429-0.822s-1.755 0.306-2.429 0.822c-0.61-0.244-1.101-0.721-1.363-1.322-0.134 0.306-0.208 0.644-0.208 1 0 0.575 0.194 1.104 0.52 1.526-0.331 0.582-0.52 1.256-0.52 1.974 0 2.209 1.791 4 4 4s4-1.791 4-4c0-0.718-0.189-1.391-0.52-1.974 0.326-0.422 0.52-0.952 0.52-1.526zM4 7.25c-1.795 0-3.25-1.455-3.25-3.25s1.455-3.25 3.25-3.25 3.25 1.455 3.25 3.25-1.455 3.25-3.25 3.25z"></path>
</svg>
