<!-- Generated by IcoMoon.io -->
<svg version="1.1" xmlns="http://www.w3.org/2000/svg" width="8" height="8" viewBox="0 0 8 8">
<title>eye-minus</title>
<path d="M5 1h3v1h-3v-1z"></path>
<path d="M6.799 2.5h-2.299v-0.972c-0.164-0.019-0.331-0.028-0.5-0.028-1.745 0-3.257 1.016-4 2.5 0.743 1.484 2.255 2.5 4 2.5s3.257-1.016 4-2.5c-0.292-0.583-0.703-1.095-1.201-1.5zM3.25 2.5c0.414 0 0.75 0.336 0.75 0.75s-0.336 0.75-0.75 0.75-0.75-0.336-0.75-0.75 0.336-0.75 0.75-0.75zM5.972 5.174c-0.591 0.377-1.273 0.576-1.972 0.576s-1.382-0.199-1.972-0.576c-0.47-0.3-0.868-0.701-1.167-1.174 0.299-0.473 0.697-0.874 1.167-1.174 0.031-0.020 0.062-0.038 0.093-0.057-0.078 0.213-0.12 0.444-0.12 0.684 0 1.105 0.895 2 2 2s2-0.895 2-2c0-0.24-0.043-0.471-0.12-0.684 0.031 0.019 0.062 0.038 0.093 0.057 0.47 0.3 0.868 0.701 1.167 1.174-0.299 0.473-0.697 0.874-1.167 1.174z"></path>
</svg>
