<!-- Generated by IcoMoon.io -->
<svg version="1.1" xmlns="http://www.w3.org/2000/svg" width="8" height="8" viewBox="0 0 8 8">
<title>eye-plus</title>
<path d="M8 1h-1v-1h-1v1h-1v1h1v1h1v-1h1z"></path>
<path d="M6.749 3.485c0.144 0.16 0.275 0.332 0.391 0.515-0.299 0.473-0.697 0.874-1.167 1.174-0.591 0.377-1.273 0.576-1.972 0.576s-1.382-0.199-1.972-0.576c-0.47-0.3-0.868-0.701-1.167-1.174 0.299-0.473 0.697-0.874 1.167-1.174 0.031-0.020 0.062-0.038 0.093-0.057-0.078 0.213-0.12 0.444-0.12 0.684 0 1.105 0.895 2 2 2s2-0.895 2-2c0-0.005-0-0.011-0-0.016-0.854-0.22-1.487-0.989-1.499-1.909-0.164-0.019-0.331-0.028-0.5-0.028-1.745 0-3.257 1.016-4 2.5 0.743 1.484 2.255 2.5 4 2.5s3.257-1.016 4-2.5c-0.138-0.275-0.302-0.534-0.489-0.774-0.229 0.134-0.487 0.224-0.762 0.258zM3.25 2.5c0.414 0 0.75 0.336 0.75 0.75s-0.336 0.75-0.75 0.75-0.75-0.336-0.75-0.75 0.336-0.75 0.75-0.75z"></path>
</svg>
