<!-- Generated by IcoMoon.io -->
<svg version="1.1" xmlns="http://www.w3.org/2000/svg" width="8" height="8" viewBox="0 0 8 8">
<title>eye-blocked</title>
<path d="M7.39 0.11c-0.146-0.146-0.384-0.146-0.53 0l-1.579 1.579c-0.406-0.123-0.836-0.189-1.28-0.189-1.745 0-3.257 1.016-4 2.5 0.321 0.642 0.786 1.196 1.352 1.618l-1.242 1.242c-0.146 0.146-0.146 0.384 0 0.53 0.073 0.073 0.169 0.11 0.265 0.11s0.192-0.037 0.265-0.11l6.75-6.75c0.146-0.146 0.146-0.384 0-0.53zM3.25 2.5c0.33 0 0.61 0.213 0.71 0.509l-0.951 0.951c-0.296-0.1-0.509-0.38-0.509-0.71 0-0.414 0.336-0.75 0.75-0.75zM0.86 4c0.299-0.473 0.697-0.874 1.167-1.174 0.031-0.020 0.062-0.038 0.093-0.057-0.078 0.213-0.12 0.444-0.12 0.684 0 0.429 0.135 0.826 0.365 1.152l-0.476 0.476c-0.41-0.288-0.759-0.655-1.029-1.081z"></path>
<path d="M6 3.453c0-0.212-0.033-0.417-0.095-0.609l-2.514 2.514c0.192 0.061 0.396 0.094 0.609 0.094 1.105 0 2-0.895 2-2z"></path>
<path d="M6.485 2.265l-0.542 0.542c0.010 0.006 0.020 0.012 0.030 0.018 0.47 0.3 0.868 0.701 1.167 1.174-0.299 0.473-0.697 0.874-1.167 1.174-0.591 0.377-1.273 0.576-1.972 0.576-0.302 0-0.601-0.037-0.89-0.11l-0.601 0.601c0.467 0.168 0.968 0.259 1.491 0.259 1.745 0 3.257-1.016 4-2.5-0.352-0.702-0.876-1.3-1.515-1.735z"></path>
</svg>
