<!-- Generated by IcoMoon.io -->
<svg version="1.1" xmlns="http://www.w3.org/2000/svg" width="8" height="8" viewBox="0 0 8 8">
<title>eyedropper</title>
<path d="M7.707 0.293c-0.391-0.391-1.024-0.391-1.414 0l-1.345 1.345-0.948-0.948-1.061 1.061 0.831 0.831-3.688 3.688c-0.063 0.063-0.090 0.148-0.080 0.23h-0.002v1.25c0 0.138 0.112 0.25 0.25 0.25h1.25c0 0 0.021 0 0.031 0 0.072 0 0.144-0.027 0.199-0.082l3.688-3.688 0.831 0.831 1.061-1.061-0.948-0.948 1.345-1.345c0.391-0.391 0.391-1.024 0-1.414zM1.352 7.5h-0.852v-0.852l3.669-3.669 0.852 0.852-3.669 3.669z"></path>
</svg>
