<!-- Generated by IcoMoon.io -->
<svg version="1.1" xmlns="http://www.w3.org/2000/svg" width="8" height="8" viewBox="0 0 8 8">
<title>feed</title>
<path d="M3 4c0-0.552 0.448-1 1-1s1 0.448 1 1c0 0.552-0.448 1-1 1s-1-0.448-1-1zM5.19 1.801c0.78 0.423 1.31 1.249 1.31 2.199s-0.53 1.776-1.31 2.199c0.344-0.548 0.56-1.33 0.56-2.199s-0.216-1.651-0.56-2.199zM2.25 4c0 0.869 0.216 1.651 0.56 2.199-0.78-0.423-1.31-1.249-1.31-2.199s0.53-1.776 1.31-2.199c-0.344 0.548-0.56 1.33-0.56 2.199zM0.75 4c0 1.343 0.425 2.548 1.099 3.373-1.112-0.711-1.849-1.956-1.849-3.373s0.737-2.662 1.849-3.373c-0.674 0.825-1.099 2.030-1.099 3.373zM6.151 0.627c1.112 0.711 1.849 1.956 1.849 3.373s-0.737 2.662-1.849 3.373c0.674-0.825 1.099-2.030 1.099-3.373s-0.425-2.548-1.099-3.373z"></path>
</svg>
