<!-- Generated by IcoMoon.io -->
<svg version="1.1" xmlns="http://www.w3.org/2000/svg" width="8" height="8" viewBox="0 0 8 8">
<title>file-zip</title>
<path d="M7.17 1.79c-0.173-0.237-0.415-0.513-0.681-0.779s-0.542-0.508-0.779-0.681c-0.403-0.295-0.598-0.33-0.71-0.33h-3.875c-0.345 0-0.625 0.28-0.625 0.625v6.75c0 0.345 0.28 0.625 0.625 0.625h5.75c0.345 0 0.625-0.28 0.625-0.625v-4.875c0-0.112-0.034-0.307-0.33-0.71v0 0zM6.136 1.364c0.24 0.24 0.428 0.456 0.567 0.636h-1.203v-1.203c0.18 0.139 0.396 0.327 0.636 0.567v0 0zM7 7.375c0 0.068-0.057 0.125-0.125 0.125h-5.75c-0.068 0-0.125-0.057-0.125-0.125v-6.75c0-0.068 0.057-0.125 0.125-0.125 0 0 3.875-0 3.875 0v1.75c0 0.138 0.112 0.25 0.25 0.25h1.75v4.875z"></path>
<path d="M2 0.5h1v0.5h-1v-0.5z"></path>
<path d="M3 1h1v0.5h-1v-0.5z"></path>
<path d="M2 1.5h1v0.5h-1v-0.5z"></path>
<path d="M3 2h1v0.5h-1v-0.5z"></path>
<path d="M2 2.5h1v0.5h-1v-0.5z"></path>
<path d="M3 3h1v0.5h-1v-0.5z"></path>
<path d="M2 3.5h1v0.5h-1v-0.5z"></path>
<path d="M3 4h1v0.5h-1v-0.5z"></path>
<path d="M2 6.625c0 0.206 0.169 0.375 0.375 0.375h1.25c0.206 0 0.375-0.169 0.375-0.375v-1.25c0-0.206-0.169-0.375-0.375-0.375h-0.625v-0.5h-1v2.125zM3.5 6v0.5h-1v-0.5h1z"></path>
</svg>
