<!-- Generated by IcoMoon.io -->
<svg version="1.1" xmlns="http://www.w3.org/2000/svg" width="8" height="8" viewBox="0 0 8 8">
<title>file-openoffice</title>
<path d="M5.392 3.685c-0.474-0.224-1.078-0.269-1.522 0.047 0.54-0.052 1.132 0.038 1.524 0.446 0.375-0.43 0.97-0.511 1.507-0.467-0.449-0.298-1.041-0.258-1.51-0.027v0zM5.2 4.732c-0.534-0.012-1.050 0.181-1.493 0.47-0.837-0.356-1.896-0.29-2.609 0.305 0.206-0.007 0.406-0.058 0.61-0.084 0.744-0.074 1.536 0.11 2.098 0.624 0.233-0.34 0.56-0.611 0.935-0.781 0.493-0.238 1.048-0.263 1.585-0.27-0.326-0.224-0.739-0.265-1.125-0.263z"></path>
<path d="M7.17 1.79c-0.174-0.237-0.415-0.513-0.681-0.779s-0.542-0.508-0.779-0.681c-0.403-0.295-0.598-0.33-0.71-0.33h-3.875c-0.345 0-0.625 0.28-0.625 0.625v6.75c0 0.345 0.28 0.625 0.625 0.625h5.75c0.345 0 0.625-0.28 0.625-0.625v-4.875c0-0.112-0.034-0.307-0.33-0.71v0zM6.136 1.364c0.24 0.24 0.428 0.456 0.567 0.636h-1.203v-1.203c0.18 0.139 0.396 0.327 0.636 0.567v0zM7 7.375c0 0.068-0.057 0.125-0.125 0.125h-5.75c-0.068 0-0.125-0.057-0.125-0.125v-6.75c0-0.068 0.057-0.125 0.125-0.125 0 0 3.875-0 3.875 0v1.75c0 0.138 0.112 0.25 0.25 0.25h1.75v4.875z"></path>
</svg>
