<!-- Generated by IcoMoon.io -->
<svg version="1.1" xmlns="http://www.w3.org/2000/svg" width="8" height="8" viewBox="0 0 8 8">
<title>file-music</title>
<path d="M7.17 1.79c-0.174-0.237-0.415-0.513-0.681-0.779s-0.542-0.508-0.779-0.681c-0.403-0.295-0.598-0.33-0.71-0.33h-3.875c-0.345 0-0.625 0.28-0.625 0.625v6.75c0 0.345 0.28 0.625 0.625 0.625h5.75c0.345 0 0.625-0.28 0.625-0.625v-4.875c0-0.112-0.034-0.307-0.33-0.71v0zM6.136 1.364c0.24 0.24 0.428 0.456 0.567 0.636h-1.203v-1.203c0.18 0.139 0.396 0.327 0.636 0.567v0zM7 7.375c0 0.068-0.057 0.125-0.125 0.125h-5.75c-0.068 0-0.125-0.057-0.125-0.125v-6.75c0-0.068 0.057-0.125 0.125-0.125 0 0 3.875-0 3.875 0v1.75c0 0.138 0.112 0.25 0.25 0.25h1.75v4.875z"></path>
<path d="M5.909 3.057c-0.058-0.047-0.134-0.067-0.208-0.052l-2.5 0.5c-0.117 0.023-0.201 0.126-0.201 0.245v1.851c-0.147-0.064-0.318-0.101-0.5-0.101-0.552 0-1 0.336-1 0.75s0.448 0.75 1 0.75 1-0.336 1-0.75v-1.795l2-0.4v1.046c-0.147-0.064-0.318-0.101-0.5-0.101-0.552 0-1 0.336-1 0.75s0.448 0.75 1 0.75 1-0.336 1-0.75v-2.5c0-0.075-0.034-0.146-0.091-0.193z"></path>
</svg>
