<!-- Generated by IcoMoon.io -->
<svg version="1.1" xmlns="http://www.w3.org/2000/svg" width="8" height="8" viewBox="0 0 8 8">
<title>file-word</title>
<path d="M4.998 3.718h0.345l-0.399 1.767-0.518-2.484h-0.832l-0.602 2.484-0.452-2.484h-0.87l0.884 3.999h0.85l0.596-2.365 0.533 2.365h0.784l1.013-3.999h-1.332v0.717z"></path>
<path d="M7.17 1.79c-0.174-0.237-0.415-0.513-0.681-0.779s-0.542-0.508-0.779-0.681c-0.403-0.295-0.598-0.33-0.71-0.33h-3.875c-0.345 0-0.625 0.28-0.625 0.625v6.75c0 0.345 0.28 0.625 0.625 0.625h5.75c0.345 0 0.625-0.28 0.625-0.625v-4.875c0-0.112-0.034-0.307-0.33-0.71v0zM6.136 1.364c0.24 0.24 0.428 0.456 0.567 0.636h-1.203v-1.203c0.18 0.139 0.396 0.327 0.636 0.567v0zM7 7.375c0 0.068-0.057 0.125-0.125 0.125h-5.75c-0.068 0-0.125-0.057-0.125-0.125v-6.75c0-0.068 0.057-0.125 0.125-0.125 0 0 3.875-0 3.875 0v1.75c0 0.138 0.112 0.25 0.25 0.25h1.75v4.875z"></path>
</svg>
