<!-- Generated by IcoMoon.io -->
<svg version="1.1" xmlns="http://www.w3.org/2000/svg" width="8" height="8" viewBox="0 0 8 8">
<title>file-pdf</title>
<path d="M6.578 4.605c-0.107-0.105-0.343-0.161-0.703-0.165-0.244-0.003-0.537 0.019-0.845 0.062-0.138-0.080-0.28-0.166-0.392-0.271-0.3-0.281-0.551-0.67-0.708-1.098 0.010-0.040 0.019-0.075 0.027-0.111 0 0 0.169-0.961 0.124-1.286-0.006-0.045-0.010-0.058-0.022-0.092l-0.015-0.038c-0.046-0.106-0.136-0.219-0.278-0.213l-0.085-0.003c-0.158 0-0.286 0.081-0.32 0.201-0.103 0.378 0.003 0.944 0.195 1.678l-0.049 0.119c-0.137 0.335-0.31 0.672-0.462 0.97l-0.020 0.039c-0.16 0.313-0.305 0.578-0.436 0.803l-0.136 0.072c-0.010 0.005-0.243 0.128-0.297 0.161-0.463 0.276-0.77 0.59-0.821 0.839-0.016 0.079-0.004 0.181 0.078 0.228l0.131 0.066c0.057 0.029 0.117 0.043 0.179 0.043 0.33 0 0.713-0.411 1.24-1.331 0.609-0.198 1.302-0.363 1.909-0.454 0.463 0.261 1.032 0.442 1.392 0.442 0.064 0 0.119-0.006 0.164-0.018 0.069-0.018 0.127-0.058 0.162-0.111 0.070-0.105 0.084-0.249 0.065-0.397-0.006-0.044-0.041-0.098-0.079-0.135zM1.653 6.36c0.060-0.164 0.298-0.489 0.65-0.778 0.022-0.018 0.077-0.069 0.127-0.116-0.368 0.587-0.614 0.821-0.777 0.894zM3.738 1.56c0.106 0 0.166 0.267 0.171 0.518s-0.054 0.426-0.126 0.556c-0.060-0.193-0.089-0.496-0.089-0.695 0 0-0.004-0.379 0.044-0.379v0zM3.116 4.98c0.074-0.132 0.151-0.272 0.229-0.419 0.191-0.362 0.312-0.645 0.402-0.878 0.179 0.326 0.402 0.603 0.664 0.824 0.033 0.028 0.067 0.055 0.104 0.083-0.533 0.105-0.993 0.234-1.399 0.39v0zM6.476 4.95c-0.032 0.020-0.125 0.032-0.185 0.032-0.193 0-0.432-0.088-0.767-0.232 0.129-0.010 0.247-0.014 0.352-0.014 0.194 0 0.251-0.001 0.44 0.047s0.192 0.146 0.159 0.167v0z"></path>
<path d="M7.17 1.79c-0.174-0.237-0.415-0.513-0.681-0.779s-0.542-0.508-0.779-0.681c-0.403-0.295-0.598-0.33-0.71-0.33h-3.875c-0.345 0-0.625 0.28-0.625 0.625v6.75c0 0.345 0.28 0.625 0.625 0.625h5.75c0.345 0 0.625-0.28 0.625-0.625v-4.875c0-0.112-0.034-0.307-0.33-0.71v0zM6.136 1.364c0.24 0.24 0.428 0.456 0.567 0.636h-1.203v-1.203c0.18 0.139 0.396 0.327 0.636 0.567v0zM7 7.375c0 0.068-0.057 0.125-0.125 0.125h-5.75c-0.068 0-0.125-0.057-0.125-0.125v-6.75c0-0.068 0.057-0.125 0.125-0.125 0 0 3.875-0 3.875 0v1.75c0 0.138 0.112 0.25 0.25 0.25h1.75v4.875z"></path>
</svg>
