<!-- Generated by IcoMoon.io -->
<svg version="1.1" xmlns="http://www.w3.org/2000/svg" width="8" height="8" viewBox="0 0 8 8">
<title>files-empty</title>
<path d="M7.17 2.79c-0.174-0.237-0.415-0.513-0.681-0.779s-0.542-0.508-0.779-0.681c-0.403-0.295-0.598-0.33-0.71-0.33h-2.875c-0.345 0-0.625 0.28-0.625 0.625v5.75c0 0.345 0.28 0.625 0.625 0.625h4.75c0.345 0 0.625-0.28 0.625-0.625v-3.875c0-0.112-0.034-0.307-0.33-0.71zM6.136 2.364c0.24 0.24 0.428 0.456 0.567 0.636h-1.203v-1.203c0.18 0.139 0.396 0.327 0.636 0.567v0zM7 7.375c0 0.068-0.057 0.125-0.125 0.125h-4.75c-0.068 0-0.125-0.057-0.125-0.125v-5.75c0-0.068 0.057-0.125 0.125-0.125 0 0 2.875-0 2.875 0v1.75c0 0.138 0.112 0.25 0.25 0.25h1.75v3.875z"></path>
<path d="M4.71 0.33c-0.403-0.295-0.598-0.33-0.71-0.33h-2.875c-0.345 0-0.625 0.28-0.625 0.625v5.75c0 0.302 0.215 0.554 0.5 0.612v-6.362c0-0.068 0.057-0.125 0.125-0.125h3.804c-0.075-0.062-0.149-0.119-0.218-0.17z"></path>
</svg>
