<!-- Generated by IcoMoon.io -->
<svg version="1.1" xmlns="http://www.w3.org/2000/svg" width="8" height="8" viewBox="0 0 8 8">
<title>filter</title>
<path d="M4 0c-2.209 0-4 0.56-4 1.25v0.75l3 3v2.5c0 0.276 0.448 0.5 1 0.5s1-0.224 1-0.5v-2.5l3-3v-0.75c0-0.69-1.791-1.25-4-1.25zM0.737 1.085c0.187-0.107 0.45-0.208 0.76-0.293 0.687-0.188 1.576-0.292 2.503-0.292s1.816 0.104 2.503 0.292c0.31 0.085 0.573 0.186 0.76 0.293 0.123 0.070 0.19 0.13 0.221 0.165-0.031 0.036-0.098 0.095-0.221 0.165-0.187 0.107-0.45 0.208-0.76 0.293-0.687 0.188-1.576 0.292-2.503 0.292s-1.816-0.104-2.503-0.292c-0.31-0.085-0.573-0.186-0.76-0.293-0.123-0.070-0.19-0.13-0.221-0.165 0.031-0.036 0.098-0.095 0.221-0.165z"></path>
</svg>
