<!-- Generated by IcoMoon.io -->
<svg version="1.1" xmlns="http://www.w3.org/2000/svg" width="8" height="8" viewBox="0 0 8 8">
<title>finder</title>
<path d="M4.447 6.080c-0-0-0-0.001-0-0.001s0 0.001 0 0.001z"></path>
<path d="M4.458 6.364c-0-0.002-0-0.004-0-0.005 0 0.002 0 0.004 0 0.005z"></path>
<path d="M4.452 6.221c-0-0.001-0-0.003-0-0.004 0 0.001 0 0.003 0 0.004z"></path>
<path d="M7.5 0h-7c-0.275 0-0.5 0.225-0.5 0.5v7c0 0.275 0.225 0.5 0.5 0.5h3.858c0 0 0.001 0 0.001 0s0.001-0 0.001-0h3.14c0.275 0 0.5-0.225 0.5-0.5v-7c0-0.275-0.225-0.5-0.5-0.5zM1.5 1.75c0-0.138 0.112-0.25 0.25-0.25s0.25 0.112 0.25 0.25v0.5c0 0.138-0.112 0.25-0.25 0.25s-0.25-0.112-0.25-0.25v-0.5zM7.5 7.5h-2.93c-0.052-0.329-0.085-0.668-0.105-0.997 0 0.001 0 0.002 0 0.003-0.154 0.017-0.309 0.025-0.465 0.025-1.044 0-2.050-0.38-2.832-1.070-0.116-0.103-0.128-0.281-0.025-0.397s0.281-0.128 0.397-0.025c0.679 0.599 1.553 0.93 2.46 0.93 0.149 0 0.297-0.009 0.444-0.027-0.017-0.923 0.054-1.656 0.055-1.667 0.007-0.070-0.016-0.14-0.063-0.193s-0.115-0.082-0.185-0.082h-0.744c0.011-0.27 0.040-0.733 0.117-1.251 0.147-0.99 0.406-1.764 0.751-2.249h3.126v7z"></path>
<path d="M6.25 2.5c-0.138 0-0.25-0.112-0.25-0.25v-0.5c0-0.138 0.112-0.25 0.25-0.25s0.25 0.112 0.25 0.25v0.5c0 0.138-0.112 0.25-0.25 0.25z"></path>
<path d="M4.223 6.525c-0.028 0.002-0.057 0.003-0.086 0.004 0.029-0.001 0.057-0.002 0.086-0.004z"></path>
<path d="M4 6.531c0.037 0 0.073-0.001 0.11-0.002-0.037 0.001-0.073 0.002-0.11 0.002z"></path>
<path d="M4.212 5.963c0.006-0 0.012-0.001 0.018-0.001-0.006 0-0.012 0.001-0.018 0.001z"></path>
<path d="M4.102 5.967c0.008-0 0.017-0.001 0.025-0.001-0.008 0-0.017 0.001-0.025 0.001z"></path>
<path d="M6.857 5.064c-0.103-0.116-0.281-0.128-0.397-0.025-0.568 0.501-1.271 0.814-2.016 0.903 0.003 0.182 0.010 0.371 0.022 0.564 0.875-0.095 1.701-0.458 2.366-1.045 0.116-0.103 0.128-0.281 0.025-0.397z"></path>
<path d="M4.465 6.506c-0.036 0.004-0.072 0.007-0.108 0.010 0.036-0.003 0.072-0.006 0.108-0.010z"></path>
<path d="M4.34 6.518c-0.031 0.002-0.061 0.005-0.092 0.006 0.031-0.002 0.061-0.004 0.092-0.006z"></path>
</svg>
