<!-- Generated by IcoMoon.io -->
<svg version="1.1" xmlns="http://www.w3.org/2000/svg" width="8" height="8" viewBox="0 0 8 8">
<title>firefox</title>
<path d="M7.988 2.61l-0.093 0.594c0 0-0.132-1.1-0.295-1.512-0.249-0.63-0.359-0.625-0.36-0.624 0.167 0.423 0.136 0.651 0.136 0.651s-0.295-0.805-1.076-1.061c-0.865-0.283-1.333-0.206-1.387-0.191-0.008-0-0.016-0-0.024-0 0.006 0 0.013 0.001 0.019 0.002-0 0-0.001 0-0.001 0 0.004 0.004 0.956 0.166 1.124 0.398 0 0-0.404 0-0.807 0.116-0.018 0.005 1.481 0.187 1.787 1.685 0 0-0.164-0.343-0.367-0.401 0.134 0.407 0.099 1.178-0.028 1.561-0.016 0.049-0.033-0.213-0.284-0.326 0.080 0.575-0.005 1.488-0.404 1.739-0.031 0.020 0.25-0.901 0.057-0.545-1.115 1.709-2.433 0.789-3.025 0.384 0.304 0.066 0.88-0.010 1.135-0.2 0-0 0.001-0 0.001-0.001 0.277-0.189 0.441-0.328 0.589-0.295s0.246-0.115 0.131-0.246c-0.115-0.132-0.393-0.312-0.77-0.214-0.266 0.070-0.595 0.363-1.097 0.066-0.386-0.229-0.422-0.418-0.425-0.55 0.010-0.047 0.022-0.090 0.036-0.13 0.044-0.124 0.179-0.161 0.254-0.191 0.127 0.022 0.236 0.061 0.351 0.12 0.001-0.038 0.002-0.089-0-0.147 0.011-0.022 0.004-0.088-0.013-0.169-0.010-0.081-0.027-0.164-0.053-0.24 0-0 0-0 0-0s0.001-0 0.001-0.001 0.001-0.001 0.002-0.001 0-0 0-0c0.001-0.001 0.001-0.002 0.002-0.004 0.008-0.036 0.094-0.106 0.201-0.18 0.096-0.067 0.209-0.138 0.297-0.193 0.079-0.049 0.138-0.085 0.151-0.095 0.005-0.004 0.011-0.008 0.017-0.013 0.001-0.001 0.002-0.002 0.004-0.003s0.001-0.001 0.002-0.002c0.042-0.034 0.105-0.097 0.119-0.231 0-0 0-0.001 0-0.001 0-0.004 0.001-0.008 0.001-0.012 0-0.003 0-0.006 0.001-0.009s0-0.004 0-0.007c0-0.005 0-0.011 0-0.016 0-0 0-0.001 0-0.001 0-0.013-0-0.026-0.001-0.041-0-0.008-0.001-0.015-0.002-0.022-0-0-0-0.001-0-0.001s-0-0.001-0-0.002-0.001-0.002-0.001-0.003c-0-0-0-0-0-0-0-0.001-0.001-0.002-0.001-0.004-0-0-0-0-0-0-0.014-0.032-0.065-0.044-0.277-0.048-0-0-0-0-0.001-0v0c-0.086-0.001-0.2-0.002-0.348-0.001-0.26 0.001-0.403-0.254-0.449-0.353 0.063-0.347 0.244-0.595 0.543-0.763 0.006-0.003 0.005-0.006-0.002-0.008 0.058-0.035-0.705-0.001-1.056 0.446-0.312-0.077-0.583-0.072-0.817-0.017-0.045-0.001-0.101-0.007-0.167-0.021-0.156-0.141-0.379-0.402-0.39-0.713 0 0-0.001 0.001-0.002 0.002-0-0.003-0-0.006-0.001-0.009 0 0-0.474 0.365-0.403 1.358-0 0.016-0 0.031-0.001 0.046-0.128 0.174-0.192 0.32-0.197 0.353-0.114 0.232-0.229 0.58-0.323 1.109 0 0 0.066-0.208 0.198-0.444-0.097 0.297-0.173 0.759-0.128 1.452 0 0 0.012-0.154 0.054-0.375 0.033 0.43 0.176 0.96 0.538 1.584 0.695 1.198 1.763 1.803 2.944 1.895 0.21 0.017 0.422 0.018 0.636 0.001 0.020-0.001 0.039-0.003 0.059-0.004 0.242-0.017 0.485-0.054 0.728-0.112 3.322-0.803 2.96-4.814 2.96-4.814z"></path>
</svg>
