<!-- Generated by IcoMoon.io -->
<svg version="1.1" xmlns="http://www.w3.org/2000/svg" width="8" height="8" viewBox="0 0 8 8">
<title>fire</title>
<path d="M2.508 8c-0.533-1.109-0.249-1.745 0.161-2.344 0.449-0.656 0.564-1.305 0.564-1.305s0.353 0.459 0.212 1.176c0.623-0.694 0.741-1.799 0.647-2.222 1.409 0.984 2.011 3.116 1.199 4.696 4.315-2.442 1.073-6.095 0.509-6.507 0.188 0.412 0.224 1.108-0.156 1.446-0.643-2.44-2.234-2.94-2.234-2.94 0.188 1.258-0.682 2.634-1.521 3.662-0.029-0.502-0.061-0.848-0.325-1.328-0.059 0.911-0.756 1.654-0.944 2.567-0.255 1.237 0.191 2.142 1.889 3.099z"></path>
</svg>
