<!-- Generated by IcoMoon.io -->
<svg version="1.1" xmlns="http://www.w3.org/2000/svg" width="8" height="8" viewBox="0 0 8 8">
<title>flag</title>
<path d="M0 0h1v8h-1v-8z"></path>
<path d="M6.5 5.023c0.646 0 1.208-0.156 1.5-0.387v-4c-0.292 0.231-0.854 0.387-1.5 0.387s-1.208-0.156-1.5-0.387v4c0.292 0.231 0.854 0.387 1.5 0.387z"></path>
<path d="M4.75 0.254c-0.366-0.156-0.902-0.254-1.5-0.254-0.753 0-1.409 0.156-1.75 0.387v4c0.341-0.231 0.997-0.387 1.75-0.387 0.598 0 1.134 0.098 1.5 0.254v-4z"></path>
</svg>
