<!-- Generated by IcoMoon.io -->
<svg version="1.1" xmlns="http://www.w3.org/2000/svg" width="8" height="8" viewBox="0 0 8 8">
<title>flattr</title>
<path d="M2.872 0c-1.901 0-2.872 1.095-2.872 3.139v0 4.289l1.862-1.864v-2.179c0-0.847 0.224-1.386 0.977-1.507v0c0.263-0.051 0.811-0.033 1.159-0.033v0 1.294c0 0.012 0.002 0.033 0.005 0.044v0c0.015 0.052 0.062 0.091 0.118 0.091v0c0.032 0 0.061-0.016 0.092-0.047v0l3.228-3.226-4.569-0zM6.138 2.436v2.179c0 0.847-0.224 1.386-0.977 1.507v0c-0.263 0.051-0.811 0.033-1.159 0.033v0-1.294c0-0.012-0.002-0.033-0.005-0.044v0c-0.015-0.052-0.062-0.091-0.118-0.091v0c-0.032-0-0.061 0.016-0.092 0.047v0l-3.228 3.226 4.569 0.001c1.901 0 2.872-1.095 2.872-3.139v0-4.289l-1.862 1.864z"></path>
</svg>
