<!-- Generated by IcoMoon.io -->
<svg version="1.1" xmlns="http://www.w3.org/2000/svg" width="8" height="8" viewBox="0 0 8 8">
<title>font</title>
<path d="M6.247 0.127c-0.707 0-1.161-0.127-1.889-0.127-2.354 0-3.451 1.341-3.451 2.702 0 0.802 0.38 1.066 1.129 1.066-0.053-0.116-0.148-0.243-0.148-0.813 0-1.594 0.602-2.058 1.372-2.090 0 0-0.632 6.198-2.467 6.942v0.193h2.473l0.844-4h1.546l0.344-1h-1.679l0.406-1.923c0.464 0.095 0.918 0.19 1.309 0.19 0.486 0 0.929-0.148 1.172-1.267-0.296 0.095-0.612 0.127-0.96 0.127z"></path>
</svg>
