<!-- Generated by IcoMoon.io -->
<svg version="1.1" xmlns="http://www.w3.org/2000/svg" width="8" height="8" viewBox="0 0 8 8">
<title>foursquare</title>
<path d="M6.653 0.704c-0.094-0.128-0.244-0.204-0.403-0.204h-4.75c-0.276 0-0.5 0.224-0.5 0.5v6c0 0.202 0.122 0.385 0.309 0.462 0.062 0.026 0.127 0.038 0.191 0.038 0.13 0 0.258-0.051 0.354-0.146l1.854-1.854h1.293c0.219 0 0.412-0.142 0.477-0.351l1.25-4c0.047-0.152 0.020-0.317-0.074-0.445zM5.257 2.5h-1.757c-0.276 0-0.5 0.224-0.5 0.5s0.224 0.5 0.5 0.5h1.445l-0.313 1h-1.132c-0.133 0-0.26 0.053-0.354 0.146l-1.146 1.146v-4.293h3.57l-0.313 1z"></path>
</svg>
