<!-- Generated by IcoMoon.io -->
<svg version="1.1" xmlns="http://www.w3.org/2000/svg" width="8" height="8" viewBox="0 0 8 8">
<title>frustrated2</title>
<path d="M2 5.125v0.75c0 0.068 0.057 0.125 0.125 0.125h0.875v-1h-0.875c-0.068 0-0.125 0.057-0.125 0.125z"></path>
<path d="M3.5 5h1v1h-1v-1z"></path>
<path d="M5.875 5h-0.875v1h0.875c0.068 0 0.125-0.057 0.125-0.125v-0.75c0-0.068-0.057-0.125-0.125-0.125z"></path>
<path d="M4 0c-2.209 0-4 1.791-4 4s1.791 4 4 4 4-1.791 4-4-1.791-4-4-4zM4.501 2.973c0.016-0.371 0.353-0.617 0.637-0.759 0.271-0.136 0.54-0.204 0.551-0.206 0.134-0.034 0.27 0.048 0.303 0.182s-0.048 0.27-0.182 0.303c-0.138 0.035-0.301 0.095-0.445 0.167 0.083 0.089 0.134 0.209 0.134 0.341 0 0.276-0.224 0.5-0.5 0.5s-0.5-0.224-0.5-0.5c0-0.009 0-0.018 0.001-0.027zM2.007 2.189c0.034-0.134 0.169-0.215 0.303-0.182 0.011 0.003 0.28 0.071 0.551 0.206 0.284 0.142 0.622 0.388 0.637 0.759 0 0.009 0.001 0.018 0.001 0.027 0 0.276-0.224 0.5-0.5 0.5s-0.5-0.224-0.5-0.5c0-0.132 0.051-0.251 0.134-0.341-0.144-0.072-0.307-0.132-0.445-0.167-0.134-0.033-0.215-0.169-0.182-0.303zM6.5 5.875c0 0.345-0.28 0.625-0.625 0.625h-3.75c-0.345 0-0.625-0.28-0.625-0.625v-0.75c0-0.345 0.28-0.625 0.625-0.625h3.75c0.345 0 0.625 0.28 0.625 0.625v0.75z"></path>
</svg>
