<!-- Generated by IcoMoon.io -->
<svg version="1.1" xmlns="http://www.w3.org/2000/svg" width="8" height="8" viewBox="0 0 8 8">
<title>frustrated</title>
<path d="M2.862 2.214c-0.271-0.136-0.54-0.204-0.551-0.206-0.134-0.034-0.27 0.048-0.303 0.182s0.048 0.27 0.182 0.303c0.138 0.035 0.301 0.095 0.445 0.167-0.083 0.089-0.134 0.209-0.134 0.341 0 0.276 0.224 0.5 0.5 0.5s0.5-0.224 0.5-0.5c0-0.009-0-0.018-0.001-0.027-0.016-0.371-0.353-0.617-0.637-0.759z"></path>
<path d="M4 0c-2.209 0-4 1.791-4 4s1.791 4 4 4 4-1.791 4-4-1.791-4-4-4zM1.848 6.435c0.084 0.042 0.178 0.065 0.277 0.065h3.75c0.1 0 0.194-0.024 0.277-0.065-0.573 0.507-1.327 0.815-2.152 0.815s-1.579-0.308-2.152-0.815zM2 5.875v-0.75c0-0.068 0.057-0.125 0.125-0.125h0.875v1h-0.875c-0.068 0-0.125-0.057-0.125-0.125zM3.5 6v-1h1v1h-1zM5 6v-1h0.875c0.068 0 0.125 0.057 0.125 0.125v0.75c0 0.068-0.057 0.125-0.125 0.125h-0.875zM6.435 6.152c0.042-0.084 0.065-0.178 0.065-0.277v-0.75c0-0.345-0.28-0.625-0.625-0.625h-3.75c-0.345 0-0.625 0.28-0.625 0.625v0.75c0 0.1 0.024 0.194 0.065 0.277-0.507-0.573-0.815-1.327-0.815-2.152 0-1.795 1.455-3.25 3.25-3.25s3.25 1.455 3.25 3.25c0 0.826-0.308 1.579-0.815 2.152z"></path>
<path d="M5.689 2.007c-0.011 0.003-0.28 0.071-0.551 0.206-0.284 0.142-0.622 0.388-0.637 0.759-0 0.009-0.001 0.018-0.001 0.027 0 0.276 0.224 0.5 0.5 0.5s0.5-0.224 0.5-0.5c0-0.132-0.051-0.251-0.134-0.341 0.144-0.072 0.307-0.132 0.445-0.167 0.134-0.033 0.215-0.169 0.182-0.303s-0.169-0.215-0.303-0.182z"></path>
</svg>
