<!-- Generated by IcoMoon.io -->
<svg version="1.1" xmlns="http://www.w3.org/2000/svg" width="8" height="8" viewBox="0 0 8 8">
<title>gift</title>
<path d="M6.027 2.5c0.142-0.101 0.277-0.213 0.402-0.337 0.261-0.261 0.436-0.582 0.492-0.904 0.061-0.353-0.029-0.681-0.247-0.899-0.174-0.174-0.41-0.266-0.683-0.266-0.388 0-0.796 0.186-1.121 0.511-0.519 0.519-0.822 1.236-0.985 1.748-0.121-0.514-0.361-1.208-0.828-1.675-0.251-0.251-0.571-0.379-0.874-0.379-0.247 0-0.483 0.086-0.658 0.262-0.391 0.391-0.338 1.076 0.118 1.532 0.162 0.162 0.352 0.297 0.553 0.409h-1.696v2h0.5v3.5h6v-3.5h0.5v-2h-1.473zM5.268 1.002c0.217-0.217 0.487-0.346 0.723-0.346 0.084 0 0.201 0.018 0.285 0.102 0.203 0.203 0.089 0.674-0.244 1.008-0.343 0.343-0.805 0.579-1.207 0.735h-0.396c0.145-0.45 0.407-1.066 0.839-1.498zM1.828 1.257c-0.005-0.071-0-0.205 0.095-0.301 0.080-0.080 0.186-0.097 0.261-0.097v0c0.166 0 0.34 0.078 0.476 0.215 0.265 0.265 0.483 0.686 0.63 1.218 0.004 0.014 0.008 0.029 0.012 0.043-0.014-0.004-0.028-0.008-0.043-0.012-0.532-0.148-0.953-0.366-1.218-0.63-0.124-0.124-0.201-0.282-0.213-0.436zM3.5 7.5h-2v-3.25h2v3.25zM3.5 4h-2.5v-1h2.5v1zM6.5 7.5h-2v-3.25h2v3.25zM7 4h-2.5v-1h2.5v1z"></path>
</svg>
