<!-- Generated by IcoMoon.io -->
<svg version="1.1" xmlns="http://www.w3.org/2000/svg" width="8" height="8" viewBox="0 0 8 8">
<title>git</title>
<path d="M7.849 3.644l-3.493-3.493c-0.201-0.201-0.527-0.201-0.729 0l-0.812 0.812 0.611 0.611c0.098-0.047 0.208-0.073 0.323-0.073 0.414 0 0.75 0.336 0.75 0.75 0 0.116-0.026 0.225-0.073 0.323l1 1c0.098-0.047 0.208-0.073 0.323-0.073 0.414 0 0.75 0.336 0.75 0.75s-0.336 0.75-0.75 0.75-0.75-0.336-0.75-0.75c0-0.116 0.026-0.225 0.073-0.323l-1-1c-0.024 0.011-0.048 0.021-0.073 0.030v2.086c0.291 0.103 0.5 0.381 0.5 0.707 0 0.414-0.336 0.75-0.75 0.75s-0.75-0.336-0.75-0.75c0-0.327 0.209-0.604 0.5-0.707v-2.086c-0.291-0.103-0.5-0.381-0.5-0.707 0-0.116 0.026-0.225 0.073-0.323l-0.611-0.611-2.312 2.312c-0.201 0.201-0.201 0.528 0 0.729l3.493 3.493c0.201 0.201 0.527 0.201 0.729 0l3.477-3.477c0.201-0.201 0.201-0.528-0-0.729z"></path>
</svg>
