<!-- Generated by IcoMoon.io -->
<svg version="1.1" xmlns="http://www.w3.org/2000/svg" width="8" height="8" viewBox="0 0 8 8">
<title>github</title>
<path d="M4 0.099c-2.209 0-4 1.791-4 4 0 1.767 1.146 3.267 2.735 3.796 0.2 0.037 0.273-0.087 0.273-0.192 0-0.095-0.004-0.41-0.005-0.745-1.113 0.242-1.348-0.472-1.348-0.472-0.182-0.462-0.444-0.585-0.444-0.585-0.363-0.248 0.027-0.243 0.027-0.243 0.402 0.028 0.613 0.412 0.613 0.412 0.357 0.611 0.936 0.435 1.164 0.332 0.036-0.258 0.139-0.435 0.254-0.535-0.889-0.101-1.822-0.444-1.822-1.977 0-0.437 0.156-0.794 0.412-1.074-0.042-0.101-0.179-0.508 0.039-1.059 0 0 0.336-0.107 1.1 0.41 0.319-0.089 0.661-0.133 1.001-0.135 0.34 0.002 0.682 0.046 1.002 0.135 0.764-0.518 1.099-0.41 1.099-0.41 0.218 0.551 0.081 0.958 0.039 1.059 0.256 0.28 0.412 0.637 0.412 1.074 0 1.536-0.936 1.875-1.826 1.974 0.143 0.124 0.271 0.368 0.271 0.741 0 0.535-0.005 0.966-0.005 1.098 0 0.106 0.072 0.231 0.275 0.192 1.588-0.529 2.733-2.028 2.733-3.795 0-2.209-1.791-4-4-4z"></path>
</svg>
