<!-- Generated by IcoMoon.io -->
<svg version="1.1" xmlns="http://www.w3.org/2000/svg" width="8" height="8" viewBox="0 0 8 8">
<title>glass2</title>
<path d="M6.947 1.404c0.059-0.075 0.070-0.178 0.028-0.264s-0.129-0.141-0.225-0.141h-5.5c-0.096 0-0.183 0.055-0.225 0.141s-0.031 0.188 0.028 0.264l2.447 3.114v2.982h-0.75c-0.138 0-0.25 0.112-0.25 0.25s0.112 0.25 0.25 0.25h2.5c0.138 0 0.25-0.112 0.25-0.25s-0.112-0.25-0.25-0.25h-0.75v-2.982l2.447-3.114zM6.236 1.5l-0.786 1h-2.9l-0.786-1h4.471z"></path>
</svg>
