<!-- Generated by IcoMoon.io -->
<svg version="1.1" xmlns="http://www.w3.org/2000/svg" width="8" height="8" viewBox="0 0 8 8">
<title>glass</title>
<path d="M6.076 0.132c-0.044-0.081-0.128-0.132-0.22-0.132h-3.712c-0.092 0-0.177 0.051-0.22 0.132-0.277 0.516-0.424 1.119-0.424 1.743 0 0.824 0.253 1.6 0.712 2.187 0.355 0.453 0.801 0.754 1.288 0.876v2.562h-0.75c-0.138 0-0.25 0.112-0.25 0.25s0.112 0.25 0.25 0.25h2.5c0.138 0 0.25-0.112 0.25-0.25s-0.112-0.25-0.25-0.25h-0.75v-2.562c0.487-0.122 0.933-0.423 1.288-0.876 0.459-0.587 0.712-1.363 0.712-2.187 0-0.625-0.146-1.228-0.424-1.743zM2.298 0.5h3.405c0.195 0.413 0.298 0.885 0.298 1.375 0 0.042-0.001 0.084-0.002 0.125h-3.995c-0.001-0.041-0.002-0.083-0.002-0.125-0-0.49 0.103-0.962 0.298-1.375z"></path>
</svg>
