<!-- Generated by IcoMoon.io -->
<svg version="1.1" xmlns="http://www.w3.org/2000/svg" width="8" height="8" viewBox="0 0 8 8">
<title>google-plus2</title>
<path d="M7.25 0h-6.5c-0.412 0-0.75 0.338-0.75 0.75v6.5c0 0.412 0.338 0.75 0.75 0.75h6.5c0.412 0 0.75-0.338 0.75-0.75v-6.5c0-0.412-0.338-0.75-0.75-0.75zM3 6c-1.106 0-2-0.894-2-2s0.894-2 2-2c0.541 0 0.992 0.197 1.341 0.523l-0.544 0.522c-0.148-0.142-0.408-0.308-0.797-0.308-0.683 0-1.241 0.566-1.241 1.262s0.558 1.263 1.241 1.263c0.792 0 1.089-0.569 1.134-0.862h-1.134v-0.686h1.889c0.017 0.1 0.031 0.2 0.031 0.331 0 1.144-0.766 1.955-1.92 1.955zM7 4h-0.5v0.5h-0.5v-0.5h-0.5v-0.5h0.5v-0.5h0.5v0.5h0.5v0.5z"></path>
</svg>
