<!-- Generated by IcoMoon.io -->
<svg version="1.1" xmlns="http://www.w3.org/2000/svg" width="8" height="8" viewBox="0 0 8 8">
<title>google3</title>
<path d="M4 0c-2.209 0-4 1.791-4 4s1.791 4 4 4 4-1.791 4-4-1.791-4-4-4zM4.059 7c-1.658 0-3-1.342-3-3s1.342-3 3-3c0.809 0 1.487 0.295 2.009 0.784l-0.814 0.784c-0.223-0.214-0.612-0.462-1.195-0.462-1.025 0-1.859 0.848-1.859 1.894s0.836 1.894 1.859 1.894c1.188 0 1.633-0.853 1.702-1.294h-1.702v-1.028h2.833c0.025 0.15 0.047 0.3 0.047 0.497 0.002 1.714-1.147 2.931-2.88 2.931z"></path>
</svg>
