<!-- Generated by IcoMoon.io -->
<svg version="1.1" xmlns="http://www.w3.org/2000/svg" width="8" height="8" viewBox="0 0 8 8">
<title>google2</title>
<path d="M7.25 0h-6.5c-0.412 0-0.75 0.338-0.75 0.75v6.5c0 0.412 0.338 0.75 0.75 0.75h6.5c0.412 0 0.75-0.338 0.75-0.75v-6.5c0-0.412-0.338-0.75-0.75-0.75zM4.059 7c-1.658 0-3-1.342-3-3s1.342-3 3-3c0.809 0 1.487 0.295 2.009 0.784l-0.814 0.784c-0.223-0.214-0.612-0.462-1.195-0.462-1.025 0-1.859 0.848-1.859 1.894s0.836 1.894 1.859 1.894c1.188 0 1.633-0.853 1.702-1.294h-1.702v-1.028h2.833c0.025 0.15 0.047 0.3 0.047 0.497 0.002 1.714-1.147 2.931-2.88 2.931z"></path>
</svg>
