<!-- Generated by IcoMoon.io -->
<svg version="1.1" xmlns="http://www.w3.org/2000/svg" width="8" height="8" viewBox="0 0 8 8">
<title>google-plus</title>
<path d="M2.545 3.573v0.873h1.444c-0.058 0.375-0.436 1.098-1.444 1.098-0.869 0-1.578-0.72-1.578-1.608s0.709-1.608 1.578-1.608c0.495 0 0.825 0.211 1.014 0.392l0.691-0.666c-0.444-0.414-1.019-0.666-1.705-0.666-1.408 0.002-2.545 1.139-2.545 2.547s1.137 2.545 2.545 2.545c1.469 0 2.444-1.033 2.444-2.487 0-0.167-0.019-0.295-0.041-0.422h-2.403z"></path>
<path d="M8 3.5h-0.75v-0.75h-0.75v0.75h-0.75v0.75h0.75v0.75h0.75v-0.75h0.75z"></path>
</svg>
