<!-- Generated by IcoMoon.io -->
<svg version="1.1" xmlns="http://www.w3.org/2000/svg" width="8" height="8" viewBox="0 0 8 8">
<title>grin2</title>
<path d="M4 0c-2.209 0-4 1.791-4 4s1.791 4 4 4c2.209 0 4-1.791 4-4s-1.791-4-4-4zM5.5 1.844c0.5 0 0.906 0.407 0.906 0.906 0 0.050-0.004 0.101-0.013 0.151-0.013 0.075-0.078 0.13-0.154 0.13s-0.141-0.055-0.154-0.13c-0.048-0.287-0.294-0.416-0.585-0.416s-0.537 0.13-0.585 0.416c-0.013 0.075-0.078 0.13-0.154 0.13-0 0 0 0-0 0-0.076 0-0.141-0.055-0.154-0.13-0.008-0.050-0.013-0.101-0.013-0.151 0-0.5 0.407-0.906 0.906-0.906zM2.5 1.844c0.5 0 0.906 0.407 0.906 0.906 0 0.050-0.004 0.101-0.013 0.151-0.013 0.075-0.078 0.13-0.154 0.13s-0.141-0.055-0.154-0.13c-0.048-0.287-0.294-0.416-0.585-0.416s-0.537 0.13-0.585 0.416c-0.013 0.075-0.078 0.13-0.154 0.13 0 0 0 0 0 0-0.076 0-0.141-0.055-0.154-0.13-0.008-0.050-0.013-0.101-0.013-0.151 0-0.5 0.407-0.906 0.906-0.906zM1.5 4.5h1.5v1.936c-0.86-0.223-1.5-1.009-1.5-1.936zM3.5 6.5v-2h1v2h-1zM5 6.436v-1.936h1.5c0 0.928-0.64 1.713-1.5 1.936z"></path>
</svg>
