<!-- Generated by IcoMoon.io -->
<svg version="1.1" xmlns="http://www.w3.org/2000/svg" width="8" height="8" viewBox="0 0 8 8">
<title>grin</title>
<path d="M4 8c2.209 0 4-1.791 4-4s-1.791-4-4-4-4 1.791-4 4 1.791 4 4 4zM4 0.75c1.795 0 3.25 1.455 3.25 3.25s-1.455 3.25-3.25 3.25-3.25-1.455-3.25-3.25 1.455-3.25 3.25-3.25zM1.5 4v0.5c0 1.1 0.9 2 2 2h1c1.1 0 2-0.9 2-2v-0.5h-5zM3 5.914c-0.207-0.074-0.398-0.194-0.559-0.355-0.284-0.284-0.441-0.66-0.441-1.059h1v1.414zM4.5 6h-1v-1.5h1v1.5zM5.559 5.559c-0.161 0.161-0.352 0.281-0.559 0.355v-1.414h1c0 0.398-0.157 0.775-0.441 1.059zM1.761 3c0 0 0 0 0 0 0.076 0 0.141-0.055 0.154-0.13 0.048-0.287 0.294-0.495 0.585-0.495s0.537 0.208 0.585 0.495c0.013 0.075 0.078 0.13 0.154 0.13s0.141-0.055 0.154-0.13c0.008-0.050 0.013-0.101 0.013-0.151 0-0.5-0.407-0.906-0.906-0.906s-0.906 0.407-0.906 0.906c0 0.050 0.004 0.101 0.013 0.151 0.013 0.075 0.078 0.13 0.154 0.13zM4.761 3c0 0 0 0 0 0 0.076 0 0.141-0.055 0.154-0.13 0.048-0.287 0.294-0.495 0.585-0.495s0.537 0.208 0.585 0.495c0.013 0.075 0.078 0.13 0.154 0.13s0.141-0.055 0.154-0.13c0.008-0.050 0.013-0.101 0.013-0.151 0-0.5-0.407-0.906-0.906-0.906s-0.906 0.407-0.906 0.906c0 0.050 0.004 0.101 0.013 0.151 0.013 0.075 0.078 0.13 0.154 0.13z"></path>
</svg>
