<!-- Generated by IcoMoon.io -->
<svg version="1.1" xmlns="http://www.w3.org/2000/svg" width="8" height="8" viewBox="0 0 8 8">
<title>hammer2</title>
<path d="M7.892 7.154l-4.286-3.902 0.199-0.2c0.163-0.164 0.251-0.375 0.265-0.591 0.008-0.004 0.016-0.007 0.023-0.011l0.805-0.503c0.109-0.128 0.101-0.33-0.018-0.449l-1.399-1.403c-0.119-0.119-0.32-0.127-0.448-0.018l-0.502 0.807c-0.004 0.008-0.008 0.015-0.011 0.023-0.215 0.014-0.426 0.102-0.589 0.266l-0.761 0.763c-0.163 0.164-0.251 0.375-0.265 0.591-0.008 0.004-0.016 0.007-0.023 0.011l-0.805 0.503c-0.109 0.128-0.101 0.33 0.018 0.449l1.399 1.403c0.119 0.119 0.32 0.127 0.448 0.018l0.502-0.807c0.004-0.007 0.008-0.015 0.011-0.023 0.215-0.014 0.426-0.102 0.589-0.266l0.221-0.222 3.892 4.298c0.113 0.125 0.287 0.145 0.387 0.045l0.393-0.394c0.1-0.1 0.080-0.274-0.045-0.388z"></path>
</svg>
