<!-- Generated by IcoMoon.io -->
<svg version="1.1" xmlns="http://www.w3.org/2000/svg" width="8" height="8" viewBox="0 0 8 8">
<title>happy</title>
<path d="M4 8c2.209 0 4-1.791 4-4s-1.791-4-4-4-4 1.791-4 4 1.791 4 4 4zM4 0.75c1.795 0 3.25 1.455 3.25 3.25s-1.455 3.25-3.25 3.25-3.25-1.455-3.25-3.25 1.455-3.25 3.25-3.25zM4 4.678c0.906 0 1.767-0.241 2.5-0.663-0.114 1.394-1.196 2.486-2.5 2.486s-2.386-1.093-2.5-2.487c0.733 0.423 1.594 0.665 2.5 0.665zM2 2.75c0-0.414 0.224-0.75 0.5-0.75s0.5 0.336 0.5 0.75c0 0.414-0.224 0.75-0.5 0.75s-0.5-0.336-0.5-0.75zM5 2.75c0-0.414 0.224-0.75 0.5-0.75s0.5 0.336 0.5 0.75c0 0.414-0.224 0.75-0.5 0.75s-0.5-0.336-0.5-0.75z"></path>
</svg>
