<!-- Generated by IcoMoon.io -->
<svg version="1.1" xmlns="http://www.w3.org/2000/svg" width="8" height="8" viewBox="0 0 8 8">
<title>happy2</title>
<path d="M4 0c-2.209 0-4 1.791-4 4s1.791 4 4 4 4-1.791 4-4-1.791-4-4-4zM5.5 2c0.276 0 0.5 0.336 0.5 0.75s-0.224 0.75-0.5 0.75-0.5-0.336-0.5-0.75 0.224-0.75 0.5-0.75zM2.5 2c0.276 0 0.5 0.336 0.5 0.75s-0.224 0.75-0.5 0.75-0.5-0.336-0.5-0.75 0.224-0.75 0.5-0.75zM4 7c-1.304 0-2.386-1.093-2.5-2.487 0.733 0.423 1.594 0.665 2.5 0.665s1.767-0.241 2.5-0.663c-0.114 1.394-1.196 2.486-2.5 2.486z"></path>
</svg>
