<!-- Generated by IcoMoon.io -->
<svg version="1.1" xmlns="http://www.w3.org/2000/svg" width="8" height="8" viewBox="0 0 8 8">
<title>headphones</title>
<path d="M2.25 4.5h-0.5v3.5h0.5c0.138 0 0.25-0.112 0.25-0.25v-3c0-0.138-0.112-0.25-0.25-0.25z"></path>
<path d="M5.75 4.5c-0.138 0-0.25 0.112-0.25 0.25v3c0 0.138 0.112 0.25 0.25 0.25h0.5v-3.5h-0.5z"></path>
<path d="M8 4c0-2.209-1.791-4-4-4s-4 1.791-4 4c0 0.48 0.085 0.94 0.239 1.366-0.152 0.259-0.239 0.561-0.239 0.884 0 0.882 0.652 1.611 1.5 1.732v-3.464c-0.249 0.036-0.482 0.124-0.686 0.253-0.042-0.209-0.064-0.425-0.064-0.646 0-1.795 1.455-3.25 3.25-3.25s3.25 1.455 3.25 3.25c0 0.221-0.022 0.437-0.064 0.646-0.204-0.129-0.436-0.218-0.686-0.253v3.464c0.848-0.121 1.5-0.851 1.5-1.732 0-0.322-0.087-0.624-0.239-0.884 0.155-0.426 0.239-0.886 0.239-1.366z"></path>
</svg>
