<!-- Generated by IcoMoon.io -->
<svg version="1.1" xmlns="http://www.w3.org/2000/svg" width="8" height="8" viewBox="0 0 8 8">
<title>hipster2</title>
<path d="M4 0c-2.209 0-4 1.791-4 4s1.791 4 4 4 4-1.791 4-4-1.791-4-4-4zM5.5 2c0.276 0 0.5 0.224 0.5 0.5s-0.224 0.5-0.5 0.5-0.5-0.224-0.5-0.5 0.224-0.5 0.5-0.5zM2.5 2c0.276 0 0.5 0.224 0.5 0.5s-0.224 0.5-0.5 0.5-0.5-0.224-0.5-0.5 0.224-0.5 0.5-0.5zM4.248 5.308c-0.010-0.009-0.019-0.018-0.029-0.027-0.146-0.146-0.22-0.338-0.22-0.53-0 0.192-0.073 0.384-0.22 0.53-0.009 0.009-0.019 0.019-0.029 0.027-0.676 0.613-2.252-0.014-2.252-0.808 0.484 0.313 0.863 0.076 1.22-0.28 0.293-0.293 0.768-0.293 1.061 0 0.146 0.146 0.22 0.338 0.22 0.53 0-0.192 0.073-0.384 0.22-0.53 0.293-0.293 0.768-0.293 1.061 0 0.357 0.357 0.735 0.593 1.22 0.28 0 0.793-1.576 1.421-2.252 0.808z"></path>
</svg>
