<!-- Generated by IcoMoon.io -->
<svg version="1.1" xmlns="http://www.w3.org/2000/svg" width="8" height="8" viewBox="0 0 8 8">
<title>hipster</title>
<path d="M4 8c2.209 0 4-1.791 4-4s-1.791-4-4-4-4 1.791-4 4 1.791 4 4 4zM4 0.75c1.795 0 3.25 1.455 3.25 3.25s-1.455 3.25-3.25 3.25-3.25-1.455-3.25-3.25 1.455-3.25 3.25-3.25zM2 2.5c0-0.276 0.224-0.5 0.5-0.5s0.5 0.224 0.5 0.5-0.224 0.5-0.5 0.5-0.5-0.224-0.5-0.5zM5 2.5c0-0.276 0.224-0.5 0.5-0.5s0.5 0.224 0.5 0.5-0.224 0.5-0.5 0.5-0.5-0.224-0.5-0.5z"></path>
<path d="M5.28 4.22c-0.293-0.293-0.768-0.293-1.061 0s-0.293 0.768 0 1.061c0.009 0.009 0.019 0.019 0.029 0.027 0.676 0.613 2.252-0.014 2.252-0.808-0.484 0.313-0.863 0.076-1.22-0.28z"></path>
<path d="M2.72 4.22c0.293-0.293 0.768-0.293 1.061 0s0.293 0.768 0 1.061c-0.009 0.009-0.019 0.019-0.029 0.027-0.676 0.613-2.252-0.014-2.252-0.808 0.484 0.313 0.863 0.076 1.22-0.28z"></path>
</svg>
