<!-- Generated by IcoMoon.io -->
<svg version="1.1" xmlns="http://www.w3.org/2000/svg" width="8" height="8" viewBox="0 0 8 8">
<title>hour-glass</title>
<path d="M5.695 4c1.076-0.682 1.805-1.994 1.805-3.5 0-0.169-0.009-0.336-0.027-0.5h-6.946c-0.018 0.164-0.027 0.331-0.027 0.5 0 1.506 0.729 2.818 1.805 3.5-1.076 0.682-1.805 1.994-1.805 3.5 0 0.169 0.009 0.336 0.027 0.5h6.946c0.018-0.164 0.027-0.331 0.027-0.5 0-1.506-0.729-2.818-1.805-3.5zM1.25 7.5c0-1.46 0.626-2.699 1.75-3.107v-0.786c-1.124-0.409-1.75-1.647-1.75-3.107v0h5.5c0 1.46-0.626 2.699-1.75 3.107v0.786c1.124 0.409 1.75 1.647 1.75 3.107h-5.5zM4.841 5.231c-0.56-0.318-0.591-0.729-0.591-0.979v-0.502c0-0.25 0.030-0.663 0.592-0.982 0.301-0.175 0.561-0.44 0.758-0.768h-3.2c0.197 0.328 0.458 0.594 0.759 0.769 0.56 0.318 0.591 0.729 0.591 0.979v0.502c0 0.25-0.030 0.663-0.592 0.982-0.567 0.33-0.99 0.982-1.118 1.768h3.919c-0.128-0.787-0.551-1.439-1.119-1.769z"></path>
</svg>
