<!-- Generated by IcoMoon.io -->
<svg version="1.1" xmlns="http://www.w3.org/2000/svg" width="8" height="8" viewBox="0 0 8 8">
<title>IE</title>
<path d="M5.736 4.913h1.844c0.014-0.128 0.020-0.259 0.020-0.392 0-0.627-0.168-1.215-0.462-1.721 0.304-0.807 0.293-1.492-0.114-1.901-0.387-0.385-1.424-0.323-2.597 0.197-0.087-0.007-0.174-0.010-0.263-0.010-1.61 0-2.96 1.108-3.334 2.6 0.505-0.647 1.036-1.115 1.746-1.457-0.065 0.060-0.441 0.435-0.504 0.498-1.871 1.871-2.462 4.315-1.827 4.95 0.483 0.483 1.357 0.401 2.362-0.091 0.467 0.238 0.996 0.372 1.556 0.372 1.509 0 2.788-0.971 3.251-2.324h-1.858c-0.256 0.472-0.756 0.793-1.33 0.793s-1.074-0.321-1.33-0.793c-0.114-0.213-0.179-0.457-0.179-0.716v-0.006h3.018zM2.721 4.006c0.043-0.759 0.673-1.364 1.443-1.364s1.401 0.605 1.443 1.364h-2.887zM7.008 1.28c0.262 0.265 0.255 0.752 0.031 1.36-0.384-0.585-0.942-1.046-1.6-1.31 0.704-0.302 1.277-0.342 1.569-0.050zM0.73 7.557c-0.334-0.334-0.233-1.036 0.197-1.881 0.268 0.752 0.79 1.384 1.464 1.79-0.746 0.338-1.356 0.396-1.661 0.091z"></path>
</svg>
