<!-- Generated by IcoMoon.io -->
<svg version="1.1" xmlns="http://www.w3.org/2000/svg" width="8" height="8" viewBox="0 0 8 8">
<title>image</title>
<path d="M7.499 1c0 0 0.001 0.001 0.001 0.001v5.998c-0 0-0.001 0.001-0.001 0.001h-6.998c-0-0-0.001-0.001-0.001-0.001v-5.998c0-0 0.001-0.001 0.001-0.001h6.998zM7.5 0.5h-7c-0.275 0-0.5 0.225-0.5 0.5v6c0 0.275 0.225 0.5 0.5 0.5h7c0.275 0 0.5-0.225 0.5-0.5v-6c0-0.275-0.225-0.5-0.5-0.5v0z"></path>
<path d="M6.5 2.25c0 0.414-0.336 0.75-0.75 0.75s-0.75-0.336-0.75-0.75 0.336-0.75 0.75-0.75 0.75 0.336 0.75 0.75z"></path>
<path d="M7 6.5h-6v-1l1.75-3 2 2.5h0.5l1.75-1.5z"></path>
</svg>
