<!-- Generated by IcoMoon.io -->
<svg version="1.1" xmlns="http://www.w3.org/2000/svg" width="8" height="8" viewBox="0 0 8 8">
<title>infinite</title>
<path d="M6.125 5.875c-0.501 0-0.972-0.195-1.326-0.549l-0.799-0.799-0.799 0.799c-0.354 0.354-0.825 0.549-1.326 0.549s-0.972-0.195-1.326-0.549c-0.354-0.354-0.549-0.825-0.549-1.326s0.195-0.972 0.549-1.326c0.354-0.354 0.825-0.549 1.326-0.549s0.972 0.195 1.326 0.549l0.799 0.799 0.799-0.799c0.354-0.354 0.825-0.549 1.326-0.549s0.972 0.195 1.326 0.549c0.354 0.354 0.549 0.825 0.549 1.326s-0.195 0.972-0.549 1.326c-0.354 0.354-0.825 0.549-1.326 0.549zM5.326 4.799c0.213 0.213 0.497 0.331 0.799 0.331s0.586-0.118 0.799-0.331c0.213-0.213 0.331-0.497 0.331-0.799s-0.118-0.586-0.331-0.799c-0.213-0.213-0.497-0.331-0.799-0.331s-0.586 0.118-0.799 0.331l-0.799 0.799 0.799 0.799zM1.875 2.87c-0.302 0-0.586 0.118-0.799 0.331s-0.331 0.497-0.331 0.799c0 0.302 0.118 0.586 0.331 0.799s0.497 0.331 0.799 0.331c0.302 0 0.586-0.118 0.799-0.331l0.799-0.799-0.799-0.799c-0.213-0.213-0.497-0.331-0.799-0.331v0z"></path>
</svg>
