<!-- Generated by IcoMoon.io -->
<svg version="1.1" xmlns="http://www.w3.org/2000/svg" width="8" height="8" viewBox="0 0 8 8">
<title>info</title>
<path d="M3.5 2.375c0-0.206 0.169-0.375 0.375-0.375h0.25c0.206 0 0.375 0.169 0.375 0.375v0.25c0 0.206-0.169 0.375-0.375 0.375h-0.25c-0.206 0-0.375-0.169-0.375-0.375v-0.25z"></path>
<path d="M5 6h-2v-0.5h0.5v-1.5h-0.5v-0.5h1.5v2h0.5z"></path>
<path d="M4 0c-2.209 0-4 1.791-4 4s1.791 4 4 4 4-1.791 4-4-1.791-4-4-4zM4 7.25c-1.795 0-3.25-1.455-3.25-3.25s1.455-3.25 3.25-3.25 3.25 1.455 3.25 3.25-1.455 3.25-3.25 3.25z"></path>
</svg>
