<!-- Generated by IcoMoon.io -->
<svg version="1.1" xmlns="http://www.w3.org/2000/svg" width="8" height="8" viewBox="0 0 8 8">
<title>instagram</title>
<path d="M4 0.72c1.069 0 1.195 0.005 1.616 0.023 0.391 0.017 0.602 0.083 0.742 0.138 0.186 0.072 0.32 0.159 0.459 0.298 0.141 0.141 0.227 0.273 0.3 0.459 0.055 0.141 0.12 0.353 0.138 0.742 0.019 0.422 0.023 0.548 0.023 1.616s-0.005 1.195-0.023 1.616c-0.017 0.391-0.083 0.602-0.138 0.742-0.072 0.186-0.159 0.32-0.298 0.459-0.141 0.141-0.273 0.227-0.459 0.3-0.141 0.055-0.353 0.12-0.742 0.138-0.422 0.019-0.548 0.023-1.616 0.023s-1.195-0.005-1.616-0.023c-0.391-0.017-0.602-0.083-0.742-0.138-0.186-0.072-0.32-0.159-0.459-0.298-0.141-0.141-0.227-0.273-0.3-0.459-0.055-0.141-0.12-0.353-0.137-0.742-0.019-0.422-0.023-0.548-0.023-1.616s0.005-1.195 0.023-1.616c0.017-0.391 0.083-0.602 0.137-0.742 0.072-0.186 0.159-0.32 0.298-0.459 0.141-0.141 0.273-0.227 0.459-0.3 0.141-0.055 0.353-0.12 0.742-0.137 0.42-0.019 0.547-0.023 1.616-0.023zM4 0c-1.086 0-1.222 0.005-1.648 0.023-0.425 0.019-0.717 0.087-0.97 0.186-0.264 0.103-0.488 0.239-0.709 0.463-0.223 0.222-0.359 0.445-0.463 0.708-0.098 0.255-0.167 0.545-0.186 0.97-0.019 0.428-0.023 0.564-0.023 1.65s0.005 1.222 0.023 1.648c0.019 0.425 0.087 0.717 0.186 0.97 0.103 0.264 0.239 0.487 0.463 0.709 0.222 0.222 0.445 0.359 0.708 0.461 0.255 0.098 0.545 0.167 0.97 0.186 0.427 0.019 0.563 0.023 1.648 0.023s1.222-0.005 1.648-0.023c0.425-0.019 0.717-0.088 0.97-0.186 0.263-0.102 0.486-0.239 0.708-0.461s0.359-0.445 0.461-0.708c0.098-0.255 0.167-0.545 0.186-0.97 0.019-0.427 0.023-0.563 0.023-1.648s-0.005-1.222-0.023-1.648c-0.019-0.425-0.088-0.717-0.186-0.97-0.098-0.266-0.234-0.489-0.458-0.711-0.222-0.222-0.445-0.359-0.708-0.461-0.255-0.098-0.545-0.167-0.97-0.186-0.428-0.020-0.564-0.025-1.65-0.025v0z"></path>
<path d="M4 1.945c-1.134 0-2.055 0.92-2.055 2.055s0.92 2.055 2.055 2.055 2.055-0.92 2.055-2.055c0-1.134-0.92-2.055-2.055-2.055zM4 5.333c-0.736 0-1.333-0.597-1.333-1.333s0.597-1.333 1.333-1.333c0.736 0 1.333 0.597 1.333 1.333s-0.597 1.333-1.333 1.333z"></path>
<path d="M6.616 1.864c0 0.265-0.215 0.48-0.48 0.48s-0.48-0.215-0.48-0.48c0-0.265 0.215-0.48 0.48-0.48s0.48 0.215 0.48 0.48z"></path>
</svg>
