<!-- Generated by IcoMoon.io -->
<svg version="1.1" xmlns="http://www.w3.org/2000/svg" width="8" height="8" viewBox="0 0 8 8">
<title>joomla</title>
<path d="M2.078 2.162c0.256-0.257 0.672-0.257 0.928-0l0.061 0.061 0.79-0.79-0.062-0.062c-0.45-0.451-1.082-0.608-1.66-0.473-0.083-0.509-0.524-0.898-1.056-0.898-0.591 0-1.070 0.48-1.070 1.072 0 0.51 0.356 0.938 0.833 1.046-0.181 0.605-0.033 1.288 0.444 1.766l1.78 1.78 0.789-0.791-1.78-1.78c-0.255-0.256-0.256-0.673 0.001-0.93zM7.99 1.072c0-0.592-0.479-1.072-1.070-1.072-0.541 0-0.988 0.402-1.060 0.924-0.602-0.177-1.28-0.027-1.755 0.449l-1.78 1.78 0.79 0.79 1.779-1.78c0.257-0.258 0.672-0.257 0.927-0.001s0.256 0.673-0 0.929l-0.061 0.061 0.789 0.791 0.061-0.062c0.472-0.473 0.622-1.147 0.45-1.747 0.525-0.069 0.929-0.518 0.929-1.062zM7.080 5.868c0.141-0.582-0.015-1.221-0.47-1.676l-1.777-1.781-0.79 0.79 1.777 1.781c0.257 0.258 0.257 0.673 0.001 0.928s-0.672 0.256-0.928-0l-0.061-0.061-0.789 0.791 0.060 0.060c0.481 0.481 1.169 0.628 1.776 0.441 0.099 0.49 0.531 0.858 1.049 0.858 0.591 0 1.070-0.479 1.070-1.071 0-0.541-0.4-0.988-0.92-1.061zM4.784 4.13l-1.778 1.781c-0.256 0.256-0.672 0.256-0.929-0.001s-0.256-0.673-0-0.929l0.061-0.061-0.79-0.79-0.060 0.060c-0.459 0.459-0.614 1.108-0.464 1.695-0.472 0.111-0.823 0.536-0.823 1.043-0 0.592 0.479 1.071 1.070 1.071 0.509-0 0.934-0.355 1.043-0.831 0.584 0.145 1.227-0.010 1.682-0.467l1.777-1.781-0.789-0.791z"></path>
</svg>
