<!-- Generated by IcoMoon.io -->
<svg version="1.1" xmlns="http://www.w3.org/2000/svg" width="8" height="8" viewBox="0 0 8 8">
<title>key</title>
<path d="M5.5 0c-1.381 0-2.5 1.119-2.5 2.5 0 0.156 0.015 0.309 0.042 0.458l-3.042 3.042v1.5c0 0.276 0.224 0.5 0.5 0.5h0.5v-0.5h1v-1h1v-1h1l0.649-0.649c0.266 0.096 0.552 0.149 0.851 0.149 1.381 0 2.5-1.119 2.5-2.5s-1.119-2.5-2.5-2.5zM6.249 2.501c-0.414 0-0.75-0.336-0.75-0.75s0.336-0.75 0.75-0.75 0.75 0.336 0.75 0.75-0.336 0.75-0.75 0.75z"></path>
</svg>
