<!-- Generated by IcoMoon.io -->
<svg version="1.1" xmlns="http://www.w3.org/2000/svg" width="8" height="8" viewBox="0 0 8 8">
<title>key2</title>
<path d="M7.829 2.455l-0.79-0.79c-0.194-0.194-0.511-0.511-0.704-0.704l-0.79-0.79c-0.194-0.194-0.539-0.228-0.767-0.076l-2.16 1.44c-0.228 0.152-0.314 0.477-0.192 0.722l0.551 1.101c0.017 0.034 0.036 0.070 0.058 0.107l-2.785 2.785-0.25 1.75h1.5v-0.5h1v-1h1v-1h1v-0.556c0.050 0.030 0.098 0.056 0.142 0.078l1.101 0.551c0.245 0.123 0.57 0.036 0.722-0.192l1.44-2.16c0.152-0.228 0.118-0.573-0.076-0.767zM1.177 6.677l-0.354-0.354 2.434-2.434 0.354 0.354-2.434 2.434zM7.164 3.311l-0.354 0.354c-0.097 0.097-0.256 0.097-0.354 0l-2.121-2.121c-0.097-0.097-0.097-0.256 0-0.354l0.354-0.354c0.097-0.097 0.256-0.097 0.354 0l2.121 2.121c0.097 0.097 0.097 0.256 0 0.354z"></path>
</svg>
