<!-- Generated by IcoMoon.io -->
<svg version="1.1" xmlns="http://www.w3.org/2000/svg" width="9" height="8" viewBox="0 0 9 8">
<title>keyboard</title>
<path d="M8.5 1h-8c-0.275 0-0.5 0.225-0.5 0.5v5c0 0.275 0.225 0.5 0.5 0.5h8c0.275 0 0.5-0.225 0.5-0.5v-5c0-0.275-0.225-0.5-0.5-0.5zM5 2h1v1h-1v-1zM6.5 3.5v1h-1v-1h1zM3.5 2h1v1h-1v-1zM5 3.5v1h-1v-1h1zM2 2h1v1h-1v-1zM3.5 3.5v1h-1v-1h1zM1 2h0.5v1h-0.5v-1zM1 3.5h1v1h-1v-1zM1.5 6h-0.5v-1h0.5v1zM6 6h-4v-1h4v1zM8 6h-1.5v-1h1.5v1zM8 4.5h-1v-1h1v1zM8 3h-1.5v-1h1.5v1z"></path>
</svg>
