<!-- Generated by IcoMoon.io -->
<svg version="1.1" xmlns="http://www.w3.org/2000/svg" width="8" height="8" viewBox="0 0 8 8">
<title>lanyrd</title>
<path d="M7.25 0h-6.5c-0.412 0-0.75 0.338-0.75 0.75v6.5c0 0.412 0.338 0.75 0.75 0.75h6.5c0.412 0 0.75-0.338 0.75-0.75v-6.5c0-0.412-0.338-0.75-0.75-0.75zM6.425 6.006l-2.722 0.891c-0.622 0.203-0.684 0.17-0.966-0.7l-0.688-2.13c-0.164-0.505-0.664-1.864-0.748-2.125-0.156-0.484-0.156-0.511 0.758-0.808 0.716-0.234 0.745-0.227 1.005 0.581 0.209 0.65 0.344 1.175 0.559 1.839l0.586 1.813 1.872-0.612c0.369-0.122 0.492-0.116 0.597 0.339l0.075 0.344c0.088 0.398-0.114 0.5-0.328 0.569z"></path>
</svg>
