<!-- Generated by IcoMoon.io -->
<svg version="1.1" xmlns="http://www.w3.org/2000/svg" width="8" height="8" viewBox="0 0 8 8">
<title>lastfm2</title>
<path d="M7.25 0h-6.5c-0.412 0-0.75 0.338-0.75 0.75v6.5c0 0.412 0.338 0.75 0.75 0.75h6.5c0.412 0 0.75-0.338 0.75-0.75v-6.5c0-0.412-0.338-0.75-0.75-0.75zM5.833 5.944c-1.388 0-1.869-0.625-2.125-1.403l-0.256-0.802c-0.192-0.586-0.417-1.042-1.122-1.042-0.489 0-0.986 0.353-0.986 1.339 0 0.77 0.392 1.252 0.947 1.252 0.625 0 1.042-0.466 1.042-0.466l0.256 0.697c0 0-0.433 0.425-1.339 0.425-1.125 0-1.75-0.656-1.75-1.875 0-1.267 0.625-2.013 1.805-2.013 1.067 0 1.603 0.384 1.941 1.427l0.264 0.802c0.192 0.586 0.53 1.011 1.339 1.011 0.545 0 0.834-0.12 0.834-0.417 0-0.233-0.136-0.402-0.545-0.497l-0.545-0.128c-0.666-0.161-0.93-0.505-0.93-1.050 0-0.873 0.706-1.147 1.427-1.147 0.817 0 1.316 0.297 1.38 1.019l-0.802 0.097c-0.033-0.345-0.241-0.489-0.625-0.489-0.353 0-0.569 0.161-0.569 0.433 0 0.241 0.105 0.384 0.456 0.466l0.513 0.112c0.689 0.161 1.058 0.497 1.058 1.147 0 0.798-0.673 1.103-1.667 1.103z"></path>
</svg>
