<!-- Generated by IcoMoon.io -->
<svg version="1.1" xmlns="http://www.w3.org/2000/svg" width="8" height="8" viewBox="0 0 8 8">
<title>lastfm</title>
<path d="M3.528 5.986l-0.294-0.797c0 0-0.477 0.531-1.191 0.531-0.633 0-1.081-0.55-1.081-1.43 0-1.127 0.569-1.53 1.127-1.53 0.806 0 1.063 0.522 1.283 1.191l0.294 0.916c0.294 0.889 0.844 1.603 2.428 1.603 1.136 0 1.906-0.348 1.906-1.264 0-0.742-0.422-1.127-1.209-1.311l-0.586-0.128c-0.403-0.092-0.522-0.256-0.522-0.531 0-0.311 0.247-0.495 0.65-0.495 0.441 0 0.678 0.166 0.714 0.559l0.916-0.109c-0.073-0.825-0.642-1.164-1.577-1.164-0.825 0-1.631 0.311-1.631 1.311 0 0.623 0.303 1.017 1.063 1.2l0.623 0.147c0.467 0.109 0.623 0.303 0.623 0.569 0 0.339-0.33 0.477-0.953 0.477-0.925 0-1.311-0.486-1.53-1.155l-0.303-0.916c-0.383-1.192-0.997-1.631-2.216-1.631-1.347 0-2.063 0.852-2.063 2.3 0 1.392 0.714 2.144 1.998 2.144 1.034 0 1.53-0.486 1.53-0.486v0z"></path>
</svg>
