<!-- Generated by IcoMoon.io -->
<svg version="1.1" xmlns="http://www.w3.org/2000/svg" width="8" height="8" viewBox="0 0 8 8">
<title>leaf</title>
<path d="M7.901 1.051c-0.865-0.656-2.197-1.047-3.562-1.047-1.688 0-3.064 0.59-3.775 1.617-0.334 0.483-0.518 1.054-0.548 1.699-0.027 0.574 0.069 1.209 0.287 1.892 0.741-2.222 2.811-3.962 5.197-3.962 0 0-2.233 0.588-3.637 2.408-0.001 0.001-0.019 0.024-0.052 0.068-0.282 0.377-0.528 0.806-0.712 1.292-0.311 0.741-0.6 1.757-0.6 2.983h1c0 0-0.152-0.955 0.112-2.053 0.437 0.059 0.827 0.088 1.179 0.088 0.919 0 1.573-0.199 2.058-0.626 0.434-0.383 0.673-0.897 0.927-1.441 0.387-0.831 0.825-1.774 2.099-2.501 0.073-0.042 0.12-0.117 0.125-0.201s-0.032-0.165-0.098-0.215z"></path>
</svg>
