<!-- Generated by IcoMoon.io -->
<svg version="1.1" xmlns="http://www.w3.org/2000/svg" width="8" height="8" viewBox="0 0 8 8">
<title>libreoffice</title>
<path d="M4.177 0.177c-0.097-0.097-0.289-0.177-0.427-0.177h-3c-0.137 0-0.25 0.113-0.25 0.25v7.5c0 0.138 0.113 0.25 0.25 0.25h6c0.138 0 0.25-0.112 0.25-0.25v-4.5c0-0.138-0.080-0.33-0.177-0.427l-2.646-2.646zM6.5 7.5h-5.5v-7h2.743c0.023 0.004 0.066 0.022 0.084 0.035l2.637 2.637c0.013 0.019 0.031 0.062 0.035 0.084v4.243zM6.75 0h-1.5c-0.138 0-0.17 0.080-0.073 0.177l1.646 1.646c0.097 0.097 0.177 0.064 0.177-0.073v-1.5c0-0.138-0.112-0.25-0.25-0.25z"></path>
</svg>
