<!-- Generated by IcoMoon.io -->
<svg version="1.1" xmlns="http://www.w3.org/2000/svg" width="8" height="8" viewBox="0 0 8 8">
<title>lifebuoy</title>
<path d="M4 0c-2.209 0-4 1.791-4 4s1.791 4 4 4 4-1.791 4-4-1.791-4-4-4zM2.5 4c0-0.828 0.672-1.5 1.5-1.5s1.5 0.672 1.5 1.5-0.672 1.5-1.5 1.5-1.5-0.672-1.5-1.5zM7.234 5.34v0l-1.386-0.574c0.098-0.236 0.152-0.494 0.152-0.766s-0.054-0.53-0.152-0.766l1.386-0.574c0.171 0.413 0.266 0.865 0.266 1.34s-0.095 0.927-0.266 1.34v0zM5.34 0.766v0 0l-0.574 1.386c-0.236-0.098-0.494-0.152-0.766-0.152s-0.53 0.054-0.766 0.152l-0.574-1.386c0.413-0.171 0.865-0.266 1.34-0.266s0.927 0.095 1.34 0.266zM0.766 2.66l1.386 0.574c-0.098 0.236-0.152 0.494-0.152 0.766s0.054 0.53 0.152 0.766l-1.386 0.574c-0.171-0.413-0.266-0.865-0.266-1.34s0.095-0.927 0.266-1.34zM2.66 7.234l0.574-1.386c0.236 0.098 0.494 0.152 0.766 0.152s0.53-0.054 0.766-0.152l0.574 1.386c-0.413 0.171-0.865 0.266-1.34 0.266s-0.927-0.095-1.34-0.266z"></path>
</svg>
