<!-- Generated by IcoMoon.io -->
<svg version="1.1" xmlns="http://www.w3.org/2000/svg" width="8" height="8" viewBox="0 0 8 8">
<title>ligature2</title>
<path d="M6.682 7.168c-0.092 0-0.653-0.103-0.688-0.229-0.080-0.309-0.092-0.642-0.092-1.020v-4.226c0-0.63 0.126-0.997 0.126-0.997-0.011-0.057-0.069-0.183-0.138-0.183h-0.034c-0.034 0-0.436 0.252-0.802 0.252-0.298-0-0.484-0.264-0.827-0.264-1.446 0-2.125 1.174-2.125 2.836v0.087c0 0.034-0.023 0.069-0.057 0.069h-0.47c-0.057 0-0.172 0.321-0.172 0.47 0 0.046 0.011 0.069 0.034 0.069h0.607c0.034 0 0.057 0.046 0.057 0.080 0 1.020-0.011 2.026-0.011 2.026 0 0.16-0.011 0.516-0.080 0.802-0.034 0.126-0.562 0.229-0.699 0.229-0.057 0-0.057 0.275 0 0.332 0.47-0.023 0.779-0.057 1.249-0.057 0.436 0 0.768 0.034 1.226 0.057 0.023-0.069 0.023-0.332-0.034-0.332-0.092 0-0.653-0.103-0.688-0.229-0.080-0.309-0.080-0.642-0.092-1.020v-1.819c0-0.034 0.034-0.069 0.069-0.069h1.18c0.080-0.16 0.138-0.355 0.138-0.458 0-0.069 0-0.080-0.057-0.080h-1.272c-0.023 0-0.057-0.034-0.057-0.057v-0.413c0-1.020 0.418-1.918 1.117-1.918 0.495 0 0.927 0.321 0.927 1.546 0 0 0 0 0 0 0.002 0.032 0.002 0.057 0.002 0.074v3.413c0 0.16-0.011 0.516-0.080 0.802-0.034 0.126-0.562 0.229-0.699 0.229-0.057 0-0.057 0.275 0 0.332 0.47-0.023 0.779-0.057 1.249-0.057 0.436 0 0.768 0.034 1.226 0.057 0.023-0.069 0.023-0.332-0.034-0.332z"></path>
</svg>
