<!-- Generated by IcoMoon.io -->
<svg version="1.1" xmlns="http://www.w3.org/2000/svg" width="8" height="8" viewBox="0 0 8 8">
<title>ligature</title>
<path d="M6 6.811c0-0 0-0.001 0-0.001l-0.003-3.411-0.996 0.048h-1.968v-0.168c0-0.637 0.045-1.273 0.135-1.521 0.062-0.171 0.177-0.326 0.341-0.46 0.161-0.13 0.322-0.197 0.477-0.197 0.131 0 0.24 0.022 0.323 0.067 0.117 0.067 0.232 0.179 0.341 0.335 0.289 0.41 0.406 0.519 0.469 0.565 0.108 0.079 0.238 0.119 0.388 0.119 0.146 0 0.273-0.054 0.378-0.162s0.157-0.24 0.157-0.396c0-0.168-0.070-0.345-0.207-0.528-0.134-0.179-0.341-0.326-0.616-0.438-0.268-0.109-0.57-0.164-0.897-0.164-0.474 0-0.906 0.114-1.284 0.339s-0.668 0.539-0.862 0.932c-0.18 0.364-0.167 1.052-0.178 1.677h-0.982v0.558h0.981v2.536c0 0.56-0.171 0.711-0.236 0.792-0.089 0.111-0.254 0.227-0.472 0.227h-0.302v0.439h3.010v-0.439h-0.052c-0.712 0-0.914-0.077-0.914-0.944 0-0 0-0 0-0l-0-2.611h1.095c0.581 0 0.715 0.027 0.745 0.038 0.037 0.014 0.084 0.038 0.102 0.071 0.007 0.013 0.041 0.195 0.041 0.648v1.958c0 0.457-0.056 0.609-0.089 0.659-0.072 0.111-0.159 0.172-0.427 0.179v0.439h2.294v-0.436c-0.716 0-0.794-0.077-0.794-0.753z"></path>
</svg>
