<!-- Generated by IcoMoon.io -->
<svg version="1.1" xmlns="http://www.w3.org/2000/svg" width="8" height="8" viewBox="0 0 8 8">
<title>link</title>
<path d="M3.439 4.967c-0.104 0-0.208-0.040-0.287-0.119-0.743-0.743-0.743-1.953 0-2.696l1.5-1.5c0.36-0.36 0.839-0.558 1.348-0.558s0.988 0.198 1.348 0.558c0.743 0.743 0.743 1.953 0 2.696l-0.686 0.686c-0.159 0.159-0.416 0.159-0.575 0s-0.159-0.416 0-0.575l0.686-0.686c0.426-0.426 0.426-1.12 0-1.547-0.207-0.207-0.481-0.32-0.773-0.32s-0.567 0.114-0.773 0.32l-1.5 1.5c-0.426 0.426-0.426 1.12 0 1.547 0.159 0.159 0.159 0.416 0 0.575-0.079 0.079-0.183 0.119-0.287 0.119z"></path>
<path d="M2 7.906c-0.509 0-0.988-0.198-1.348-0.558-0.743-0.743-0.743-1.953 0-2.696l0.686-0.686c0.159-0.159 0.416-0.159 0.575 0s0.159 0.416 0 0.575l-0.686 0.686c-0.426 0.426-0.426 1.12 0 1.547 0.207 0.207 0.481 0.32 0.773 0.32s0.567-0.114 0.773-0.32l1.5-1.5c0.426-0.426 0.426-1.12 0-1.547-0.159-0.159-0.159-0.416 0-0.575s0.416-0.159 0.575 0c0.743 0.743 0.743 1.953 0 2.696l-1.5 1.5c-0.36 0.36-0.839 0.558-1.348 0.558z"></path>
</svg>
