<!-- Generated by IcoMoon.io -->
<svg version="1.1" xmlns="http://www.w3.org/2000/svg" width="8" height="8" viewBox="0 0 8 8">
<title>linkedin2</title>
<path d="M3 3h1.384v0.709h0.020c0.192-0.345 0.664-0.709 1.366-0.709 1.461 0 1.731 0.909 1.731 2.092v2.408h-1.442v-2.135c0-0.509-0.010-1.164-0.75-1.164-0.751 0-0.866 0.555-0.866 1.127v2.172h-1.442v-4.5z"></path>
<path d="M0.5 3h1.5v4.5h-1.5v-4.5z"></path>
<path d="M2 1.75c0 0.414-0.336 0.75-0.75 0.75s-0.75-0.336-0.75-0.75c0-0.414 0.336-0.75 0.75-0.75s0.75 0.336 0.75 0.75z"></path>
</svg>
