<!-- Generated by IcoMoon.io -->
<svg version="1.1" xmlns="http://www.w3.org/2000/svg" width="8" height="8" viewBox="0 0 8 8">
<title>linkedin</title>
<path d="M7.25 0h-6.5c-0.412 0-0.75 0.338-0.75 0.75v6.5c0 0.412 0.338 0.75 0.75 0.75h6.5c0.412 0 0.75-0.338 0.75-0.75v-6.5c0-0.412-0.338-0.75-0.75-0.75zM3 6.5h-1v-3.5h1v3.5zM2.5 2.5c-0.277 0-0.5-0.223-0.5-0.5s0.223-0.5 0.5-0.5c0.277 0 0.5 0.223 0.5 0.5s-0.223 0.5-0.5 0.5zM6.5 6.5h-1v-2c0-0.277-0.223-0.5-0.5-0.5s-0.5 0.223-0.5 0.5v2h-1v-3.5h1v0.62c0.206-0.283 0.522-0.62 0.875-0.62 0.622 0 1.125 0.559 1.125 1.25v2.25z"></path>
</svg>
