<!-- Generated by IcoMoon.io -->
<svg version="1.1" xmlns="http://www.w3.org/2000/svg" width="8" height="8" viewBox="0 0 8 8">
<title>location2</title>
<path d="M4 0c-1.381 0-2.5 1.119-2.5 2.5 0 2.5 2.5 5.5 2.5 5.5s2.5-3 2.5-5.5c0-1.381-1.119-2.5-2.5-2.5zM4 4.031c-0.846 0-1.531-0.686-1.531-1.531s0.686-1.531 1.531-1.531 1.531 0.686 1.531 1.531-0.686 1.531-1.531 1.531zM3.031 2.5c0-0.535 0.434-0.969 0.969-0.969s0.969 0.434 0.969 0.969c0 0.535-0.434 0.969-0.969 0.969s-0.969-0.434-0.969-0.969z"></path>
</svg>
