<!-- Generated by IcoMoon.io -->
<svg version="1.1" xmlns="http://www.w3.org/2000/svg" width="8" height="8" viewBox="0 0 8 8">
<title>loop2</title>
<path d="M6.951 1.299c-0.731-0.799-1.782-1.299-2.951-1.299-2.209 0-4 1.791-4 4h0.75c0-1.795 1.455-3.25 3.25-3.25 0.961 0 1.825 0.417 2.419 1.081l-1.17 1.169h2.75v-2.75l-1.049 1.049z"></path>
<path d="M7.25 4c0 1.795-1.455 3.25-3.25 3.25-0.961 0-1.825-0.417-2.419-1.081l1.169-1.169h-2.75v2.75l1.049-1.049c0.731 0.799 1.782 1.299 2.951 1.299 2.209 0 4-1.791 4-4h-0.75z"></path>
</svg>
