<!-- Generated by IcoMoon.io -->
<svg version="1.1" xmlns="http://www.w3.org/2000/svg" width="8" height="8" viewBox="0 0 8 8">
<title>magic-wand</title>
<path d="M2 1.5l-1-1h-0.5v0.5l1 1zM2.5 0h0.5v1h-0.5zM4.5 2.5h1v0.5h-1zM5 1v-0.5h-0.5l-1 1 0.5 0.5zM0 2.5h1v0.5h-1zM2.5 4.5h0.5v1h-0.5zM0.5 4.5v0.5h0.5l1-1-0.5-0.5zM7.891 6.891l-4.97-4.97c-0.146-0.146-0.384-0.146-0.53 0l-0.47 0.47c-0.146 0.146-0.146 0.384 0 0.53l4.97 4.97c0.146 0.146 0.384 0.146 0.53 0l0.47-0.47c0.146-0.146 0.146-0.384 0-0.53zM3.75 4.25l-1.5-1.5 0.5-0.5 1.5 1.5-0.5 0.5z"></path>
</svg>
