<!-- Generated by IcoMoon.io -->
<svg version="1.1" xmlns="http://www.w3.org/2000/svg" width="8" height="8" viewBox="0 0 8 8">
<title>magnet</title>
<path d="M7 0h-2l0.5 4.5c0 0.828-0.672 1.5-1.5 1.5s-1.5-0.672-1.5-1.5l0.5-4.5h-2l-0.5 4.5c0 1.933 1.567 3.5 3.5 3.5s3.5-1.567 3.5-3.5l-0.5-4.5zM6.077 6.577c-0.555 0.555-1.293 0.86-2.077 0.86s-1.522-0.306-2.077-0.86c-0.548-0.548-0.853-1.274-0.86-2.047l0.282-2.538h0.868l-0.275 2.477v0.031c0 0.551 0.215 1.069 0.604 1.458s0.907 0.604 1.458 0.604 1.069-0.215 1.458-0.604c0.39-0.39 0.604-0.907 0.604-1.458v-0.031l-0.003-0.031-0.272-2.446h0.868l0.282 2.538c-0.008 0.773-0.312 1.5-0.86 2.047z"></path>
</svg>
