<!-- Generated by IcoMoon.io -->
<svg version="1.1" xmlns="http://www.w3.org/2000/svg" width="8" height="8" viewBox="0 0 8 8">
<title>mail2</title>
<path d="M6.667 0h-5.333c-0.733 0-1.333 0.6-1.333 1.334v5.333c0 0.734 0.6 1.333 1.333 1.333h5.333c0.733 0 1.333-0.6 1.333-1.334v-5.333c0-0.733-0.6-1.334-1.333-1.334zM6.667 1c0.062 0 0.121 0.018 0.172 0.050l-2.839 2.347-2.839-2.347c0.051-0.031 0.11-0.050 0.172-0.050h5.333zM1.333 7c-0.015 0-0.030-0.001-0.044-0.003l1.763-2.445-0.229-0.229-1.823 1.823v-4.775l3 3.628 3-3.628v4.774l-1.823-1.823-0.229 0.229 1.763 2.445c-0.015 0.002-0.029 0.003-0.044 0.003h-5.333z"></path>
</svg>
