<!-- Generated by IcoMoon.io -->
<svg version="1.1" xmlns="http://www.w3.org/2000/svg" width="8" height="8" viewBox="0 0 8 8">
<title>mail4</title>
<path d="M4 0c-2.209 0-4 1.791-4 4s1.791 4 4 4 4-1.791 4-4-1.791-4-4-4zM2 2h4c0.071 0 0.141 0.015 0.204 0.044l-2.204 2.572-2.204-2.572c0.064-0.029 0.133-0.044 0.204-0.044zM1.5 5.5v-3c0-0.010 0-0.021 0.001-0.031l1.466 1.71-1.45 1.45c-0.011-0.042-0.017-0.085-0.017-0.129zM6 6h-4c-0.044 0-0.088-0.006-0.129-0.017l1.423-1.423 0.706 0.824 0.706-0.824 1.423 1.423c-0.042 0.011-0.085 0.017-0.129 0.017zM6.5 5.5c0 0.044-0.006 0.088-0.017 0.129l-1.45-1.45 1.466-1.71c0.001 0.010 0.001 0.021 0.001 0.031v3z"></path>
</svg>
