<!-- Generated by IcoMoon.io -->
<svg version="1.1" xmlns="http://www.w3.org/2000/svg" width="8" height="8" viewBox="0 0 8 8">
<title>make-group</title>
<path d="M2.5 1h-1c-0.275 0-0.5 0.225-0.5 0.5v1c0 0.275 0.225 0.5 0.5 0.5h1c0.275 0 0.5-0.225 0.5-0.5v-1c0-0.275-0.225-0.5-0.5-0.5z"></path>
<path d="M5.5 3h1c0.275 0 0.5-0.225 0.5-0.5v-1c0-0.275-0.225-0.5-0.5-0.5h-1c-0.275 0-0.5 0.225-0.5 0.5v1c0 0.275 0.225 0.5 0.5 0.5zM5.5 1.5h1v1h-1v-1z"></path>
<path d="M2.5 5h-1c-0.275 0-0.5 0.225-0.5 0.5v1c0 0.275 0.225 0.5 0.5 0.5h1c0.275 0 0.5-0.225 0.5-0.5v-1c0-0.275-0.225-0.5-0.5-0.5zM2.5 6.5h-1v-1h1v1z"></path>
<path d="M6.5 5h-1c-0.275 0-0.5 0.225-0.5 0.5v1c0 0.275 0.225 0.5 0.5 0.5h1c0.275 0 0.5-0.225 0.5-0.5v-1c0-0.275-0.225-0.5-0.5-0.5z"></path>
<path d="M7 4h-0.5c-0.668 0-1.296-0.26-1.768-0.732s-0.732-1.1-0.732-1.768v-0.5c0-0.55-0.45-1-1-1h-2c-0.55 0-1 0.45-1 1v2c0 0.55 0.45 1 1 1h0.5c0.668 0 1.296 0.26 1.768 0.732s0.732 1.1 0.732 1.768v0.5c0 0.55 0.45 1 1 1h2c0.55 0 1-0.45 1-1v-2c0-0.55-0.45-1-1-1zM7.5 7c0 0.132-0.052 0.258-0.147 0.353s-0.22 0.147-0.353 0.147h-2c-0.132 0-0.258-0.052-0.353-0.147s-0.147-0.22-0.147-0.353v-0.5c0-1.657-1.343-3-3-3h-0.5c-0.132 0-0.258-0.052-0.353-0.147s-0.147-0.22-0.147-0.353v-2c0-0.132 0.052-0.258 0.147-0.353s0.22-0.147 0.353-0.147h2c0.132 0 0.258 0.052 0.353 0.147s0.147 0.22 0.147 0.353v0.5c0 1.657 1.343 3 3 3h0.5c0.132 0 0.258 0.052 0.353 0.147s0.147 0.22 0.147 0.353v2z"></path>
</svg>
