<!-- Generated by IcoMoon.io -->
<svg version="1.1" xmlns="http://www.w3.org/2000/svg" width="8" height="8" viewBox="0 0 8 8">
<title>meter</title>
<path d="M4 0.5c2.209 0 4 1.791 4 4 0 1.506-0.833 2.818-2.063 3.5h-3.875c-1.23-0.682-2.063-1.994-2.063-3.5 0-2.209 1.791-4 4-4zM6.265 6.765c0.605-0.605 0.938-1.409 0.938-2.265h-0.703v-0.5h0.664c-0.055-0.352-0.167-0.689-0.333-1h-0.832v-0.5h0.502c-0.074-0.092-0.153-0.18-0.237-0.265-0.361-0.361-0.793-0.625-1.265-0.78v0.545h-0.5v-0.664c-0.164-0.026-0.331-0.039-0.5-0.039s-0.336 0.013-0.5 0.039v0.664h-0.5v-0.545c-0.472 0.154-0.904 0.419-1.265 0.78-0.085 0.085-0.164 0.173-0.237 0.265h0.502v0.5h-0.832c-0.165 0.311-0.278 0.648-0.333 1h0.664v0.5h-0.703c0 0.856 0.333 1.66 0.938 2.265 0.084 0.084 0.171 0.162 0.262 0.235h1.503l0.286-4h0.429l0.286 4h1.503c0.091-0.073 0.179-0.151 0.262-0.235z"></path>
</svg>
