<!-- Generated by IcoMoon.io -->
<svg version="1.1" xmlns="http://www.w3.org/2000/svg" width="8" height="8" viewBox="0 0 8 8">
<title>meter2</title>
<path d="M4 0c-2.209 0-4 1.791-4 4s1.791 4 4 4 4-1.791 4-4-1.791-4-4-4zM2.366 6.517c0.087-0.239 0.134-0.498 0.134-0.767 0-0.971-0.616-1.799-1.478-2.114 0.080-0.663 0.377-1.277 0.857-1.757 0.567-0.567 1.32-0.879 2.121-0.879s1.555 0.312 2.121 0.879c0.48 0.48 0.777 1.094 0.857 1.757-0.863 0.315-1.478 1.143-1.478 2.114 0 0.269 0.047 0.527 0.134 0.767-0.482 0.314-1.045 0.483-1.634 0.483s-1.152-0.169-1.634-0.483zM4.311 5.008c0.108 0.027 0.189 0.126 0.189 0.242v0.5c0 0.138-0.112 0.25-0.25 0.25h-0.5c-0.138 0-0.25-0.112-0.25-0.25v-0.5c0-0.117 0.081-0.215 0.189-0.242l0.186-3.508h0.25l0.186 3.508z"></path>
</svg>
