<!-- Generated by IcoMoon.io -->
<svg version="1.1" xmlns="http://www.w3.org/2000/svg" width="8" height="8" viewBox="0 0 8 8">
<title>move-down</title>
<path d="M6 5.5v-3h-0.5v3h-1.25l1.5 1.5 1.5-1.5z"></path>
<path d="M2.5 2v1.5h-1.5v-1.5h1.5zM3 1.5h-2.5v2.5h2.5v-2.5z"></path>
<path d="M0.5 5h0.75v0.5h-0.75v-0.5z"></path>
<path d="M1.5 5h0.75v0.5h-0.75v-0.5z"></path>
<path d="M2.5 5h0.5v0.75h-0.5v-0.75z"></path>
<path d="M0.5 6.75h0.5v0.75h-0.5v-0.75z"></path>
<path d="M1.25 7h0.75v0.5h-0.75v-0.5z"></path>
<path d="M2.25 7h0.75v0.5h-0.75v-0.5z"></path>
<path d="M0.5 5.75h0.5v0.75h-0.5v-0.75z"></path>
<path d="M2.5 6h0.5v0.75h-0.5v-0.75z"></path>
</svg>
