<!-- Generated by IcoMoon.io -->
<svg version="1.1" xmlns="http://www.w3.org/2000/svg" width="8" height="8" viewBox="0 0 8 8">
<title>mug</title>
<path d="M7.5 2.5h-1.5v-0.75c0-0.69-1.343-1.25-3-1.25s-3 0.56-3 1.25v5c0 0.69 1.343 1.25 3 1.25s3-0.56 3-1.25v-0.75h1.5c0.276 0 0.5-0.224 0.5-0.5v-2.5c0-0.276-0.224-0.5-0.5-0.5zM1.375 2.019c-0.289-0.095-0.464-0.197-0.558-0.269 0.094-0.071 0.269-0.173 0.558-0.269 0.453-0.149 1.030-0.231 1.625-0.231s1.172 0.082 1.625 0.231c0.289 0.095 0.464 0.197 0.558 0.269-0.094 0.071-0.269 0.173-0.558 0.269-0.453 0.149-1.030 0.231-1.625 0.231s-1.172-0.082-1.625-0.231zM7 5h-1v-1.5h1v1.5z"></path>
</svg>
