<!-- Generated by IcoMoon.io -->
<svg version="1.1" xmlns="http://www.w3.org/2000/svg" width="8" height="8" viewBox="0 0 8 8">
<title>notification</title>
<path d="M4 0.75c-0.868 0-1.684 0.338-2.298 0.952s-0.952 1.43-0.952 2.298c0 0.868 0.338 1.684 0.952 2.298s1.43 0.952 2.298 0.952c0.868 0 1.684-0.338 2.298-0.952s0.952-1.43 0.952-2.298c0-0.868-0.338-1.684-0.952-2.298s-1.43-0.952-2.298-0.952zM4 0v0c2.209 0 4 1.791 4 4s-1.791 4-4 4c-2.209 0-4-1.791-4-4s1.791-4 4-4zM3.5 5.5h1v1h-1zM3.5 1.5h1v3h-1z"></path>
</svg>
