<!-- Generated by IcoMoon.io -->
<svg version="1.1" xmlns="http://www.w3.org/2000/svg" width="8" height="8" viewBox="0 0 8 8">
<title>onedrive</title>
<path d="M2.741 6.472c-0.471-0.118-0.733-0.492-0.734-1.047-0-0.178 0.013-0.263 0.057-0.377 0.109-0.28 0.396-0.491 0.775-0.569 0.188-0.039 0.246-0.080 0.246-0.176 0-0.030 0.022-0.12 0.050-0.2 0.124-0.362 0.355-0.663 0.601-0.787 0.258-0.129 0.388-0.158 0.7-0.157 0.443 0.002 0.664 0.098 0.973 0.423l0.17 0.178 0.152-0.053c0.737-0.255 1.471 0.179 1.53 0.904l0.016 0.198 0.145 0.052c0.414 0.148 0.609 0.46 0.574 0.918-0.023 0.3-0.163 0.539-0.385 0.658l-0.104 0.056-2.319 0.004c-1.782 0.003-2.348-0.003-2.446-0.027v0zM0.806 6.14c-0.283-0.071-0.582-0.335-0.723-0.636-0.080-0.171-0.084-0.196-0.084-0.499 0-0.288 0.007-0.334 0.070-0.477 0.134-0.301 0.39-0.519 0.711-0.605 0.068-0.018 0.132-0.047 0.142-0.064s0.021-0.111 0.025-0.208c0.022-0.603 0.397-1.134 0.92-1.305 0.282-0.092 0.653-0.101 0.96 0.029 0.097 0.041 0.086 0.050 0.292-0.235 0.122-0.169 0.352-0.348 0.554-0.455 0.217-0.115 0.444-0.169 0.714-0.168 0.756 0.002 1.408 0.502 1.648 1.264 0.077 0.244 0.073 0.312-0.018 0.314-0.040 0.001-0.153 0.024-0.252 0.051l-0.18 0.050-0.164-0.174c-0.464-0.49-1.221-0.596-1.864-0.261-0.257 0.134-0.464 0.326-0.62 0.577-0.111 0.179-0.253 0.512-0.253 0.594 0 0.059-0.045 0.088-0.237 0.155-0.594 0.206-0.941 0.682-0.941 1.291 0 0.222 0.054 0.493 0.129 0.648 0.028 0.059 0.044 0.114 0.035 0.124-0.023 0.024-0.763 0.016-0.865-0.010v0z"></path>
</svg>
