<!-- Generated by IcoMoon.io -->
<svg version="1.1" xmlns="http://www.w3.org/2000/svg" width="8" height="8" viewBox="0 0 8 8">
<title>opt</title>
<path d="M7.25 6.5h-2c-0.099 0-0.188-0.058-0.228-0.148l-1.934-4.352h-2.338c-0.138 0-0.25-0.112-0.25-0.25s0.112-0.25 0.25-0.25h2.5c0.099 0 0.188 0.058 0.228 0.148l1.934 4.352h1.838c0.138 0 0.25 0.112 0.25 0.25s-0.112 0.25-0.25 0.25z"></path>
<path d="M7.25 2h-2.5c-0.138 0-0.25-0.112-0.25-0.25s0.112-0.25 0.25-0.25h2.5c0.138 0 0.25 0.112 0.25 0.25s-0.112 0.25-0.25 0.25z"></path>
</svg>
