<!-- Generated by IcoMoon.io -->
<svg version="1.1" xmlns="http://www.w3.org/2000/svg" width="8" height="8" viewBox="0 0 8 8">
<title>paint-format</title>
<path d="M8 4.5v-3h-1.5v-0.5c0-0.275-0.225-0.5-0.5-0.5h-5.5c-0.275 0-0.5 0.225-0.5 0.5v1.5c0 0.275 0.225 0.5 0.5 0.5h5.5c0.275 0 0.5-0.225 0.5-0.5v-0.5h1v2h-4.5v1h-0.25c-0.138 0-0.25 0.112-0.25 0.25v2.5c0 0.138 0.112 0.25 0.25 0.25h1c0.138 0 0.25-0.112 0.25-0.25v-2.5c0-0.138-0.112-0.25-0.25-0.25h-0.25v-0.5h4.5zM6 1.5h-5.5v-0.5h5.5v0.5z"></path>
</svg>
