<!-- Generated by IcoMoon.io -->
<svg version="1.1" xmlns="http://www.w3.org/2000/svg" width="8" height="8" viewBox="0 0 8 8">
<title>paste</title>
<path d="M5.5 1h-1v-0.5c0-0.275-0.225-0.5-0.5-0.5h-1c-0.275 0-0.5 0.225-0.5 0.5v0.5h-1v1h4v-1zM4 1h-1v-0.499c0-0 0.001-0.001 0.001-0.001h0.998c0 0 0.001 0.001 0.001 0.001v0.499zM6.5 2.5v-1.25c0-0.137-0.112-0.25-0.25-0.25h-0.5v0.5h0.25v1h-1.5l-1.5 1.5v2h-2v-4.5h0.25v-0.5h-0.5c-0.138 0-0.25 0.113-0.25 0.25v5c0 0.138 0.112 0.25 0.25 0.25h2.25v1.5h5v-5.5h-1.5zM4.5 3.207v0.793h-0.793l0.793-0.793zM7.5 7.5h-4v-3h1.5v-1.5h2.5v4.5z"></path>
</svg>
