<!-- Generated by IcoMoon.io -->
<svg version="1.1" xmlns="http://www.w3.org/2000/svg" width="8" height="8" viewBox="0 0 8 8">
<title>paypal</title>
<path d="M7.266 2.411c-0.373 1.658-1.527 2.533-3.344 2.533h-0.605l-0.42 2.669h-0.506l-0.027 0.172c-0.017 0.114 0.070 0.216 0.184 0.216h1.294c0.153 0 0.283-0.111 0.308-0.263l0.013-0.066 0.244-1.545 0.016-0.084c0.023-0.152 0.155-0.263 0.308-0.263h0.192c1.253 0 2.234-0.509 2.522-1.981 0.108-0.559 0.067-1.034-0.178-1.388z"></path>
<path d="M6.492 0.603c-0.37-0.422-1.041-0.603-1.897-0.603h-2.486c-0.175 0-0.325 0.127-0.352 0.3l-1.036 6.566c-0.020 0.13 0.080 0.247 0.211 0.247h1.536l0.386-2.445-0.013 0.077c0.027-0.173 0.175-0.3 0.35-0.3h0.73c1.433 0 2.555-0.581 2.883-2.266 0.009-0.050 0.019-0.098 0.025-0.145 0.097-0.622 0-1.047-0.338-1.43z"></path>
</svg>
