<!-- Generated by IcoMoon.io -->
<svg version="1.1" xmlns="http://www.w3.org/2000/svg" width="8" height="8" viewBox="0 0 8 8">
<title>pen</title>
<path d="M7.954 2.28l-2.235-2.235c-0.073-0.073-0.169-0.057-0.214 0.036l-0.3 0.624 2.087 2.087 0.624-0.3c0.093-0.045 0.109-0.141 0.036-0.214z"></path>
<path d="M4.808 1.058l-2.058 0.171c-0.137 0.017-0.251 0.046-0.29 0.225-0 0-0 0-0 0.001-0.558 2.68-2.46 5.296-2.46 5.296l0.448 0.448 2.125-2.125c-0.047-0.098-0.073-0.208-0.073-0.323 0-0.414 0.336-0.75 0.75-0.75s0.75 0.336 0.75 0.75-0.336 0.75-0.75 0.75c-0.116 0-0.225-0.026-0.323-0.073l-2.125 2.125 0.448 0.448c0 0 2.615-1.902 5.296-2.46 0-0 0-0 0.001-0 0.179-0.039 0.208-0.153 0.225-0.29l0.171-2.058-2.135-2.135z"></path>
</svg>
