<!-- Generated by IcoMoon.io -->
<svg version="1.1" xmlns="http://www.w3.org/2000/svg" width="8" height="8" viewBox="0 0 8 8">
<title>phone-hang-up</title>
<path d="M7.948 4.5c0.063 0.433 0.103 1.026-0.091 1.253-0.321 0.375-2.357 0.375-2.357-0.375 0-0.378 0.335-0.626 0.013-1.001-0.316-0.369-0.883-0.375-1.513-0.375s-1.197 0.006-1.513 0.375c-0.321 0.375 0.013 0.623 0.013 1.001 0 0.751-2.036 0.751-2.357 0.375-0.194-0.227-0.154-0.82-0.091-1.253 0.048-0.289 0.17-0.602 0.559-1 0-0 0-0 0-0 0.584-0.545 1.468-0.99 3.358-1v-0c0.010 0 0.021 0 0.031 0s0.021-0 0.031-0v0c1.89 0.010 2.774 0.455 3.358 1 0 0 0 0 0 0 0.389 0.398 0.511 0.711 0.559 1z"></path>
</svg>
