<!-- Generated by IcoMoon.io -->
<svg version="1.1" xmlns="http://www.w3.org/2000/svg" width="8" height="8" viewBox="0 0 8 8">
<title>pinterest</title>
<path d="M4 0.534c-1.914 0-3.466 1.552-3.466 3.466 0 1.469 0.914 2.722 2.203 3.227-0.030-0.273-0.058-0.695 0.013-0.994 0.063-0.27 0.406-1.722 0.406-1.722s-0.103-0.208-0.103-0.514c0-0.481 0.28-0.842 0.627-0.842 0.295 0 0.439 0.222 0.439 0.487 0 0.297-0.189 0.742-0.288 1.153-0.083 0.345 0.172 0.627 0.512 0.627 0.616 0 1.089-0.65 1.089-1.587 0-0.83-0.597-1.409-1.447-1.409-0.986 0-1.564 0.739-1.564 1.505 0 0.298 0.114 0.617 0.258 0.791 0.028 0.034 0.033 0.064 0.023 0.1-0.027 0.109-0.084 0.345-0.097 0.394-0.016 0.064-0.050 0.077-0.116 0.047-0.433-0.202-0.703-0.834-0.703-1.342 0-1.094 0.794-2.097 2.289-2.097 1.202 0 2.136 0.856 2.136 2.002 0 1.194-0.753 2.156-1.798 2.156-0.352 0-0.681-0.183-0.794-0.398 0 0-0.173 0.661-0.216 0.823-0.078 0.302-0.289 0.678-0.431 0.908 0.325 0.1 0.669 0.155 1.027 0.155 1.914 0 3.466-1.552 3.466-3.466 0-1.916-1.552-3.467-3.466-3.467z"></path>
</svg>
