<!-- Generated by IcoMoon.io -->
<svg version="1.1" xmlns="http://www.w3.org/2000/svg" width="8" height="8" viewBox="0 0 8 8">
<title>pinterest2</title>
<path d="M4 0c-2.206 0-4 1.794-4 4s1.794 4 4 4 4-1.794 4-4-1.794-4-4-4zM4 7.466c-0.358 0-0.702-0.055-1.027-0.155 0.141-0.23 0.353-0.608 0.431-0.908 0.042-0.162 0.216-0.823 0.216-0.823 0.112 0.216 0.444 0.398 0.794 0.398 1.045 0 1.798-0.961 1.798-2.156 0-1.145-0.934-2.002-2.136-2.002-1.495 0-2.289 1.005-2.289 2.097 0 0.508 0.27 1.141 0.703 1.342 0.066 0.031 0.1 0.017 0.116-0.047 0.011-0.048 0.070-0.283 0.097-0.394 0.008-0.034 0.005-0.066-0.023-0.1-0.144-0.173-0.258-0.494-0.258-0.791 0-0.764 0.578-1.505 1.564-1.505 0.852 0 1.447 0.58 1.447 1.409 0 0.938-0.473 1.588-1.089 1.588-0.341 0-0.595-0.281-0.513-0.627 0.098-0.412 0.287-0.856 0.287-1.153 0-0.266-0.142-0.487-0.439-0.487-0.348 0-0.627 0.359-0.627 0.842 0 0.306 0.103 0.514 0.103 0.514s-0.344 1.452-0.406 1.722c-0.070 0.3-0.042 0.72-0.013 0.994-1.289-0.503-2.203-1.756-2.203-3.225 0-1.914 1.552-3.466 3.466-3.466s3.466 1.552 3.466 3.466c0 1.914-1.552 3.466-3.466 3.466z"></path>
</svg>
