<!-- Generated by IcoMoon.io -->
<svg version="1.1" xmlns="http://www.w3.org/2000/svg" width="8" height="8" viewBox="0 0 8 8">
<title>podcast</title>
<path d="M8 4c0-2.209-1.791-4-4-4s-4 1.791-4 4c0 1.719 1.085 3.185 2.607 3.751l-0.107 0.249h3l-0.107-0.249c1.522-0.566 2.607-2.031 2.607-3.751zM3.803 4.96c-0.178-0.076-0.303-0.253-0.303-0.46 0-0.276 0.224-0.5 0.5-0.5s0.5 0.224 0.5 0.5c0 0.206-0.125 0.383-0.303 0.46l-0.197-0.46-0.197 0.46zM4.205 4.979c0.454-0.095 0.795-0.497 0.795-0.979 0-0.552-0.448-1-1-1s-1 0.448-1 1c0 0.482 0.341 0.884 0.795 0.978l-0.583 1.36c-0.713-0.306-1.212-1.014-1.212-1.839 0-1.105 0.895-2.094 2-2.094s2 0.989 2 2.094c0 0.825-0.499 1.533-1.212 1.839l-0.583-1.36zM5.378 7.716l-0.578-1.348c0.988-0.334 1.699-1.268 1.699-2.369 0-1.381-1.119-2.5-2.5-2.5s-2.5 1.119-2.5 2.5c0 1.101 0.711 2.035 1.699 2.369l-0.578 1.348c-1.247-0.535-2.12-1.774-2.12-3.216 0-1.932 1.566-3.592 3.499-3.592s3.499 1.66 3.499 3.592c0 1.443-0.873 2.681-2.12 3.216z"></path>
</svg>
