<!-- Generated by IcoMoon.io -->
<svg version="1.1" xmlns="http://www.w3.org/2000/svg" width="8" height="8" viewBox="0 0 8 8">
<title>point-left</title>
<path d="M4.75 7.5h-1.25c-0.414 0-0.75-0.336-0.75-0.75 0-0.134 0.035-0.259 0.097-0.368-0.208-0.133-0.347-0.367-0.347-0.632 0-0.192 0.072-0.367 0.191-0.5-0.119-0.133-0.191-0.308-0.191-0.5 0-0.088 0.015-0.172 0.043-0.25h-1.793c-0.414 0-0.75-0.336-0.75-0.75s0.336-0.75 0.75-0.75h3.083l-0.733-1.375c-0.066-0.114-0.1-0.243-0.1-0.375 0-0.414 0.336-0.75 0.75-0.75 0.206 0 0.398 0.082 0.541 0.23 0.002 0.002 0.004 0.004 0.005 0.006l1.704 1.869v-0.355c0-0.138 0.112-0.25 0.25-0.25h1.5c0.138 0 0.25 0.112 0.25 0.25v5c0 0.138-0.112 0.25-0.25 0.25h-1.5c-0.138 0-0.25-0.112-0.25-0.25v-0.345l-1.138 0.569c-0.035 0.017-0.073 0.026-0.112 0.026zM6.75 7c0.138 0 0.25-0.112 0.25-0.25s-0.112-0.25-0.25-0.25-0.25 0.112-0.25 0.25 0.112 0.25 0.25 0.25zM4.691 7l1.309-0.655v-2.999l-2.072-2.272c-0.047-0.048-0.111-0.075-0.178-0.075-0.138 0-0.25 0.112-0.25 0.25 0 0.043 0.010 0.083 0.030 0.12 0.003 0.004 0.005 0.008 0.007 0.013l0.933 1.75c0.041 0.078 0.039 0.171-0.006 0.246s-0.127 0.121-0.214 0.121h-3.5c-0.138 0-0.25 0.112-0.25 0.25s0.112 0.25 0.25 0.25h2.5c0.138 0 0.25 0.112 0.25 0.25s-0.112 0.25-0.25 0.25c-0.138 0-0.25 0.112-0.25 0.25s0.112 0.25 0.25 0.25c0.138 0 0.25 0.112 0.25 0.25s-0.112 0.25-0.25 0.25c-0.138 0-0.25 0.112-0.25 0.25s0.112 0.25 0.25 0.25h0.25c0.138 0 0.25 0.112 0.25 0.25s-0.112 0.25-0.25 0.25c-0.138 0-0.25 0.112-0.25 0.25s0.112 0.25 0.25 0.25h1.191z"></path>
</svg>
