<!-- Generated by IcoMoon.io -->
<svg version="1.1" xmlns="http://www.w3.org/2000/svg" width="8" height="8" viewBox="0 0 8 8">
<title>point-down</title>
<path d="M7.5 3.25v1.25c0 0.414-0.336 0.75-0.75 0.75-0.134 0-0.259-0.035-0.368-0.097-0.133 0.208-0.367 0.347-0.632 0.347-0.192 0-0.367-0.072-0.5-0.191-0.133 0.119-0.308 0.191-0.5 0.191-0.088 0-0.172-0.015-0.25-0.043v1.793c0 0.414-0.336 0.75-0.75 0.75s-0.75-0.336-0.75-0.75v-3.083l-1.375 0.733c-0.114 0.066-0.243 0.1-0.375 0.1-0.414 0-0.75-0.336-0.75-0.75 0-0.206 0.082-0.398 0.23-0.541 0.002-0.002 0.004-0.004 0.006-0.005l1.869-1.704h-0.355c-0.138 0-0.25-0.112-0.25-0.25v-1.5c0-0.138 0.112-0.25 0.25-0.25h5c0.138 0 0.25 0.112 0.25 0.25v1.5c0 0.138-0.112 0.25-0.25 0.25h-0.345l0.569 1.138c0.017 0.035 0.026 0.073 0.026 0.112zM7 1.25c0-0.138-0.112-0.25-0.25-0.25s-0.25 0.112-0.25 0.25 0.112 0.25 0.25 0.25 0.25-0.112 0.25-0.25zM7 3.309l-0.655-1.309h-2.999l-2.272 2.072c-0.048 0.047-0.075 0.111-0.075 0.178 0 0.138 0.112 0.25 0.25 0.25 0.043 0 0.083-0.010 0.12-0.030 0.004-0.003 0.008-0.005 0.013-0.007l1.75-0.933c0.078-0.041 0.171-0.039 0.246 0.006s0.121 0.127 0.121 0.214v3.5c0 0.138 0.112 0.25 0.25 0.25s0.25-0.112 0.25-0.25v-2.5c0-0.138 0.112-0.25 0.25-0.25s0.25 0.112 0.25 0.25c0 0.138 0.112 0.25 0.25 0.25s0.25-0.112 0.25-0.25c0-0.138 0.112-0.25 0.25-0.25s0.25 0.112 0.25 0.25c0 0.138 0.112 0.25 0.25 0.25s0.25-0.112 0.25-0.25v-0.25c0-0.138 0.112-0.25 0.25-0.25s0.25 0.112 0.25 0.25c0 0.138 0.112 0.25 0.25 0.25s0.25-0.112 0.25-0.25v-1.191z"></path>
</svg>
