<!-- Generated by IcoMoon.io -->
<svg version="1.1" xmlns="http://www.w3.org/2000/svg" width="8" height="8" viewBox="0 0 8 8">
<title>power-cord</title>
<path d="M8 2.207l-0.707-0.707-1.396 1.397-0.793-0.793 1.396-1.396-0.707-0.707-1.396 1.396-0.896-0.896-0.677 0.677 4 4 0.677-0.677-0.896-0.897 1.396-1.396z"></path>
<path d="M6.203 5.264l-3.467-3.467c-0.749 0.898-1.598 2.285-1.011 3.478l-1.033 1.033c-0.243 0.243-0.243 0.641 0 0.884l0.116 0.116c0.243 0.243 0.641 0.243 0.884 0l1.033-1.033c1.193 0.587 2.581-0.262 3.478-1.011z"></path>
</svg>
