<!-- Generated by IcoMoon.io -->
<svg version="1.1" xmlns="http://www.w3.org/2000/svg" width="10" height="8" viewBox="0 0 10 8">
<title>price-tags</title>
<path d="M9.625 0h-3c-0.206 0-0.494 0.119-0.64 0.265l-3.72 3.72c-0.146 0.146-0.146 0.384 0 0.53l3.22 3.22c0.146 0.146 0.384 0.146 0.53 0l3.72-3.72c0.146-0.146 0.265-0.434 0.265-0.64v-3c0-0.206-0.169-0.375-0.375-0.375zM7.75 3c-0.414 0-0.75-0.336-0.75-0.75s0.336-0.75 0.75-0.75 0.75 0.336 0.75 0.75-0.336 0.75-0.75 0.75z"></path>
<path d="M1 4.25l4.25-4.25h-0.625c-0.206 0-0.494 0.119-0.64 0.265l-3.72 3.72c-0.146 0.146-0.146 0.384 0 0.53l3.22 3.22c0.146 0.146 0.384 0.146 0.53 0l0.235-0.235-3.25-3.25z"></path>
</svg>
