<!-- Generated by IcoMoon.io -->
<svg version="1.1" xmlns="http://www.w3.org/2000/svg" width="8" height="8" viewBox="0 0 8 8">
<title>profile</title>
<path d="M6.75 0h-6c-0.412 0-0.75 0.338-0.75 0.75v6.5c0 0.412 0.338 0.75 0.75 0.75h6c0.412 0 0.75-0.338 0.75-0.75v-6.5c0-0.412-0.338-0.75-0.75-0.75zM6.5 7h-5.5v-6h5.5v6zM2 4.5h3.5v0.5h-3.5zM2 5.5h3.5v0.5h-3.5zM2.5 2.25c0-0.414 0.336-0.75 0.75-0.75s0.75 0.336 0.75 0.75c0 0.414-0.336 0.75-0.75 0.75s-0.75-0.336-0.75-0.75zM3.75 3h-1c-0.413 0-0.75 0.225-0.75 0.5v0.5h2.5v-0.5c0-0.275-0.338-0.5-0.75-0.5z"></path>
</svg>
