<!-- Generated by IcoMoon.io -->
<svg version="1.1" xmlns="http://www.w3.org/2000/svg" width="8" height="8" viewBox="0 0 8 8">
<title>qrcode</title>
<path d="M2.5 0.5h-2v2h2v-2zM3 0v0 3h-3v-3h3zM1 1h1v1h-1zM7.5 0.5h-2v2h2v-2zM8 0v0 3h-3v-3h3zM6 1h1v1h-1zM2.5 5.5h-2v2h2v-2zM3 5v0 3h-3v-3h3zM1 6h1v1h-1zM3.5 0h0.5v0.5h-0.5zM4 0.5h0.5v0.5h-0.5zM3.5 1h0.5v0.5h-0.5zM4 1.5h0.5v0.5h-0.5zM3.5 2h0.5v0.5h-0.5zM4 2.5h0.5v0.5h-0.5zM3.5 3h0.5v0.5h-0.5zM3.5 4h0.5v0.5h-0.5zM4 4.5h0.5v0.5h-0.5zM3.5 5h0.5v0.5h-0.5zM4 5.5h0.5v0.5h-0.5zM3.5 6h0.5v0.5h-0.5zM4 6.5h0.5v0.5h-0.5zM3.5 7h0.5v0.5h-0.5zM4 7.5h0.5v0.5h-0.5zM7.5 4h0.5v0.5h-0.5zM0.5 4h0.5v0.5h-0.5zM1 3.5h0.5v0.5h-0.5zM0 3.5h0.5v0.5h-0.5zM2 3.5h0.5v0.5h-0.5zM2.5 4h0.5v0.5h-0.5zM3 3.5h0.5v0.5h-0.5zM4.5 4h0.5v0.5h-0.5zM5 3.5h0.5v0.5h-0.5zM5.5 4h0.5v0.5h-0.5zM6 3.5h0.5v0.5h-0.5zM6.5 4h0.5v0.5h-0.5zM7 3.5h0.5v0.5h-0.5zM7.5 5h0.5v0.5h-0.5zM4.5 5h0.5v0.5h-0.5zM5 4.5h0.5v0.5h-0.5zM5.5 5h0.5v0.5h-0.5zM6.5 5h0.5v0.5h-0.5zM7 4.5h0.5v0.5h-0.5zM7.5 6h0.5v0.5h-0.5zM4.5 6h0.5v0.5h-0.5zM5 5.5h0.5v0.5h-0.5zM6 5.5h0.5v0.5h-0.5zM6.5 6h0.5v0.5h-0.5zM7 5.5h0.5v0.5h-0.5zM7.5 7h0.5v0.5h-0.5zM5 6.5h0.5v0.5h-0.5zM5.5 7h0.5v0.5h-0.5zM6 6.5h0.5v0.5h-0.5zM6.5 7h0.5v0.5h-0.5zM5 7.5h0.5v0.5h-0.5zM6 7.5h0.5v0.5h-0.5zM7 7.5h0.5v0.5h-0.5z"></path>
</svg>
