<!-- Generated by IcoMoon.io -->
<svg version="1.1" xmlns="http://www.w3.org/2000/svg" width="8" height="8" viewBox="0 0 8 8">
<title>quotes-right</title>
<path d="M6.25 5c-0.966 0-1.75-0.784-1.75-1.75s0.784-1.75 1.75-1.75 1.75 0.784 1.75 1.75l0.008 0.25c0 1.933-1.567 3.5-3.5 3.5v-1c0.668 0 1.296-0.26 1.768-0.732 0.091-0.091 0.174-0.188 0.249-0.289-0.089 0.014-0.181 0.021-0.274 0.021zM1.75 5c-0.966 0-1.75-0.784-1.75-1.75s0.784-1.75 1.75-1.75 1.75 0.784 1.75 1.75l0.008 0.25c0 1.933-1.567 3.5-3.5 3.5v-1c0.668 0 1.296-0.26 1.768-0.732 0.091-0.091 0.174-0.188 0.249-0.289-0.089 0.014-0.181 0.021-0.274 0.021z"></path>
</svg>
