<!-- Generated by IcoMoon.io -->
<svg version="1.1" xmlns="http://www.w3.org/2000/svg" width="8" height="8" viewBox="0 0 8 8">
<title>reddit</title>
<path d="M2 5c0-0.276 0.224-0.5 0.5-0.5s0.5 0.224 0.5 0.5c0 0.276-0.224 0.5-0.5 0.5s-0.5-0.224-0.5-0.5zM5 5c0-0.276 0.224-0.5 0.5-0.5s0.5 0.224 0.5 0.5c0 0.276-0.224 0.5-0.5 0.5s-0.5-0.224-0.5-0.5zM5.024 6.069c0.129-0.101 0.315-0.079 0.417 0.049s0.079 0.315-0.049 0.417c-0.359 0.282-0.905 0.465-1.392 0.465s-1.033-0.183-1.392-0.465c-0.129-0.101-0.151-0.288-0.049-0.417s0.288-0.151 0.417-0.049c0.206 0.163 0.615 0.338 1.024 0.338s0.818-0.175 1.024-0.338zM8 4c0-0.552-0.448-1-1-1-0.376 0-0.703 0.208-0.874 0.514-0.514-0.281-1.14-0.463-1.822-0.505l0.597-1.34 1.142 0.33c0.103 0.292 0.381 0.501 0.707 0.501 0.414 0 0.75-0.336 0.75-0.75s-0.336-0.75-0.75-0.75c-0.286 0-0.534 0.16-0.661 0.395l-1.273-0.367c-0.142-0.041-0.293 0.029-0.354 0.164l-0.811 1.821c-0.665 0.047-1.275 0.227-1.778 0.502-0.171-0.307-0.498-0.514-0.874-0.514-0.552 0-1 0.448-1 1 0 0.409 0.245 0.76 0.597 0.915-0.063 0.188-0.097 0.384-0.097 0.585 0 1.381 1.567 2.5 3.5 2.5s3.5-1.119 3.5-2.5c0-0.202-0.034-0.397-0.097-0.585 0.351-0.155 0.597-0.506 0.597-0.915zM6.75 1.469c0.155 0 0.281 0.126 0.281 0.281s-0.126 0.281-0.281 0.281-0.281-0.126-0.281-0.281 0.126-0.281 0.281-0.281zM0.5 4c0-0.276 0.224-0.5 0.5-0.5 0.199 0 0.372 0.117 0.452 0.286-0.261 0.198-0.478 0.427-0.638 0.678-0.184-0.074-0.314-0.254-0.314-0.464zM4 7.406c-1.605 0-2.906-0.853-2.906-1.906s1.301-1.906 2.906-1.906c1.605 0 2.906 0.853 2.906 1.906s-1.301 1.906-2.906 1.906zM7.186 4.464c-0.16-0.251-0.377-0.479-0.638-0.678 0.080-0.169 0.253-0.286 0.452-0.286 0.276 0 0.5 0.224 0.5 0.5 0 0.21-0.13 0.39-0.314 0.464z"></path>
</svg>
