<!-- Generated by IcoMoon.io -->
<svg version="1.1" xmlns="http://www.w3.org/2000/svg" width="8" height="8" viewBox="0 0 8 8">
<title>renren</title>
<path d="M3.322 0.083c-1.884 0.317-3.322 1.956-3.322 3.931 0 0.981 0.356 1.88 0.944 2.575 1.395-0.675 2.372-2.203 2.378-3.983v-2.523z"></path>
<path d="M4.678 0.083c1.884 0.317 3.322 1.956 3.322 3.931 0 0.981-0.356 1.88-0.944 2.575-1.395-0.675-2.372-2.203-2.378-3.983v-2.523z"></path>
<path d="M3.986 5.020c-0.248 1.028-0.991 1.906-1.914 2.491 0.569 0.311 1.22 0.489 1.914 0.489s1.345-0.178 1.914-0.489c-0.923-0.584-1.666-1.462-1.914-2.491z"></path>
</svg>
