<!-- Generated by IcoMoon.io -->
<svg version="1.1" xmlns="http://www.w3.org/2000/svg" width="8" height="8" viewBox="0 0 8 8">
<title>rss</title>
<path d="M1.065 5.867c-0.587 0-1.065 0.479-1.065 1.063 0 0.587 0.477 1.061 1.065 1.061 0.59 0 1.066-0.474 1.066-1.061-0-0.584-0.477-1.063-1.066-1.063zM0.001 2.718v1.533c0.998 0 1.937 0.39 2.644 1.098 0.706 0.706 1.096 1.649 1.096 2.651h1.54c-0-2.913-2.369-5.282-5.28-5.282zM0.003 0v1.534c3.561 0 6.459 2.901 6.459 6.466h1.538c0-4.41-3.588-8-7.997-8z"></path>
</svg>
