<!-- Generated by IcoMoon.io -->
<svg version="1.1" xmlns="http://www.w3.org/2000/svg" width="8" height="8" viewBox="0 0 8 8">
<title>rss2</title>
<path d="M7.25 0h-6.5c-0.412 0-0.75 0.338-0.75 0.75v6.5c0 0.412 0.338 0.75 0.75 0.75h6.5c0.412 0 0.75-0.338 0.75-0.75v-6.5c0-0.412-0.338-0.75-0.75-0.75zM2.18 6.494c-0.375 0-0.68-0.302-0.68-0.677 0-0.372 0.305-0.678 0.68-0.678 0.377 0 0.68 0.306 0.68 0.678 0 0.375-0.305 0.677-0.68 0.677zM3.886 6.5c0-0.639-0.248-1.241-0.698-1.691-0.452-0.452-1.050-0.7-1.688-0.7v-0.978c1.856 0 3.369 1.511 3.369 3.369h-0.983zM5.622 6.5c0-2.273-1.848-4.125-4.12-4.125v-0.978c2.813 0 5.102 2.291 5.102 5.103h-0.981z"></path>
</svg>
