<!-- Generated by IcoMoon.io -->
<svg version="1.1" xmlns="http://www.w3.org/2000/svg" width="8" height="8" viewBox="0 0 8 8">
<title>sad2</title>
<path d="M4 0c-2.209 0-4 1.791-4 4s1.791 4 4 4 4-1.791 4-4-1.791-4-4-4zM5.5 2c0.276 0 0.5 0.224 0.5 0.5s-0.224 0.5-0.5 0.5-0.5-0.224-0.5-0.5 0.224-0.5 0.5-0.5zM2.5 2c0.276 0 0.5 0.224 0.5 0.5s-0.224 0.5-0.5 0.5-0.5-0.224-0.5-0.5 0.224-0.5 0.5-0.5zM5.501 6.1c-0.306-0.509-0.864-0.85-1.501-0.85s-1.195 0.341-1.501 0.85l-0.643-0.386c0.437-0.727 1.234-1.214 2.144-1.214s1.707 0.487 2.144 1.214l-0.643 0.386z"></path>
</svg>
