<!-- Generated by IcoMoon.io -->
<svg version="1.1" xmlns="http://www.w3.org/2000/svg" width="8" height="8" viewBox="0 0 8 8">
<title>safari</title>
<path d="M4 0c-2.209 0-4 1.791-4 4s1.791 4 4 4 4-1.791 4-4-1.791-4-4-4zM7.487 3.694l-0.008-0.083c0.002 0.028 0.005 0.055 0.008 0.083zM6.941 2.1l-0.056-0.084c0.019 0.028 0.037 0.056 0.056 0.084zM6.723 1.802l-0.034-0.042c0.013 0.014 0.023 0.028 0.034 0.042zM6.239 1.309l-0.042-0.034c0.016 0.012 0.028 0.023 0.042 0.034zM5.984 1.116l-0.084-0.056c0.028 0.019 0.056 0.038 0.084 0.056zM4.389 0.522l-0.084-0.008c0.028 0.002 0.056 0.005 0.084 0.008zM3.694 0.512l-0.084 0.008c0.028-0.002 0.056-0.005 0.084-0.008zM2.1 1.059l-0.084 0.056c0.028-0.019 0.056-0.038 0.084-0.056zM1.802 1.277l-0.041 0.033c0.014-0.011 0.027-0.022 0.041-0.033zM1.309 1.761l-0.034 0.042c0.012-0.014 0.023-0.028 0.034-0.042zM1.116 2.016l-0.056 0.084c0.019-0.028 0.038-0.056 0.056-0.084zM0.522 3.611l-0.008 0.084c0.002-0.028 0.005-0.056 0.008-0.084zM0.512 4.306l0.008 0.084c-0.002-0.028-0.005-0.056-0.008-0.084zM1.059 5.898l0.056 0.084c-0.019-0.027-0.038-0.055-0.056-0.084zM1.125 5.997l0.623-0.417-0.069-0.105-0.623 0.417c-0.283-0.439-0.469-0.944-0.531-1.487l0.373-0.037-0.012-0.125-0.373 0.037c-0.006-0.072-0.009-0.145-0.011-0.219h0.75v-0.125h-0.75c0.002-0.073 0.005-0.145 0.011-0.219l0.373 0.036 0.012-0.125-0.373-0.036c0.063-0.544 0.25-1.048 0.533-1.487l0.623 0.417 0.069-0.105-0.625-0.414c0.042-0.059 0.084-0.119 0.13-0.175l0.289 0.238 0.080-0.097-0.289-0.238c0.047-0.056 0.097-0.109 0.147-0.163l0.53 0.53 0.089-0.089-0.53-0.53c0.053-0.050 0.106-0.1 0.161-0.147l0.238 0.291 0.097-0.080-0.238-0.289c0.058-0.045 0.116-0.089 0.175-0.131l0.417 0.623 0.105-0.069-0.417-0.623c0.439-0.283 0.944-0.469 1.488-0.531l0.038 0.373 0.125-0.012-0.038-0.373c0.072-0.006 0.145-0.009 0.219-0.011v0.75h0.125v-0.75c0.073 0.002 0.145 0.005 0.219 0.011l-0.036 0.373 0.125 0.012 0.036-0.373c0.544 0.063 1.048 0.25 1.487 0.533l-0.417 0.623 0.105 0.069 0.417-0.623c0.059 0.042 0.119 0.084 0.175 0.13l-0.237 0.289 0.097 0.080 0.237-0.289c0.056 0.047 0.109 0.097 0.162 0.147l-0.2 0.195-2.734 1.823-1.823 2.734-0.195 0.195c-0.050-0.053-0.1-0.106-0.147-0.161l0.289-0.237-0.080-0.097-0.289 0.237c-0.045-0.056-0.087-0.116-0.13-0.175zM1.309 6.239c-0.011-0.014-0.022-0.027-0.033-0.041l0.033 0.041zM1.761 6.691l0.041 0.033c-0.014-0.011-0.027-0.022-0.041-0.033zM2.016 6.883l0.084 0.056c-0.028-0.017-0.056-0.036-0.084-0.056zM3.611 7.478l0.084 0.008c-0.028-0.002-0.056-0.005-0.084-0.008zM4.306 7.487l0.083-0.008c-0.028 0.002-0.055 0.005-0.083 0.008zM5.9 6.941l0.084-0.056c-0.028 0.019-0.056 0.037-0.084 0.056zM6.198 6.723l0.042-0.034c-0.014 0.013-0.028 0.023-0.042 0.034zM6.472 6.478l0.006-0.006c-0.002 0.002-0.005 0.005-0.006 0.006zM6.691 6.239l0.034-0.042c-0.013 0.014-0.023 0.028-0.034 0.042zM6.745 6.172l-0.289-0.237-0.080 0.097 0.289 0.237c-0.047 0.056-0.097 0.109-0.147 0.162l-0.53-0.53-0.089 0.089 0.53 0.53c-0.053 0.050-0.106 0.1-0.161 0.147l-0.237-0.291-0.097 0.080 0.237 0.289c-0.058 0.045-0.116 0.089-0.175 0.131l-0.417-0.623-0.105 0.069 0.417 0.623c-0.439 0.283-0.944 0.469-1.487 0.531l-0.037-0.373-0.125 0.013 0.037 0.373c-0.072 0.006-0.145 0.009-0.219 0.011v-0.75h-0.125v0.75c-0.073-0.002-0.145-0.005-0.219-0.011l0.036-0.373-0.125-0.013-0.036 0.373c-0.544-0.063-1.048-0.25-1.487-0.533l0.417-0.623-0.105-0.069-0.414 0.623c-0.059-0.042-0.119-0.084-0.175-0.13l0.238-0.289-0.097-0.080-0.238 0.289c-0.056-0.047-0.109-0.097-0.163-0.147l0.197-0.195 2.734-1.823 1.823-2.734 0.195-0.195c0.050 0.053 0.1 0.106 0.147 0.161l-0.289 0.238 0.080 0.097 0.289-0.238c0.045 0.058 0.089 0.116 0.131 0.175l-0.623 0.417 0.069 0.105 0.623-0.417c0.283 0.439 0.469 0.944 0.531 1.487l-0.373 0.038 0.013 0.125 0.373-0.038c0.006 0.072 0.009 0.145 0.011 0.219h-0.75v0.125h0.75c-0.002 0.073-0.005 0.145-0.011 0.219l-0.373-0.036-0.013 0.125 0.373 0.036c-0.063 0.544-0.25 1.048-0.533 1.487l-0.623-0.417-0.069 0.105 0.623 0.417c-0.041 0.056-0.084 0.114-0.13 0.172zM7.487 4.305c-0.003 0.028-0.005 0.056-0.008 0.084l0.008-0.084zM6.941 5.9c-0.019 0.028-0.037 0.056-0.056 0.084l0.056-0.084z"></path>
<path d="M3.379 0.555l0.146 0.736-0.123 0.024-0.146-0.736 0.123-0.024z"></path>
<path d="M4.622 7.445l-0.146-0.736 0.123-0.024 0.146 0.736-0.123 0.024z"></path>
<path d="M3.044 0.632l0.109 0.359-0.12 0.036-0.109-0.359 0.12-0.036z"></path>
<path d="M4.957 7.366l-0.109-0.359 0.12-0.036 0.109 0.359-0.12 0.036z"></path>
<path d="M2.719 0.743l0.287 0.693-0.115 0.048-0.287-0.693 0.115-0.048z"></path>
<path d="M5.282 7.258l-0.287-0.693 0.115-0.048 0.287 0.693-0.115 0.048z"></path>
<path d="M2.294 0.943l0.11-0.059 0.177 0.331-0.11 0.059-0.177-0.331z"></path>
<path d="M5.704 7.057l-0.11 0.059-0.177-0.331 0.11-0.059 0.177 0.331z"></path>
<path d="M0.942 2.296l0.331 0.177-0.059 0.11-0.331-0.177 0.059-0.11z"></path>
<path d="M7.057 5.705l-0.331-0.177 0.059-0.11 0.331 0.177-0.059 0.11z"></path>
<path d="M1.436 3.005l-0.693-0.287 0.048-0.115 0.693 0.287-0.048 0.115z"></path>
<path d="M6.565 4.995l0.693 0.287-0.048 0.115-0.693-0.287 0.048-0.115z"></path>
<path d="M0.668 2.925l0.359 0.109-0.036 0.12-0.359-0.109 0.036-0.12z"></path>
<path d="M7.331 5.076l-0.359-0.109 0.036-0.12 0.359 0.109-0.036 0.12z"></path>
<path d="M0.579 3.256l0.736 0.146-0.024 0.123-0.736-0.146 0.024-0.123z"></path>
<path d="M7.42 4.744l-0.736-0.146 0.024-0.123 0.736 0.146-0.024 0.123z"></path>
<path d="M0.554 4.621l0.736-0.146 0.024 0.123-0.736 0.146-0.024-0.123z"></path>
<path d="M7.444 3.378l-0.736 0.146-0.024-0.123 0.736-0.146 0.024 0.123z"></path>
<path d="M0.633 4.957l0.359-0.109 0.036 0.12-0.359 0.109-0.036-0.12z"></path>
<path d="M7.367 3.045l-0.359 0.109-0.036-0.12 0.359-0.109 0.036 0.12z"></path>
<path d="M0.79 5.398l-0.048-0.115 0.693-0.287 0.048 0.115-0.693 0.287z"></path>
<path d="M7.209 2.603l0.048 0.115-0.693 0.287-0.048-0.115 0.693-0.287z"></path>
<path d="M0.944 5.705l-0.059-0.11 0.331-0.177 0.059 0.11-0.331 0.177z"></path>
<path d="M7.058 2.295l0.059 0.11-0.331 0.177-0.059-0.11 0.331-0.177z"></path>
<path d="M2.405 7.116l-0.11-0.059 0.177-0.331 0.11 0.059-0.177 0.331z"></path>
<path d="M5.594 0.883l0.11 0.059-0.177 0.331-0.11-0.059 0.177-0.331z"></path>
<path d="M2.604 7.209l0.287-0.693 0.115 0.048-0.287 0.693-0.115-0.048z"></path>
<path d="M5.398 0.79l-0.287 0.693-0.115-0.048 0.287-0.693 0.115 0.048z"></path>
<path d="M3.044 7.367l-0.12-0.036 0.109-0.359 0.12 0.036-0.109 0.359z"></path>
<path d="M4.956 0.632l0.12 0.036-0.109 0.359-0.12-0.036 0.109-0.359z"></path>
<path d="M3.379 7.444l-0.123-0.024 0.146-0.736 0.123 0.024-0.146 0.736z"></path>
<path d="M4.621 0.554l0.123 0.024-0.146 0.736-0.123-0.024 0.146-0.736z"></path>
</svg>
