<!-- Generated by IcoMoon.io -->
<svg version="1.1" xmlns="http://www.w3.org/2000/svg" width="8" height="8" viewBox="0 0 8 8">
<title>scissors</title>
<path d="M7.139 5.31c-0.521-0.814-1.415-1.172-1.996-0.8-0.050 0.032-0.096 0.069-0.139 0.109l-0.621-0.971 1.433-2.25c0.117-0.217 0.161-0.475 0.104-0.734-0.054-0.248-0.192-0.457-0.376-0.603l-0.096-0.061-1.699 2.657-1.699-2.657-0.096 0.061c-0.184 0.147-0.321 0.355-0.376 0.603-0.057 0.259-0.014 0.518 0.104 0.734l1.433 2.25-0.621 0.971c-0.042-0.040-0.088-0.077-0.139-0.109-0.582-0.372-1.475-0.014-1.996 0.8s-0.472 1.776 0.11 2.148c0.581 0.372 1.475 0.014 1.996-0.8l1.283-2.015 1.284 2.015c0.521 0.814 1.415 1.172 1.996 0.8s0.631-1.334 0.11-2.148zM1.835 6.253c-0.235 0.366-0.535 0.545-0.739 0.589-0 0-0 0-0 0-0.066 0.015-0.159 0.024-0.221-0.017-0.070-0.044-0.116-0.162-0.123-0.315-0.013-0.247 0.075-0.538 0.241-0.797 0.234-0.366 0.535-0.545 0.739-0.589 0.066-0.015 0.159-0.024 0.221 0.017 0.070 0.044 0.116 0.162 0.123 0.315 0.013 0.247-0.075 0.538-0.241 0.797zM3.75 4c-0.138 0-0.25-0.112-0.25-0.25s0.112-0.25 0.25-0.25 0.25 0.112 0.25 0.25-0.112 0.25-0.25 0.25zM6.749 6.511c-0.008 0.153-0.054 0.27-0.123 0.315-0.063 0.040-0.155 0.031-0.221 0.017 0 0 0 0-0 0-0.203-0.045-0.504-0.223-0.739-0.589-0.166-0.259-0.254-0.55-0.241-0.797 0.008-0.153 0.054-0.27 0.123-0.315 0.063-0.040 0.155-0.031 0.221-0.017 0.203 0.045 0.504 0.223 0.739 0.589 0.166 0.259 0.254 0.55 0.241 0.797z"></path>
</svg>
