<!-- Generated by IcoMoon.io -->
<svg version="1.1" xmlns="http://www.w3.org/2000/svg" width="8" height="8" viewBox="0 0 8 8">
<title>section</title>
<path d="M3.875 8c-0.386 0-0.712-0.113-0.97-0.335-0.26-0.224-0.391-0.485-0.391-0.776 0-0.142 0.052-0.264 0.153-0.363 0.103-0.101 0.233-0.154 0.374-0.154s0.267 0.050 0.366 0.145c0.097 0.094 0.147 0.217 0.147 0.368 0 0.088-0.014 0.186-0.043 0.29-0.028 0.103-0.034 0.156-0.034 0.182 0 0.029 0.007 0.063 0.061 0.1 0.1 0.069 0.219 0.102 0.366 0.102 0.176 0 0.334-0.061 0.481-0.188 0.145-0.125 0.216-0.252 0.216-0.391 0-0.154-0.041-0.288-0.126-0.408-0.143-0.201-0.413-0.437-0.802-0.701-0.624-0.418-1.040-0.779-1.27-1.106-0.179-0.255-0.269-0.53-0.269-0.818 0-0.29 0.095-0.578 0.282-0.856 0.16-0.239 0.397-0.454 0.705-0.642-0.165-0.177-0.288-0.344-0.368-0.498-0.101-0.193-0.152-0.394-0.152-0.595 0-0.374 0.148-0.697 0.439-0.96s0.655-0.397 1.081-0.397c0.391 0 0.72 0.11 0.978 0.327 0.26 0.219 0.392 0.476 0.392 0.762 0 0.146-0.055 0.276-0.162 0.388l-0.002 0.002c-0.062 0.062-0.177 0.136-0.368 0.136-0.15 0-0.281-0.049-0.379-0.142s-0.148-0.202-0.148-0.328c0-0.054 0.013-0.136 0.042-0.258 0.014-0.058 0.021-0.11 0.021-0.158 0-0.081-0.029-0.143-0.092-0.195-0.065-0.054-0.157-0.080-0.282-0.080-0.194 0-0.354 0.059-0.488 0.181s-0.2 0.266-0.2 0.441c0 0.157 0.036 0.287 0.106 0.386 0.134 0.187 0.366 0.389 0.689 0.6 0.658 0.426 1.116 0.818 1.363 1.163 0.182 0.259 0.275 0.534 0.275 0.819 0 0.286-0.093 0.574-0.276 0.857-0.158 0.244-0.396 0.463-0.71 0.654 0.173 0.183 0.295 0.344 0.372 0.489 0.094 0.179 0.142 0.375 0.142 0.582 0 0.388-0.148 0.718-0.439 0.98s-0.655 0.395-1.080 0.395zM3.488 2.784c-0.377 0.226-0.56 0.486-0.56 0.792 0 0.178 0.051 0.337 0.155 0.487 0.156 0.218 0.463 0.485 0.913 0.791 0.19 0.13 0.362 0.256 0.512 0.375 0.383-0.231 0.57-0.487 0.57-0.783 0-0.161-0.064-0.334-0.189-0.515-0.131-0.189-0.413-0.436-0.837-0.734-0.221-0.153-0.411-0.292-0.564-0.414z"></path>
</svg>
