<!-- Generated by IcoMoon.io -->
<svg version="1.1" xmlns="http://www.w3.org/2000/svg" width="8" height="8" viewBox="0 0 8 8">
<title>share2</title>
<path d="M6.75 5.5c-0.353 0-0.671 0.146-0.899 0.381l-3.367-1.684c0.010-0.064 0.016-0.131 0.016-0.198s-0.005-0.133-0.016-0.198l3.367-1.684c0.227 0.235 0.546 0.381 0.899 0.381 0.69 0 1.25-0.56 1.25-1.25s-0.56-1.25-1.25-1.25-1.25 0.56-1.25 1.25c0 0.067 0.005 0.133 0.016 0.198l-3.367 1.684c-0.227-0.235-0.546-0.381-0.899-0.381-0.69 0-1.25 0.56-1.25 1.25s0.56 1.25 1.25 1.25c0.353 0 0.671-0.146 0.899-0.381l3.367 1.684c-0.010 0.064-0.016 0.13-0.016 0.198 0 0.69 0.56 1.25 1.25 1.25s1.25-0.56 1.25-1.25c0-0.69-0.56-1.25-1.25-1.25z"></path>
</svg>
