<!-- Generated by IcoMoon.io -->
<svg version="1.1" xmlns="http://www.w3.org/2000/svg" width="8" height="8" viewBox="0 0 8 8">
<title>shift</title>
<path d="M5.25 7h-2.5c-0.138 0-0.25-0.112-0.25-0.25v-2.75h-1c-0.101 0-0.192-0.061-0.231-0.154s-0.017-0.201 0.054-0.272l2.5-2.5c0.098-0.098 0.256-0.098 0.354 0l2.5 2.5c0.072 0.071 0.093 0.179 0.054 0.272s-0.13 0.154-0.231 0.154h-1v2.75c0 0.138-0.112 0.25-0.25 0.25zM3 6.5h2v-2.75c0-0.138 0.112-0.25 0.25-0.25h0.646l-1.896-1.896-1.896 1.896h0.646c0.138 0 0.25 0.112 0.25 0.25v2.75z"></path>
</svg>
