<!-- Generated by IcoMoon.io -->
<svg version="1.1" xmlns="http://www.w3.org/2000/svg" width="8" height="8" viewBox="0 0 8 8">
<title>shocked</title>
<path d="M4 8c2.209 0 4-1.791 4-4s-1.791-4-4-4-4 1.791-4 4 1.791 4 4 4zM4 0.75c1.795 0 3.25 1.455 3.25 3.25s-1.455 3.25-3.25 3.25-3.25-1.455-3.25-3.25 1.455-3.25 3.25-3.25zM3 5.5c0-0.552 0.448-1 1-1s1 0.448 1 1c0 0.552-0.448 1-1 1s-1-0.448-1-1zM5 2.75c0-0.414 0.224-0.75 0.5-0.75s0.5 0.336 0.5 0.75c0 0.414-0.224 0.75-0.5 0.75s-0.5-0.336-0.5-0.75zM2 2.75c0-0.414 0.224-0.75 0.5-0.75s0.5 0.336 0.5 0.75c0 0.414-0.224 0.75-0.5 0.75s-0.5-0.336-0.5-0.75z"></path>
</svg>
