<!-- Generated by IcoMoon.io -->
<svg version="1.1" xmlns="http://www.w3.org/2000/svg" width="8" height="8" viewBox="0 0 8 8">
<title>shuffle</title>
<path d="M6 5.5h-0.793l-1.25-1.25 1.25-1.25h0.793v1.25l1.75-1.75-1.75-1.75v1.25h-1c-0.133 0-0.26 0.053-0.354 0.146l-1.396 1.396-1.396-1.396c-0.094-0.094-0.221-0.146-0.354-0.146h-1.5v1h1.293l1.25 1.25-1.25 1.25h-1.293v1h1.5c0.133 0 0.26-0.053 0.354-0.146l1.396-1.396 1.396 1.396c0.094 0.094 0.221 0.146 0.354 0.146h1v1.25l1.75-1.75-1.75-1.75v1.25z"></path>
</svg>
