<!-- Generated by IcoMoon.io -->
<svg version="1.1" xmlns="http://www.w3.org/2000/svg" width="8" height="8" viewBox="0 0 8 8">
<title>sina-weibo</title>
<path d="M3.361 7.016c-1.325 0.131-2.469-0.469-2.555-1.338-0.086-0.87 0.919-1.68 2.242-1.811 1.325-0.131 2.469 0.469 2.553 1.337 0.088 0.87-0.917 1.681-2.241 1.811zM6.009 4.13c-0.112-0.034-0.191-0.056-0.131-0.205 0.128-0.322 0.141-0.598 0.002-0.797-0.259-0.37-0.97-0.352-1.784-0.009 0 0-0.256 0.111-0.191-0.091 0.125-0.403 0.106-0.739-0.089-0.934-0.442-0.442-1.617 0.017-2.625 1.025-0.753 0.752-1.191 1.553-1.191 2.245 0 1.322 1.697 2.127 3.356 2.127 2.175 0 3.623-1.264 3.623-2.267 0-0.608-0.511-0.952-0.97-1.094z"></path>
<path d="M7.455 1.708c-0.525-0.583-1.3-0.805-2.016-0.653v0c-0.166 0.036-0.27 0.198-0.234 0.363 0.036 0.166 0.197 0.27 0.362 0.234 0.509-0.108 1.059 0.050 1.433 0.464s0.475 0.978 0.314 1.472v0c-0.052 0.161 0.036 0.333 0.197 0.386 0.161 0.052 0.333-0.036 0.386-0.197v-0.002c0.225-0.691 0.083-1.484-0.442-2.067z"></path>
<path d="M6.647 2.438c-0.256-0.284-0.634-0.392-0.981-0.317-0.142 0.030-0.233 0.172-0.203 0.314 0.031 0.142 0.172 0.233 0.313 0.202v0c0.17-0.036 0.355 0.017 0.48 0.155 0.125 0.139 0.159 0.328 0.105 0.494v0c-0.044 0.138 0.031 0.288 0.17 0.333 0.139 0.044 0.287-0.031 0.333-0.17 0.109-0.339 0.041-0.727-0.216-1.009z"></path>
<path d="M3.434 5.442c-0.047 0.080-0.148 0.117-0.228 0.084-0.080-0.031-0.103-0.122-0.058-0.198 0.047-0.077 0.145-0.114 0.223-0.084 0.078 0.028 0.106 0.117 0.063 0.198zM3.011 5.983c-0.128 0.205-0.403 0.294-0.609 0.2-0.203-0.092-0.264-0.33-0.136-0.53 0.127-0.198 0.392-0.287 0.597-0.202 0.208 0.089 0.275 0.325 0.148 0.531zM3.492 4.536c-0.63-0.164-1.342 0.15-1.616 0.705-0.28 0.566-0.009 1.195 0.627 1.402 0.659 0.213 1.438-0.114 1.708-0.723 0.267-0.598-0.066-1.212-0.719-1.383z"></path>
</svg>
