<!-- Generated by IcoMoon.io -->
<svg version="1.1" xmlns="http://www.w3.org/2000/svg" width="8" height="8" viewBox="0 0 8 8">
<title>skype</title>
<path d="M3.325 0.292c-0.013-0.008-0.027-0.014-0.039-0.020-0.014 0.003-0.027 0.005-0.041 0.008l0.080 0.013z"></path>
<path d="M0.287 3.289c-0.003 0.014-0.005 0.028-0.006 0.041 0.008 0.013 0.013 0.025 0.020 0.038l-0.014-0.078z"></path>
<path d="M7.709 4.708c0.003-0.014 0.005-0.028 0.008-0.042-0.008-0.013-0.013-0.025-0.020-0.037l0.013 0.080z"></path>
<path d="M4.625 7.68c0.013 0.008 0.027 0.014 0.039 0.020 0.014-0.003 0.028-0.005 0.042-0.006l-0.081-0.014z"></path>
<path d="M7.717 4.666c-0.003 0.014-0.005 0.028-0.008 0.042l-0.014-0.081c0.008 0.014 0.014 0.027 0.022 0.039 0.041-0.225 0.063-0.455 0.063-0.684 0-0.509-0.1-1.005-0.297-1.47-0.191-0.45-0.463-0.855-0.809-1.202s-0.752-0.619-1.2-0.809c-0.466-0.197-0.961-0.297-1.47-0.297-0.241 0-0.481 0.022-0.716 0.067 0 0-0.002 0-0.002 0 0.013 0.006 0.027 0.013 0.039 0.020l-0.080-0.013c0.014-0.003 0.027-0.005 0.041-0.008-0.322-0.17-0.683-0.263-1.048-0.263-0.597 0-1.159 0.233-1.581 0.655s-0.655 0.984-0.655 1.581c0 0.38 0.098 0.755 0.281 1.084 0.003-0.014 0.005-0.028 0.006-0.041l0.014 0.080c-0.008-0.013-0.014-0.025-0.020-0.038-0.038 0.214-0.056 0.433-0.056 0.652 0 0.509 0.1 1.005 0.297 1.47 0.191 0.45 0.463 0.853 0.809 1.2s0.752 0.619 1.202 0.809c0.466 0.197 0.961 0.297 1.47 0.297 0.222 0 0.444-0.020 0.661-0.059-0.013-0.008-0.025-0.014-0.039-0.020l0.081 0.014c-0.014 0.003-0.028 0.005-0.042 0.006 0.334 0.189 0.714 0.291 1.1 0.291 0.597 0 1.159-0.233 1.581-0.655s0.655-0.984 0.655-1.581c-0.002-0.38-0.1-0.755-0.284-1.087zM4.017 6.295c-1.342 0-1.942-0.659-1.942-1.155 0-0.253 0.188-0.431 0.445-0.431 0.575 0 0.425 0.825 1.497 0.825 0.548 0 0.852-0.298 0.852-0.603 0-0.183-0.091-0.386-0.452-0.475l-1.194-0.298c-0.961-0.241-1.136-0.761-1.136-1.25 0-1.014 0.955-1.395 1.852-1.395 0.827 0 1.8 0.456 1.8 1.066 0 0.261-0.227 0.413-0.484 0.413-0.491 0-0.4-0.678-1.388-0.678-0.491 0-0.761 0.222-0.761 0.539s0.388 0.419 0.723 0.495l0.884 0.197c0.967 0.216 1.213 0.781 1.213 1.313 0 0.823-0.633 1.439-1.909 1.439z"></path>
</svg>
