<!-- Generated by IcoMoon.io -->
<svg version="1.1" xmlns="http://www.w3.org/2000/svg" width="8" height="8" viewBox="0 0 8 8">
<title>sleepy</title>
<path d="M4 8c2.209 0 4-1.791 4-4s-1.791-4-4-4-4 1.791-4 4 1.791 4 4 4zM4 0.75c1.795 0 3.25 1.455 3.25 3.25s-1.455 3.25-3.25 3.25-3.25-1.455-3.25-3.25 1.455-3.25 3.25-3.25z"></path>
<path d="M5 5.25c0 0.69-0.448 1.25-1 1.25s-1-0.56-1-1.25c0-0.69 0.448-1.25 1-1.25s1 0.56 1 1.25z"></path>
<path d="M3.25 2.656c-0.064 0-0.128-0.024-0.177-0.073-0.151-0.151-0.495-0.151-0.646 0-0.098 0.098-0.256 0.098-0.354 0s-0.098-0.256 0-0.354c0.348-0.348 1.006-0.348 1.354 0 0.098 0.098 0.098 0.256 0 0.354-0.049 0.049-0.113 0.073-0.177 0.073z"></path>
<path d="M5.75 2.656c-0.064 0-0.128-0.024-0.177-0.073-0.151-0.151-0.495-0.151-0.646 0-0.098 0.098-0.256 0.098-0.354 0s-0.098-0.256 0-0.354c0.348-0.348 1.006-0.348 1.354 0 0.098 0.098 0.098 0.256 0 0.354-0.049 0.049-0.113 0.073-0.177 0.073z"></path>
</svg>
