<!-- Generated by IcoMoon.io -->
<svg version="1.1" xmlns="http://www.w3.org/2000/svg" width="8" height="8" viewBox="0 0 8 8">
<title>sleepy2</title>
<path d="M4 0c-2.209 0-4 1.791-4 4s1.791 4 4 4 4-1.791 4-4-1.791-4-4-4zM2.427 2.583c-0.098 0.098-0.256 0.098-0.354 0s-0.098-0.256 0-0.354c0.348-0.348 1.006-0.348 1.354 0 0.098 0.098 0.098 0.256 0 0.354-0.049 0.049-0.113 0.073-0.177 0.073s-0.128-0.024-0.177-0.073c-0.151-0.151-0.495-0.151-0.646 0zM4 6.5c-0.552 0-1-0.56-1-1.25s0.448-1.25 1-1.25 1 0.56 1 1.25-0.448 1.25-1 1.25zM5.927 2.583c-0.049 0.049-0.113 0.073-0.177 0.073s-0.128-0.024-0.177-0.073c-0.151-0.151-0.495-0.151-0.646 0-0.098 0.098-0.256 0.098-0.354 0s-0.098-0.256 0-0.354c0.348-0.348 1.006-0.348 1.354 0 0.098 0.098 0.098 0.256 0 0.354z"></path>
</svg>
