<!-- Generated by IcoMoon.io -->
<svg version="1.1" xmlns="http://www.w3.org/2000/svg" width="8" height="8" viewBox="0 0 8 8">
<title>sort-numberic-desc</title>
<path d="M2.5 6v-6h-1v6h-1.25l1.75 1.75 1.75-1.75h-1.25z"></path>
<path d="M6.75 8c-0.138 0-0.25-0.112-0.25-0.25v-2.75h-0.25c-0.138 0-0.25-0.112-0.25-0.25s0.112-0.25 0.25-0.25h0.5c0.138 0 0.25 0.112 0.25 0.25v3c0 0.138-0.112 0.25-0.25 0.25z"></path>
<path d="M7.25 0h-1.5c-0.138 0-0.25 0.112-0.25 0.25v1.5c0 0.138 0.112 0.25 0.25 0.25h1.25v1h-1.25c-0.138 0-0.25 0.112-0.25 0.25s0.112 0.25 0.25 0.25h1.5c0.138 0 0.25-0.112 0.25-0.25v-3c0-0.138-0.112-0.25-0.25-0.25zM6 0.5h1v1h-1v-1z"></path>
</svg>
