<!-- Generated by IcoMoon.io -->
<svg version="1.1" xmlns="http://www.w3.org/2000/svg" width="8" height="8" viewBox="0 0 8 8">
<title>sort-alpha-desc</title>
<path d="M2.5 6v-6h-1v6h-1.25l1.75 1.75 1.75-1.75h-1.25z"></path>
<path d="M7.25 3.5h-2c-0.092 0-0.177-0.051-0.22-0.132s-0.039-0.18 0.012-0.257l1.741-2.611h-1.533c-0.138 0-0.25-0.112-0.25-0.25s0.112-0.25 0.25-0.25h2c0.092 0 0.177 0.051 0.22 0.132s0.039 0.18-0.012 0.257l-1.741 2.611h1.533c0.138 0 0.25 0.112 0.25 0.25s-0.112 0.25-0.25 0.25z"></path>
<path d="M7.974 7.638l-1.5-3c-0.042-0.085-0.129-0.138-0.224-0.138s-0.181 0.053-0.224 0.138l-1.5 3c-0.062 0.123-0.012 0.274 0.112 0.335 0.036 0.018 0.074 0.026 0.112 0.026 0.092 0 0.18-0.051 0.224-0.138l0.431-0.862h1.691l0.431 0.862c0.062 0.123 0.212 0.174 0.335 0.112s0.174-0.212 0.112-0.335zM5.655 6.5l0.595-1.191 0.596 1.191h-1.191z"></path>
</svg>
