<!-- Generated by IcoMoon.io -->
<svg version="1.1" xmlns="http://www.w3.org/2000/svg" width="8" height="8" viewBox="0 0 8 8">
<title>soundcloud</title>
<path d="M6.968 4.017c-0.141 0-0.276 0.027-0.399 0.077-0.082-0.893-0.862-1.594-1.813-1.594-0.233 0-0.458 0.044-0.659 0.118-0.078 0.029-0.098 0.059-0.098 0.117v3.146c0 0.061 0.049 0.111 0.11 0.117 0.003 0 2.84 0.002 2.859 0.002 0.57 0 1.031-0.444 1.031-0.991s-0.462-0.991-1.032-0.991zM3.125 6h0.25l0.125-1.752-0.125-1.748h-0.25l-0.125 1.748zM2.375 6h-0.25l-0.125-1.271 0.125-1.229h0.25l0.125 1.25zM1.125 6h0.25l0.125-1-0.125-1h-0.25l-0.125 1zM0.125 5.5h0.25l0.125-0.5-0.125-0.5h-0.25l-0.125 0.5z"></path>
</svg>
