<!-- Generated by IcoMoon.io -->
<svg version="1.1" xmlns="http://www.w3.org/2000/svg" width="8" height="8" viewBox="0 0 8 8">
<title>soundcloud2</title>
<path d="M7.25 0h-6.5c-0.412 0-0.75 0.338-0.75 0.75v6.5c0 0.412 0.338 0.75 0.75 0.75h6.5c0.412 0 0.75-0.338 0.75-0.75v-6.5c0-0.412-0.338-0.75-0.75-0.75zM1.375 5.5h-0.25l-0.125-0.75 0.125-0.75h0.25l0.125 0.75-0.125 0.75zM2.375 5.5h-0.25l-0.125-1 0.125-1h0.25l0.125 1-0.125 1zM3.375 5.5h-0.25l-0.125-1.5 0.125-1.5h0.25l0.125 1.5-0.125 1.5zM6.447 5.5c-0.016 0-2.353-0.002-2.355-0.002-0.050-0.005-0.091-0.048-0.092-0.1v-2.697c0-0.050 0.017-0.075 0.081-0.1 0.166-0.064 0.352-0.102 0.544-0.102 0.783 0 1.425 0.6 1.494 1.367 0.102-0.042 0.213-0.066 0.328-0.066 0.469 0 0.85 0.381 0.85 0.85s-0.381 0.848-0.85 0.848z"></path>
</svg>
