<!-- Generated by IcoMoon.io -->
<svg version="1.1" xmlns="http://www.w3.org/2000/svg" width="8" height="8" viewBox="0 0 8 8">
<title>spell-check</title>
<path d="M1 2h1v1.5h0.5v-3c0-0.275-0.225-0.5-0.5-0.5h-1c-0.275 0-0.5 0.225-0.5 0.5v3h0.5v-1.5zM1 0.5h1v1h-1v-1zM7.5 0.5v-0.5h-1.5c-0.275 0-0.5 0.225-0.5 0.5v2.5c0 0.275 0.225 0.5 0.5 0.5h1.5v-0.5h-1.5v-2.5h1.5zM5 1.25v-0.75c0-0.275-0.225-0.5-0.5-0.5h-1.5v3.5h1.5c0.275 0 0.5-0.225 0.5-0.5v-0.75c0-0.275-0.069-0.5-0.344-0.5 0.275 0 0.344-0.225 0.344-0.5zM4.5 3h-1v-1h1v1zM4.5 1.5h-1v-1h1v1zM6.5 4.5l-3.25 3.5-1.75-2.25 0.641-0.547 1.109 1.156 2.75-2.359z"></path>
</svg>
