<!-- Generated by IcoMoon.io -->
<svg version="1.1" xmlns="http://www.w3.org/2000/svg" width="8" height="8" viewBox="0 0 8 8">
<title>sphere</title>
<path d="M3.75 0.5c-2.071 0-3.75 1.679-3.75 3.75s1.679 3.75 3.75 3.75c2.071 0 3.75-1.679 3.75-3.75s-1.679-3.75-3.75-3.75zM5.872 5.5c0.067-0.316 0.109-0.652 0.123-1h0.996c-0.026 0.345-0.106 0.681-0.24 1h-0.879zM1.628 3c-0.067 0.316-0.109 0.651-0.123 1h-0.996c0.026-0.345 0.106-0.681 0.24-1h0.879zM5.36 3c0.075 0.32 0.12 0.655 0.135 1h-1.495v-1h1.36zM4 2.5v-1.464c0.114 0.033 0.227 0.089 0.338 0.167 0.208 0.146 0.406 0.372 0.575 0.652 0.116 0.194 0.217 0.409 0.301 0.644h-1.213zM2.588 1.856c0.168-0.28 0.367-0.506 0.575-0.652 0.111-0.078 0.224-0.134 0.338-0.167v1.464h-1.213c0.084-0.235 0.184-0.451 0.301-0.644zM3.5 3v1h-1.495c0.015-0.345 0.060-0.68 0.135-1h1.36zM0.749 5.5c-0.133-0.319-0.214-0.655-0.24-1h0.996c0.014 0.348 0.056 0.684 0.123 1h-0.879zM2.005 4.5h1.495v1h-1.36c-0.075-0.32-0.12-0.655-0.135-1zM3.5 6v1.464c-0.114-0.033-0.227-0.089-0.338-0.167-0.208-0.146-0.406-0.372-0.575-0.652-0.116-0.194-0.217-0.41-0.301-0.644h1.213zM4.912 6.644c-0.168 0.28-0.367 0.506-0.575 0.652-0.111 0.078-0.224 0.134-0.338 0.167v-1.464h1.213c-0.084 0.235-0.184 0.451-0.301 0.644zM4 5.5v-1h1.495c-0.015 0.345-0.060 0.68-0.135 1h-1.36zM5.995 4c-0.014-0.349-0.056-0.684-0.123-1h0.879c0.133 0.319 0.214 0.655 0.24 1h-0.996zM6.49 2.5h-0.749c-0.146-0.459-0.347-0.862-0.588-1.183 0.332 0.159 0.633 0.372 0.896 0.635 0.168 0.168 0.315 0.351 0.441 0.548zM1.452 1.952c0.263-0.263 0.564-0.476 0.896-0.635-0.242 0.321-0.443 0.724-0.588 1.183h-0.749c0.126-0.197 0.274-0.38 0.441-0.548zM1.010 6h0.749c0.146 0.459 0.347 0.862 0.588 1.183-0.332-0.159-0.633-0.372-0.896-0.635-0.168-0.168-0.315-0.351-0.441-0.548zM6.048 6.548c-0.263 0.263-0.564 0.476-0.896 0.635 0.242-0.321 0.443-0.724 0.588-1.183h0.749c-0.126 0.197-0.274 0.38-0.441 0.548z"></path>
</svg>
