<!-- Generated by IcoMoon.io -->
<svg version="1.1" xmlns="http://www.w3.org/2000/svg" width="8" height="8" viewBox="0 0 8 8">
<title>spinner2</title>
<path d="M8 4c-0.010-0.522-0.123-1.043-0.333-1.519s-0.511-0.908-0.883-1.265c-0.372-0.357-0.812-0.639-1.289-0.825s-0.989-0.276-1.495-0.265c-0.506 0.010-1.010 0.12-1.471 0.323s-0.879 0.496-1.224 0.856c-0.345 0.36-0.618 0.787-0.798 1.248s-0.267 0.957-0.256 1.447c0.010 0.49 0.117 0.978 0.314 1.423s0.48 0.85 0.829 1.184c0.349 0.334 0.761 0.598 1.208 0.771s0.925 0.257 1.4 0.246c0.474-0.010 0.945-0.114 1.376-0.304s0.821-0.465 1.143-0.802c0.323-0.337 0.577-0.736 0.744-1.167 0.102-0.261 0.171-0.534 0.207-0.811 0.010 0.001 0.020 0.001 0.029 0.001 0.276 0 0.5-0.224 0.5-0.5 0-0.014-0.001-0.028-0.002-0.042h0.002zM7.206 5.328c-0.183 0.416-0.449 0.792-0.775 1.103s-0.711 0.556-1.127 0.717c-0.416 0.162-0.862 0.238-1.304 0.227s-0.88-0.107-1.28-0.285c-0.4-0.177-0.763-0.434-1.062-0.748s-0.535-0.686-0.69-1.086c-0.155-0.401-0.228-0.83-0.218-1.256s0.104-0.847 0.275-1.232c0.171-0.385 0.418-0.734 0.721-1.022s0.66-0.515 1.046-0.663c0.385-0.149 0.798-0.219 1.208-0.208s0.814 0.101 1.184 0.266c0.37 0.164 0.705 0.402 0.981 0.694s0.494 0.635 0.636 1.005c0.143 0.37 0.209 0.766 0.199 1.16h0.002c-0.001 0.014-0.002 0.028-0.002 0.042 0 0.258 0.195 0.47 0.446 0.497-0.049 0.272-0.129 0.538-0.24 0.789z"></path>
</svg>
