<!-- Generated by IcoMoon.io -->
<svg version="1.1" xmlns="http://www.w3.org/2000/svg" width="8" height="8" viewBox="0 0 8 8">
<title>spinner3</title>
<path d="M4 2.368c-0.258 0-0.466-0.209-0.466-0.466v-1.399c0-0.258 0.209-0.466 0.466-0.466s0.466 0.209 0.466 0.466v1.399c0 0.258-0.209 0.466-0.466 0.466z"></path>
<path d="M4 7.789c-0.161 0-0.291-0.13-0.291-0.291v-1.399c0-0.161 0.13-0.291 0.291-0.291s0.291 0.13 0.291 0.291v1.399c0 0.161-0.13 0.291-0.291 0.291z"></path>
<path d="M2.951 2.62c-0.151 0-0.298-0.078-0.379-0.219l-0.699-1.211c-0.121-0.209-0.049-0.476 0.16-0.597s0.476-0.049 0.597 0.16l0.699 1.212c0.121 0.209 0.049 0.476-0.16 0.597-0.069 0.040-0.144 0.059-0.218 0.059z"></path>
<path d="M5.749 7.291c-0.091 0-0.179-0.047-0.227-0.131l-0.699-1.211c-0.072-0.125-0.029-0.286 0.096-0.358s0.286-0.029 0.358 0.096l0.699 1.211c0.072 0.125 0.029 0.286-0.096 0.358-0.041 0.024-0.086 0.035-0.131 0.035z"></path>
<path d="M2.182 3.359c-0.069 0-0.139-0.018-0.204-0.055l-1.212-0.699c-0.195-0.113-0.262-0.362-0.149-0.557s0.362-0.262 0.557-0.149l1.211 0.699c0.195 0.113 0.262 0.362 0.149 0.557-0.076 0.131-0.213 0.204-0.354 0.204z"></path>
<path d="M7.029 5.982c-0.040 0-0.080-0.010-0.116-0.031l-1.211-0.699c-0.112-0.064-0.15-0.207-0.085-0.319s0.207-0.15 0.318-0.085l1.211 0.699c0.112 0.064 0.15 0.207 0.085 0.318-0.043 0.075-0.122 0.117-0.202 0.117z"></path>
<path d="M1.902 4.379h-1.399c-0.209 0-0.379-0.17-0.379-0.379s0.17-0.379 0.379-0.379h1.399c0.209 0 0.379 0.17 0.379 0.379s-0.17 0.379-0.379 0.379z"></path>
<path d="M7.497 4.233c-0 0 0 0 0 0h-1.399c-0.129-0-0.233-0.104-0.233-0.233s0.104-0.233 0.233-0.233c0 0 0 0 0 0h1.399c0.129 0 0.233 0.104 0.233 0.233s-0.104 0.233-0.233 0.233z"></path>
<path d="M0.972 6.098c-0.121 0-0.238-0.063-0.303-0.175-0.097-0.167-0.039-0.381 0.128-0.478l1.212-0.699c0.167-0.097 0.381-0.039 0.478 0.128s0.039 0.381-0.128 0.478l-1.212 0.699c-0.055 0.032-0.115 0.047-0.175 0.047z"></path>
<path d="M5.817 3.184c-0.081 0-0.159-0.042-0.202-0.117-0.064-0.112-0.026-0.254 0.085-0.318l1.211-0.699c0.112-0.064 0.254-0.026 0.319 0.085s0.026 0.254-0.085 0.319l-1.211 0.699c-0.037 0.021-0.077 0.031-0.116 0.031z"></path>
<path d="M2.251 7.349c-0.054 0-0.11-0.014-0.16-0.043-0.153-0.089-0.206-0.285-0.117-0.438l0.699-1.211c0.089-0.153 0.285-0.206 0.438-0.117s0.206 0.285 0.117 0.438l-0.699 1.212c-0.059 0.103-0.167 0.16-0.278 0.16z"></path>
<path d="M5.049 2.416c-0.040 0-0.080-0.010-0.116-0.031-0.112-0.064-0.15-0.207-0.085-0.318l0.699-1.211c0.064-0.112 0.207-0.15 0.318-0.085s0.15 0.207 0.085 0.318l-0.699 1.211c-0.043 0.075-0.122 0.117-0.202 0.117z"></path>
</svg>
