<!-- Generated by IcoMoon.io -->
<svg version="1.1" xmlns="http://www.w3.org/2000/svg" width="8" height="8" viewBox="0 0 8 8">
<title>spinner6</title>
<path d="M3 1c0-0.552 0.448-1 1-1s1 0.448 1 1c0 0.552-0.448 1-1 1s-1-0.448-1-1zM6.18 4c0 0 0 0 0 0 0-0.453 0.367-0.82 0.82-0.82s0.82 0.367 0.82 0.82c0 0 0 0 0 0 0 0.453-0.367 0.82-0.82 0.82s-0.82-0.367-0.82-0.82zM5.378 6.121c0-0.41 0.333-0.743 0.743-0.743s0.743 0.333 0.743 0.743c0 0.41-0.333 0.743-0.743 0.743s-0.743-0.333-0.743-0.743zM3.327 7c0-0.372 0.301-0.673 0.673-0.673s0.673 0.301 0.673 0.673c0 0.372-0.301 0.673-0.673 0.673s-0.673-0.301-0.673-0.673zM1.269 6.121c0-0.337 0.273-0.61 0.61-0.61s0.61 0.273 0.61 0.61c0 0.337-0.273 0.61-0.61 0.61s-0.61-0.273-0.61-0.61zM0.448 4c0-0.305 0.247-0.552 0.552-0.552s0.552 0.247 0.552 0.552c0 0.305-0.247 0.552-0.552 0.552s-0.552-0.247-0.552-0.552zM1.379 1.879c0 0 0 0 0 0 0-0.276 0.224-0.5 0.5-0.5s0.5 0.224 0.5 0.5c0 0 0 0 0 0 0 0.276-0.224 0.5-0.5 0.5s-0.5-0.224-0.5-0.5zM7.027 1.879c0 0.5-0.406 0.906-0.906 0.906s-0.906-0.406-0.906-0.906c0-0.5 0.406-0.906 0.906-0.906s0.906 0.405 0.906 0.906z"></path>
</svg>
