<!-- Generated by IcoMoon.io -->
<svg version="1.1" xmlns="http://www.w3.org/2000/svg" width="8" height="8" viewBox="0 0 8 8">
<title>spinner</title>
<path d="M3 1c0-0.552 0.448-1 1-1s1 0.448 1 1c0 0.552-0.448 1-1 1s-1-0.448-1-1zM5.121 1.879c0-0.552 0.448-1 1-1s1 0.448 1 1c0 0.552-0.448 1-1 1s-1-0.448-1-1zM6.5 4c0-0.276 0.224-0.5 0.5-0.5s0.5 0.224 0.5 0.5c0 0.276-0.224 0.5-0.5 0.5s-0.5-0.224-0.5-0.5zM5.621 6.121c0-0.276 0.224-0.5 0.5-0.5s0.5 0.224 0.5 0.5c0 0.276-0.224 0.5-0.5 0.5s-0.5-0.224-0.5-0.5zM3.5 7c0 0 0 0 0 0 0-0.276 0.224-0.5 0.5-0.5s0.5 0.224 0.5 0.5c0 0 0 0 0 0 0 0.276-0.224 0.5-0.5 0.5s-0.5-0.224-0.5-0.5zM1.379 6.121c0 0 0 0 0 0 0-0.276 0.224-0.5 0.5-0.5s0.5 0.224 0.5 0.5c0 0 0 0 0 0 0 0.276-0.224 0.5-0.5 0.5s-0.5-0.224-0.5-0.5zM1.129 1.879c0 0 0 0 0 0 0-0.414 0.336-0.75 0.75-0.75s0.75 0.336 0.75 0.75c0 0 0 0 0 0 0 0.414-0.336 0.75-0.75 0.75s-0.75-0.336-0.75-0.75zM0.438 4c0-0.311 0.252-0.563 0.563-0.563s0.563 0.252 0.563 0.563c0 0.311-0.252 0.563-0.563 0.563s-0.563-0.252-0.563-0.563z"></path>
</svg>
