<!-- Generated by IcoMoon.io -->
<svg version="1.1" xmlns="http://www.w3.org/2000/svg" width="8" height="8" viewBox="0 0 8 8">
<title>spinner10</title>
<path d="M0 4.013l-0 0c0 0 0 0.001 0 0.002 0.001 0.030 0.004 0.060 0.010 0.089 0.002 0.014 0.003 0.029 0.005 0.045 0.002 0.015 0.004 0.031 0.006 0.047 0.003 0.020 0.006 0.041 0.009 0.064 0.007 0.045 0.014 0.095 0.023 0.148 0.011 0.050 0.022 0.105 0.034 0.163 0.006 0.029 0.014 0.059 0.022 0.089s0.016 0.062 0.025 0.094c0.004 0.016 0.008 0.032 0.013 0.048s0.010 0.033 0.016 0.049 0.021 0.067 0.032 0.101c0.003 0.009 0.006 0.017 0.008 0.026s0.006 0.017 0.010 0.026 0.013 0.035 0.020 0.052 0.027 0.071 0.040 0.107c0.015 0.036 0.031 0.072 0.047 0.109 0.008 0.018 0.016 0.037 0.024 0.055s0.018 0.037 0.027 0.055 0.037 0.074 0.055 0.112c0.019 0.037 0.041 0.074 0.061 0.112 0.010 0.019 0.021 0.038 0.031 0.056s0.023 0.037 0.034 0.056 0.046 0.074 0.070 0.112c0.099 0.148 0.208 0.293 0.33 0.432 0.123 0.137 0.256 0.268 0.396 0.388 0.142 0.118 0.291 0.226 0.443 0.321 0.153 0.094 0.31 0.174 0.464 0.243 0.039 0.016 0.078 0.032 0.116 0.047 0.019 0.008 0.038 0.016 0.057 0.023s0.039 0.014 0.058 0.020 0.076 0.027 0.113 0.039c0.038 0.011 0.075 0.022 0.112 0.033 0.018 0.005 0.036 0.011 0.055 0.016s0.037 0.009 0.055 0.013 0.071 0.017 0.106 0.026c0.035 0.007 0.070 0.013 0.104 0.020 0.017 0.003 0.034 0.006 0.050 0.010 0.008 0.002 0.017 0.003 0.025 0.005s0.017 0.002 0.025 0.003c0.033 0.005 0.065 0.009 0.096 0.013 0.016 0.002 0.031 0.004 0.046 0.006s0.030 0.003 0.045 0.004 0.059 0.005 0.087 0.008c0.028 0.002 0.055 0.005 0.082 0.006 0.002 0 0.004 0 0.005 0 0.005 0.272 0.227 0.491 0.5 0.491 0.004 0 0.008-0 0.013-0v0c0 0 0.001-0 0.002-0 0.030-0.001 0.060-0.004 0.089-0.010 0.014-0.002 0.029-0.003 0.045-0.005 0.015-0.002 0.031-0.004 0.047-0.006 0.020-0.003 0.041-0.006 0.064-0.009 0.045-0.007 0.095-0.014 0.148-0.023 0.050-0.011 0.105-0.022 0.163-0.034 0.029-0.006 0.059-0.014 0.089-0.022s0.062-0.016 0.094-0.025c0.016-0.004 0.032-0.008 0.048-0.013s0.033-0.010 0.049-0.016 0.067-0.021 0.101-0.032c0.009-0.003 0.017-0.006 0.026-0.008s0.017-0.006 0.026-0.010 0.035-0.013 0.052-0.020 0.071-0.027 0.107-0.040c0.036-0.015 0.072-0.031 0.109-0.047 0.018-0.008 0.037-0.016 0.055-0.024s0.037-0.018 0.055-0.027 0.074-0.037 0.112-0.055c0.037-0.019 0.074-0.041 0.112-0.061 0.019-0.010 0.038-0.021 0.056-0.031s0.037-0.023 0.056-0.034 0.074-0.046 0.112-0.070c0.148-0.099 0.293-0.208 0.432-0.33 0.137-0.123 0.268-0.256 0.388-0.396 0.118-0.142 0.226-0.291 0.321-0.443 0.094-0.153 0.174-0.31 0.243-0.464 0.016-0.039 0.032-0.078 0.047-0.116 0.008-0.019 0.016-0.038 0.023-0.057s0.014-0.039 0.020-0.058 0.027-0.076 0.039-0.113c0.011-0.038 0.022-0.075 0.033-0.112 0.005-0.018 0.011-0.036 0.016-0.055s0.009-0.037 0.013-0.055 0.017-0.071 0.026-0.106c0.007-0.035 0.013-0.070 0.020-0.104 0.003-0.017 0.006-0.034 0.010-0.050 0.002-0.008 0.003-0.017 0.005-0.025s0.002-0.017 0.003-0.025c0.005-0.033 0.009-0.065 0.013-0.096 0.002-0.016 0.004-0.031 0.006-0.046s0.003-0.030 0.004-0.045 0.005-0.059 0.008-0.087c0.002-0.028 0.005-0.056 0.006-0.082 0-0.004 0-0.008 0-0.012 0.275-0.001 0.498-0.225 0.498-0.5 0-0.004-0-0.008-0-0.013h0c0 0-0-0.001-0-0.002-0.001-0.030-0.004-0.060-0.010-0.089-0.002-0.014-0.003-0.029-0.005-0.045-0.002-0.015-0.004-0.031-0.006-0.047-0.003-0.020-0.006-0.041-0.009-0.064-0.007-0.045-0.014-0.095-0.023-0.148-0.011-0.050-0.022-0.105-0.034-0.163-0.006-0.029-0.014-0.059-0.022-0.089s-0.016-0.062-0.025-0.094c-0.004-0.016-0.008-0.032-0.013-0.049s-0.010-0.033-0.016-0.049-0.021-0.067-0.032-0.101c-0.003-0.009-0.006-0.017-0.008-0.026s-0.006-0.017-0.010-0.026-0.013-0.035-0.020-0.052-0.027-0.071-0.040-0.107c-0.015-0.036-0.031-0.072-0.047-0.109-0.008-0.018-0.016-0.037-0.024-0.055s-0.018-0.037-0.027-0.055-0.037-0.074-0.055-0.112c-0.019-0.037-0.041-0.074-0.061-0.112-0.010-0.019-0.021-0.038-0.031-0.056s-0.023-0.037-0.034-0.056-0.046-0.074-0.070-0.112c-0.099-0.148-0.208-0.293-0.33-0.432-0.123-0.137-0.256-0.268-0.396-0.388-0.142-0.118-0.291-0.226-0.443-0.321-0.153-0.094-0.31-0.174-0.464-0.243-0.039-0.016-0.078-0.032-0.116-0.047-0.019-0.008-0.038-0.016-0.057-0.023s-0.039-0.014-0.058-0.020-0.076-0.027-0.113-0.039c-0.038-0.011-0.075-0.022-0.112-0.033-0.018-0.005-0.036-0.011-0.055-0.016s-0.037-0.009-0.055-0.013-0.071-0.017-0.106-0.026c-0.035-0.007-0.070-0.013-0.104-0.020-0.017-0.003-0.034-0.006-0.050-0.010-0.008-0.002-0.017-0.003-0.025-0.005s-0.017-0.002-0.025-0.003c-0.033-0.005-0.065-0.009-0.096-0.013-0.016-0.002-0.031-0.004-0.046-0.006s-0.030-0.003-0.045-0.004-0.059-0.005-0.087-0.008c-0.028-0.002-0.056-0.005-0.082-0.006-0.007-0-0.013-0-0.020-0.001-0.005-0.272-0.227-0.49-0.5-0.49-0.004 0-0.008 0-0.013 0l-0-0c0 0-0.001 0-0.002 0-0.030 0.001-0.060 0.004-0.089 0.010-0.014 0.002-0.029 0.003-0.045 0.005-0.015 0.002-0.031 0.004-0.047 0.006-0.020 0.003-0.041 0.006-0.064 0.009-0.045 0.007-0.095 0.014-0.148 0.023-0.050 0.011-0.105 0.022-0.163 0.034-0.029 0.006-0.059 0.014-0.089 0.022s-0.062 0.016-0.094 0.025c-0.016 0.004-0.032 0.008-0.049 0.013s-0.033 0.010-0.049 0.016-0.067 0.021-0.101 0.032c-0.009 0.003-0.017 0.006-0.026 0.008s-0.017 0.006-0.026 0.010-0.035 0.013-0.052 0.020-0.071 0.027-0.107 0.040c-0.036 0.015-0.072 0.031-0.109 0.047-0.018 0.008-0.037 0.016-0.055 0.024s-0.037 0.018-0.055 0.027-0.074 0.037-0.112 0.055c-0.037 0.019-0.074 0.041-0.112 0.061-0.019 0.010-0.038 0.021-0.056 0.031s-0.037 0.023-0.056 0.034-0.074 0.046-0.112 0.070c-0.148 0.099-0.293 0.208-0.432 0.33-0.137 0.123-0.268 0.256-0.388 0.396-0.118 0.142-0.226 0.291-0.321 0.443-0.094 0.153-0.174 0.31-0.243 0.464-0.016 0.039-0.032 0.078-0.047 0.116-0.008 0.019-0.016 0.038-0.023 0.057s-0.014 0.039-0.020 0.058-0.027 0.076-0.039 0.113c-0.011 0.038-0.022 0.075-0.033 0.112-0.005 0.018-0.011 0.036-0.016 0.055s-0.009 0.037-0.013 0.055-0.017 0.071-0.026 0.106c-0.007 0.035-0.013 0.070-0.020 0.104-0.003 0.017-0.006 0.034-0.010 0.050-0.002 0.008-0.003 0.017-0.005 0.025s-0.002 0.017-0.003 0.025c-0.005 0.033-0.009 0.065-0.013 0.096-0.002 0.016-0.004 0.031-0.006 0.046s-0.003 0.030-0.004 0.045-0.005 0.059-0.008 0.087c-0.002 0.028-0.005 0.056-0.006 0.082-0 0.004-0 0.008-0 0.013-0.269 0.009-0.484 0.229-0.484 0.5 0 0.004 0 0.008 0 0.013zM0.574 3.506c0-0.002 0.001-0.003 0.001-0.005 0.005-0.025 0.013-0.051 0.020-0.078s0.015-0.054 0.022-0.082c0.004-0.014 0.007-0.028 0.012-0.042s0.009-0.028 0.014-0.043 0.019-0.058 0.029-0.088c0.002-0.007 0.005-0.015 0.007-0.023s0.006-0.015 0.009-0.022 0.012-0.030 0.018-0.046 0.024-0.062 0.036-0.093c0.014-0.031 0.028-0.062 0.042-0.094 0.007-0.016 0.014-0.032 0.021-0.048s0.016-0.032 0.024-0.048 0.033-0.064 0.049-0.097c0.017-0.032 0.036-0.064 0.055-0.097 0.009-0.016 0.019-0.033 0.028-0.049s0.020-0.032 0.030-0.048 0.041-0.064 0.062-0.097c0.088-0.127 0.185-0.253 0.292-0.372 0.108-0.118 0.225-0.23 0.348-0.332 0.125-0.101 0.255-0.193 0.388-0.274 0.134-0.080 0.27-0.147 0.404-0.205 0.034-0.013 0.068-0.026 0.101-0.039 0.017-0.006 0.033-0.013 0.050-0.019s0.033-0.011 0.050-0.017 0.065-0.023 0.098-0.032c0.033-0.009 0.065-0.018 0.097-0.027 0.016-0.004 0.031-0.009 0.047-0.013s0.032-0.007 0.047-0.011 0.062-0.014 0.092-0.021c0.030-0.005 0.060-0.011 0.090-0.016 0.015-0.003 0.029-0.005 0.043-0.008 0.007-0.001 0.014-0.003 0.021-0.004s0.014-0.002 0.021-0.003c0.028-0.004 0.056-0.007 0.083-0.010 0.013-0.002 0.027-0.003 0.040-0.005s0.026-0.002 0.039-0.003 0.051-0.004 0.075-0.005c0.024-0.002 0.048-0.004 0.071-0.004 0.046-0.001 0.088-0.002 0.128-0.003 0.036 0.001 0.070 0.003 0.1 0.004 0.015 0 0.029 0.001 0.042 0.001 0.017 0.001 0.032 0.002 0.047 0.003 0.017 0.001 0.032 0.002 0.045 0.003 0.025 0.004 0.051 0.006 0.078 0.006 0.004 0 0.007-0 0.011-0 0.001 0 0.002 0 0.002 0v-0c0.243-0.006 0.443-0.186 0.481-0.42 0.004 0.001 0.008 0.002 0.013 0.003 0.025 0.005 0.051 0.013 0.078 0.020s0.054 0.015 0.082 0.022c0.014 0.004 0.028 0.007 0.042 0.012s0.028 0.009 0.043 0.014 0.058 0.019 0.088 0.029c0.008 0.002 0.015 0.005 0.023 0.007s0.015 0.006 0.022 0.009 0.030 0.012 0.046 0.018 0.062 0.024 0.093 0.036c0.031 0.014 0.062 0.028 0.094 0.042 0.016 0.007 0.032 0.014 0.048 0.021s0.032 0.016 0.048 0.024 0.064 0.033 0.097 0.049c0.032 0.017 0.064 0.036 0.097 0.055 0.016 0.009 0.032 0.019 0.049 0.028s0.032 0.020 0.048 0.030 0.064 0.041 0.097 0.062c0.127 0.088 0.253 0.185 0.372 0.292 0.118 0.108 0.23 0.225 0.332 0.348 0.101 0.125 0.193 0.255 0.274 0.388 0.080 0.134 0.147 0.27 0.205 0.404 0.013 0.034 0.026 0.068 0.039 0.101 0.006 0.017 0.013 0.033 0.019 0.050s0.011 0.033 0.017 0.050 0.023 0.066 0.032 0.098c0.009 0.033 0.018 0.065 0.027 0.097 0.004 0.016 0.009 0.031 0.013 0.047s0.007 0.032 0.011 0.047 0.014 0.062 0.021 0.092c0.005 0.030 0.011 0.060 0.016 0.090 0.003 0.015 0.005 0.029 0.008 0.043 0.001 0.007 0.003 0.014 0.004 0.021s0.002 0.014 0.003 0.021c0.003 0.028 0.007 0.056 0.010 0.083 0.002 0.013 0.003 0.027 0.005 0.040s0.002 0.026 0.003 0.039 0.004 0.051 0.005 0.075c0.002 0.024 0.004 0.048 0.004 0.071 0.001 0.046 0.002 0.088 0.003 0.128-0.001 0.036-0.003 0.070-0.004 0.1-0 0.015-0.001 0.029-0.001 0.042-0.001 0.017-0.002 0.032-0.003 0.047-0.001 0.017-0.002 0.032-0.003 0.045-0.004 0.025-0.006 0.051-0.006 0.078 0 0.004 0 0.007 0 0.011-0 0.001-0 0.002-0 0.002h0c0.006 0.24 0.182 0.439 0.412 0.479-0.001 0.002-0.001 0.005-0.002 0.007-0.005 0.025-0.013 0.051-0.020 0.078s-0.015 0.054-0.022 0.082c-0.004 0.014-0.007 0.028-0.012 0.042s-0.009 0.028-0.014 0.043-0.019 0.058-0.029 0.088c-0.002 0.007-0.005 0.015-0.007 0.023s-0.006 0.015-0.009 0.022-0.012 0.030-0.018 0.046-0.024 0.062-0.036 0.093c-0.014 0.031-0.028 0.062-0.042 0.094-0.007 0.016-0.014 0.032-0.021 0.048s-0.016 0.032-0.024 0.048-0.033 0.064-0.049 0.097c-0.017 0.032-0.036 0.064-0.055 0.097-0.009 0.016-0.019 0.032-0.028 0.049s-0.020 0.032-0.030 0.048-0.041 0.064-0.062 0.097c-0.088 0.127-0.185 0.253-0.292 0.372-0.108 0.118-0.225 0.23-0.348 0.332-0.125 0.101-0.255 0.193-0.388 0.274-0.134 0.080-0.27 0.147-0.404 0.205-0.034 0.013-0.068 0.026-0.101 0.039-0.017 0.006-0.033 0.013-0.050 0.019s-0.033 0.011-0.050 0.017-0.065 0.023-0.098 0.032c-0.033 0.009-0.065 0.018-0.097 0.027-0.016 0.004-0.031 0.009-0.047 0.013s-0.032 0.007-0.047 0.011-0.062 0.014-0.092 0.021c-0.030 0.005-0.060 0.011-0.090 0.016-0.015 0.003-0.029 0.005-0.043 0.008-0.007 0.001-0.014 0.003-0.021 0.004s-0.014 0.002-0.021 0.003c-0.028 0.003-0.056 0.007-0.083 0.010-0.013 0.002-0.027 0.003-0.040 0.005s-0.026 0.002-0.039 0.003-0.051 0.004-0.075 0.005c-0.024 0.002-0.048 0.004-0.071 0.004-0.046 0.001-0.088 0.002-0.128 0.003-0.036-0.001-0.070-0.003-0.1-0.004-0.015-0-0.029-0.001-0.042-0.001-0.017-0.001-0.032-0.002-0.047-0.003-0.017-0.001-0.032-0.002-0.045-0.003-0.025-0.004-0.051-0.006-0.078-0.006-0.004 0-0.007 0-0.011 0-0.001-0-0.002-0-0.002-0v0c-0.242 0.006-0.442 0.184-0.48 0.417-0.025-0.005-0.050-0.013-0.076-0.020s-0.054-0.015-0.082-0.022c-0.014-0.004-0.028-0.007-0.042-0.012s-0.028-0.009-0.043-0.014-0.058-0.019-0.088-0.029c-0.007-0.002-0.015-0.005-0.023-0.007s-0.015-0.006-0.022-0.009-0.030-0.012-0.046-0.018-0.062-0.024-0.093-0.036c-0.031-0.014-0.062-0.028-0.094-0.042-0.016-0.007-0.032-0.014-0.048-0.021s-0.032-0.016-0.048-0.024-0.064-0.033-0.097-0.049c-0.032-0.017-0.064-0.036-0.097-0.055-0.016-0.009-0.033-0.019-0.049-0.028s-0.032-0.020-0.048-0.030-0.064-0.041-0.097-0.062c-0.127-0.088-0.253-0.185-0.372-0.292-0.118-0.108-0.23-0.225-0.332-0.348-0.101-0.125-0.193-0.255-0.274-0.388-0.080-0.134-0.147-0.27-0.205-0.404-0.013-0.034-0.026-0.068-0.039-0.101-0.006-0.017-0.013-0.033-0.019-0.050s-0.011-0.033-0.017-0.050-0.023-0.065-0.032-0.098c-0.009-0.033-0.018-0.065-0.027-0.097-0.004-0.016-0.009-0.031-0.013-0.047s-0.007-0.032-0.011-0.047-0.014-0.062-0.021-0.092c-0.005-0.030-0.011-0.060-0.016-0.090-0.003-0.015-0.005-0.029-0.008-0.043-0.001-0.007-0.003-0.014-0.004-0.021s-0.002-0.014-0.003-0.021c-0.003-0.028-0.007-0.056-0.010-0.083-0.002-0.013-0.003-0.027-0.005-0.040s-0.002-0.026-0.003-0.039-0.004-0.051-0.005-0.075c-0.002-0.024-0.004-0.048-0.004-0.071-0.001-0.046-0.002-0.088-0.003-0.128 0.001-0.036 0.003-0.070 0.004-0.1 0-0.015 0.001-0.029 0.001-0.042 0.001-0.017 0.002-0.032 0.003-0.047 0.001-0.017 0.002-0.032 0.003-0.045 0.004-0.025 0.006-0.052 0.006-0.078 0-0.004-0-0.007-0-0.011 0-0.001 0-0.002 0-0.002h-0c-0.006-0.245-0.189-0.447-0.425-0.482z"></path>
</svg>
