<!-- Generated by IcoMoon.io -->
<svg version="1.1" xmlns="http://www.w3.org/2000/svg" width="8" height="8" viewBox="0 0 8 8">
<title>spinner11</title>
<path d="M8 3h-3l1.121-1.121c-0.567-0.567-1.32-0.879-2.121-0.879s-1.555 0.312-2.121 0.879c-0.567 0.567-0.879 1.32-0.879 2.121s0.312 1.555 0.879 2.121c0.567 0.567 1.32 0.879 2.121 0.879s1.555-0.312 2.121-0.879c0.047-0.047 0.093-0.096 0.136-0.146l0.753 0.658c-0.733 0.837-1.81 1.366-3.010 1.366-2.209 0-4-1.791-4-4s1.791-4 4-4c1.105 0 2.104 0.448 2.828 1.172l1.172-1.172v3z"></path>
</svg>
