<!-- Generated by IcoMoon.io -->
<svg version="1.1" xmlns="http://www.w3.org/2000/svg" width="8" height="8" viewBox="0 0 8 8">
<title>spinner8</title>
<path d="M4 8c-1.068 0-2.073-0.416-2.828-1.172s-1.172-1.76-1.172-2.828c0-0.757 0.212-1.493 0.614-2.13 0.391-0.619 0.943-1.12 1.597-1.448l0.336 0.671c-0.532 0.266-0.98 0.673-1.298 1.177-0.326 0.517-0.499 1.116-0.499 1.73 0 1.792 1.458 3.25 3.25 3.25s3.25-1.458 3.25-3.25c0-0.615-0.172-1.213-0.499-1.73-0.318-0.504-0.767-0.911-1.298-1.177l0.336-0.671c0.654 0.328 1.206 0.828 1.597 1.448 0.402 0.637 0.614 1.374 0.614 2.13 0 1.068-0.416 2.073-1.172 2.828s-1.76 1.172-2.828 1.172z"></path>
</svg>
