<!-- Generated by IcoMoon.io -->
<svg version="1.1" xmlns="http://www.w3.org/2000/svg" width="8" height="8" viewBox="0 0 8 8">
<title>spinner4</title>
<path d="M1.5 4c0-0.095 0.006-0.189 0.016-0.281l-1.445-0.47c-0.046 0.243-0.071 0.494-0.071 0.751 0 1.15 0.486 2.187 1.263 2.917l0.893-1.229c-0.407-0.445-0.656-1.037-0.656-1.688zM6.5 4c0 0.651-0.249 1.243-0.656 1.688l0.893 1.229c0.777-0.73 1.263-1.766 1.263-2.917 0-0.257-0.024-0.508-0.071-0.751l-1.445 0.47c0.010 0.092 0.016 0.186 0.016 0.281zM4.5 1.55c0.718 0.146 1.325 0.6 1.675 1.217l1.445-0.47c-0.572-1.214-1.736-2.094-3.121-2.267v1.519zM1.825 2.767c0.351-0.618 0.957-1.072 1.675-1.217v-1.519c-1.384 0.173-2.549 1.053-3.121 2.267l1.445 0.47zM5.036 6.276c-0.316 0.144-0.666 0.224-1.036 0.224s-0.72-0.080-1.036-0.224l-0.893 1.229c0.572 0.315 1.229 0.495 1.928 0.495s1.357-0.18 1.928-0.495l-0.893-1.229z"></path>
</svg>
