<!-- Generated by IcoMoon.io -->
<svg version="1.1" xmlns="http://www.w3.org/2000/svg" width="8" height="8" viewBox="0 0 8 8">
<title>spinner5</title>
<path d="M4 0c-2.209 0-4 1.791-4 4s1.791 4 4 4 4-1.791 4-4-1.791-4-4-4zM4 2c1.105 0 2 0.895 2 2s-0.895 2-2 2-2-0.895-2-2 0.895-2 2-2zM6.386 6.386c-0.637 0.637-1.485 0.989-2.386 0.989s-1.749-0.351-2.386-0.989-0.989-1.485-0.989-2.386c0-0.901 0.351-1.749 0.989-2.386l0.53 0.53c0 0 0 0 0 0-1.023 1.023-1.023 2.689 0 3.712 0.496 0.496 1.155 0.769 1.856 0.769s1.36-0.273 1.856-0.769c1.023-1.023 1.023-2.689 0-3.712l0.53-0.53c0.637 0.637 0.989 1.485 0.989 2.386s-0.351 1.749-0.989 2.386z"></path>
</svg>
