<!-- Generated by IcoMoon.io -->
<svg version="1.1" xmlns="http://www.w3.org/2000/svg" width="8" height="8" viewBox="0 0 8 8">
<title>spinner9</title>
<path d="M4 0c-2.178 0-3.949 1.74-3.999 3.906 0.046-1.89 1.483-3.406 3.249-3.406 1.795 0 3.25 1.567 3.25 3.5 0 0.414 0.336 0.75 0.75 0.75s0.75-0.336 0.75-0.75c0-2.209-1.791-4-4-4zM4 8c2.178 0 3.949-1.74 3.999-3.906-0.046 1.89-1.483 3.406-3.249 3.406-1.795 0-3.25-1.567-3.25-3.5 0-0.414-0.336-0.75-0.75-0.75s-0.75 0.336-0.75 0.75c0 2.209 1.791 4 4 4z"></path>
</svg>
