<!-- Generated by IcoMoon.io -->
<svg version="1.1" xmlns="http://www.w3.org/2000/svg" width="8" height="8" viewBox="0 0 8 8">
<title>spoon-knife</title>
<path d="M1.75 0c-0.828 0-1.5 0.783-1.5 1.75 0 0.828 0.492 1.521 1.154 1.703l-0.248 4.048c-0.017 0.274 0.194 0.499 0.469 0.499h0.25c0.275 0 0.486-0.225 0.469-0.499l-0.248-4.048c0.662-0.182 1.154-0.876 1.154-1.703 0-0.967-0.672-1.75-1.5-1.75zM6.792 0l-0.417 2.5h-0.313l-0.208-2.5h-0.208l-0.208 2.5h-0.313l-0.417-2.5h-0.208v3.25c0 0.138 0.112 0.25 0.25 0.25h0.651l-0.245 4.001c-0.017 0.274 0.194 0.499 0.469 0.499h0.25c0.275 0 0.486-0.225 0.469-0.499l-0.245-4.001h0.651c0.138 0 0.25-0.112 0.25-0.25v-3.25h-0.208z"></path>
</svg>
