<!-- Generated by IcoMoon.io -->
<svg version="1.1" xmlns="http://www.w3.org/2000/svg" width="8" height="8" viewBox="0 0 8 8">
<title>spotify</title>
<path d="M4 0c-2.2 0-4 1.8-4 4s1.8 4 4 4 4-1.8 4-4-1.78-4-4-4zM5.841 5.78c-0.080 0.12-0.22 0.159-0.341 0.080-0.941-0.58-2.12-0.7-3.52-0.38-0.141 0.041-0.259-0.059-0.3-0.18-0.041-0.141 0.059-0.259 0.18-0.3 1.52-0.341 2.841-0.2 3.88 0.441 0.141 0.059 0.161 0.219 0.102 0.339zM6.32 4.68c-0.1 0.141-0.28 0.2-0.42 0.1-1.080-0.659-2.72-0.859-3.98-0.459-0.159 0.041-0.341-0.041-0.38-0.2-0.041-0.159 0.041-0.341 0.2-0.38 1.459-0.441 3.259-0.22 4.5 0.541 0.119 0.059 0.18 0.259 0.080 0.398zM6.359 3.559c-1.28-0.759-3.42-0.841-4.641-0.459-0.2 0.059-0.4-0.059-0.459-0.241-0.059-0.2 0.059-0.4 0.241-0.459 1.42-0.42 3.759-0.341 5.241 0.541 0.18 0.1 0.241 0.341 0.141 0.52-0.102 0.139-0.341 0.198-0.522 0.098z"></path>
</svg>
