<!-- Generated by IcoMoon.io -->
<svg version="1.1" xmlns="http://www.w3.org/2000/svg" width="8" height="8" viewBox="0 0 8 8">
<title>stats-dots</title>
<path d="M1 7h7v1h-8v-8h1zM2.25 6.5c-0.414 0-0.75-0.336-0.75-0.75s0.336-0.75 0.75-0.75c0.022 0 0.044 0.001 0.066 0.003l0.806-1.344c-0.077-0.118-0.122-0.258-0.122-0.409 0-0.414 0.336-0.75 0.75-0.75s0.75 0.336 0.75 0.75c0 0.151-0.045 0.292-0.122 0.409l0.806 1.344c0.022-0.002 0.043-0.003 0.066-0.003 0.017 0 0.033 0.001 0.050 0.002l1.331-2.329c-0.082-0.12-0.131-0.266-0.131-0.423 0-0.414 0.336-0.75 0.75-0.75s0.75 0.336 0.75 0.75c0 0.414-0.336 0.75-0.75 0.75-0.017 0-0.033-0.001-0.050-0.002l-1.331 2.329c0.082 0.12 0.131 0.266 0.131 0.423 0 0.414-0.336 0.75-0.75 0.75s-0.75-0.336-0.75-0.75c0-0.151 0.045-0.292 0.122-0.409l-0.806-1.344c-0.022 0.002-0.043 0.003-0.066 0.003s-0.044-0.001-0.066-0.003l-0.806 1.344c0.077 0.118 0.122 0.258 0.122 0.409 0 0.414-0.336 0.75-0.75 0.75z"></path>
</svg>
