<!-- Generated by IcoMoon.io -->
<svg version="1.1" xmlns="http://www.w3.org/2000/svg" width="8" height="8" viewBox="0 0 8 8">
<title>stats-bars2</title>
<path d="M2.25 3h-1.5c-0.137 0-0.25 0.112-0.25 0.25v4.5c0 0.138 0.113 0.25 0.25 0.25h1.5c0.138 0 0.25-0.112 0.25-0.25v-4.5c0-0.138-0.112-0.25-0.25-0.25zM2.25 7.5h-1.5v-2h1.5v2zM4.75 2h-1.5c-0.138 0-0.25 0.112-0.25 0.25v5.5c0 0.138 0.112 0.25 0.25 0.25h1.5c0.138 0 0.25-0.112 0.25-0.25v-5.5c0-0.138-0.112-0.25-0.25-0.25zM4.75 7.5h-1.5v-2.5h1.5v2.5zM7.25 1h-1.5c-0.138 0-0.25 0.113-0.25 0.25v6.5c0 0.138 0.112 0.25 0.25 0.25h1.5c0.138 0 0.25-0.112 0.25-0.25v-6.5c0-0.137-0.112-0.25-0.25-0.25zM7.25 7.5h-1.5v-3h1.5v3z"></path>
</svg>
