<!-- Generated by IcoMoon.io -->
<svg version="1.1" xmlns="http://www.w3.org/2000/svg" width="8" height="8" viewBox="0 0 8 8">
<title>steam</title>
<path d="M5.5 2.25c0-0.414 0.336-0.75 0.75-0.75s0.75 0.336 0.75 0.75c0 0.414-0.336 0.75-0.75 0.75s-0.75-0.336-0.75-0.75zM7.487 1.013c-0.683-0.683-1.791-0.683-2.475 0-0.278 0.278-0.443 0.626-0.495 0.987v0l-1.599 2.424c-0.215 0.011-0.428 0.066-0.625 0.164l-1.234-0.964c-0.286-0.223-0.698-0.173-0.921 0.113s-0.173 0.698 0.113 0.921l1.218 0.952c-0.133 0.522 0.005 1.098 0.414 1.506 0.616 0.616 1.616 0.616 2.232 0 0.379-0.379 0.525-0.902 0.438-1.392l1.946-1.742c0.361-0.052 0.71-0.217 0.987-0.495 0.683-0.683 0.683-1.791 0-2.475zM3 7.052c-0.581 0-1.052-0.471-1.052-1.052 0-0.006 0-0.011 0-0.017l0.523 0.409c0.12 0.094 0.262 0.139 0.404 0.139 0.195 0 0.388-0.087 0.517-0.252 0.223-0.286 0.173-0.698-0.113-0.921l-0.496-0.388c0.070-0.015 0.143-0.022 0.217-0.022 0.581 0 1.052 0.471 1.052 1.052s-0.471 1.052-1.052 1.052zM6.25 3.5c-0.69 0-1.25-0.56-1.25-1.25s0.56-1.25 1.25-1.25 1.25 0.56 1.25 1.25-0.56 1.25-1.25 1.25z"></path>
</svg>
