<!-- Generated by IcoMoon.io -->
<svg version="1.1" xmlns="http://www.w3.org/2000/svg" width="8" height="8" viewBox="0 0 8 8">
<title>steam2</title>
<path d="M2.374 6.531c0.212 0 0.42-0.103 0.547-0.292 0.201-0.302 0.12-0.709-0.182-0.91l-0.516-0.344c0.088-0.024 0.181-0.037 0.277-0.037 0.581 0 1.052 0.471 1.052 1.052s-0.471 1.052-1.052 1.052c-0.566 0-1.027-0.446-1.051-1.006l0.562 0.375c0.112 0.075 0.238 0.11 0.363 0.11zM6.667 0c0.733 0 1.333 0.6 1.333 1.333v5.333c0 0.734-0.6 1.333-1.333 1.333h-5.333c-0.733 0-1.333-0.6-1.333-1.333v-1.586l0.948 0.632c-0.091 0.494 0.054 1.022 0.436 1.404 0.616 0.616 1.616 0.616 2.232 0 0.379-0.379 0.525-0.902 0.438-1.392l1.946-1.742c0.361-0.052 0.71-0.217 0.987-0.495 0.683-0.683 0.683-1.791 0-2.475s-1.791-0.683-2.475 0c-0.278 0.278-0.443 0.626-0.495 0.987v0l-1.599 2.424c-0.249 0.013-0.495 0.084-0.717 0.214l-1.702-1.135v-2.169c0-0.733 0.6-1.333 1.333-1.333h5.333zM7 2.25c0-0.69-0.56-1.25-1.25-1.25s-1.25 0.56-1.25 1.25 0.56 1.25 1.25 1.25 1.25-0.56 1.25-1.25zM5 2.25c0-0.414 0.336-0.75 0.75-0.75s0.75 0.336 0.75 0.75-0.336 0.75-0.75 0.75-0.75-0.336-0.75-0.75z"></path>
</svg>
