<!-- Generated by IcoMoon.io -->
<svg version="1.1" xmlns="http://www.w3.org/2000/svg" width="8" height="8" viewBox="0 0 8 8">
<title>stopwatch</title>
<path d="M4 1.509v-0.509h1v-0.5c0-0.276-0.224-0.5-0.5-0.5h-1.5c-0.276 0-0.5 0.224-0.5 0.5v0.5h1v0.509c-1.678 0.128-3 1.53-3 3.241 0 1.795 1.455 3.25 3.25 3.25s3.25-1.455 3.25-3.25c0-1.711-1.322-3.113-3-3.241zM5.518 6.518c-0.472 0.472-1.1 0.732-1.768 0.732s-1.296-0.26-1.768-0.732c-0.472-0.472-0.732-1.1-0.732-1.768s0.26-1.296 0.732-1.768c0.453-0.453 1.050-0.711 1.688-0.731l-0.169 2.453c-0.015 0.205 0.097 0.295 0.249 0.295s0.263-0.090 0.249-0.295l-0.169-2.453c0.638 0.020 1.235 0.277 1.688 0.731 0.472 0.472 0.732 1.1 0.732 1.768s-0.26 1.296-0.732 1.768z"></path>
</svg>
