<!-- Generated by IcoMoon.io -->
<svg version="1.1" xmlns="http://www.w3.org/2000/svg" width="8" height="8" viewBox="0 0 8 8">
<title>strikethrough</title>
<path d="M8 4v0.5h-1.832c0.215 0.301 0.332 0.646 0.332 1 0 0.554-0.286 1.086-0.786 1.461-0.464 0.348-1.073 0.539-1.714 0.539s-1.25-0.192-1.714-0.539c-0.499-0.375-0.786-0.907-0.786-1.461h1c0 0.542 0.687 1 1.5 1s1.5-0.458 1.5-1c0-0.542-0.687-1-1.5-1h-4v-0.5h2.34c-0.018-0.013-0.036-0.026-0.054-0.039-0.499-0.375-0.786-0.907-0.786-1.461s0.286-1.086 0.786-1.461c0.464-0.348 1.073-0.539 1.714-0.539s1.25 0.192 1.714 0.539c0.499 0.375 0.786 0.907 0.786 1.461h-1c0-0.542-0.687-1-1.5-1s-1.5 0.458-1.5 1c0 0.542 0.687 1 1.5 1 0.617 0 1.204 0.177 1.66 0.5h2.34z"></path>
</svg>
