<!-- Generated by IcoMoon.io -->
<svg version="1.1" xmlns="http://www.w3.org/2000/svg" width="8" height="8" viewBox="0 0 8 8">
<title>stumbleupon2</title>
<path d="M6.656 0h-5.313c-0.739 0-1.344 0.605-1.344 1.344v5.313c0 0.739 0.605 1.344 1.344 1.344h5.313c0.739 0 1.344-0.605 1.344-1.344v-5.313c0-0.739-0.605-1.344-1.344-1.344zM4 2.5c-0.276 0-0.5 0.224-0.5 0.5v2c0 0.827-0.673 1.5-1.5 1.5s-1.5-0.673-1.5-1.5v-1h1v1c0 0.276 0.224 0.5 0.5 0.5s0.5-0.224 0.5-0.5v-2c0-0.827 0.673-1.5 1.5-1.5s1.5 0.673 1.5 1.391v0.484l-0.641 0.188-0.359-0.188v-0.484c0-0.166-0.224-0.391-0.5-0.391zM7.5 5c0 0.827-0.673 1.5-1.5 1.5s-1.5-0.673-1.5-1.609v-0.969l0.359 0.188 0.641-0.188v0.969c0 0.385 0.224 0.609 0.5 0.609s0.5-0.224 0.5-0.5v-1h1v1z"></path>
</svg>
