<!-- Generated by IcoMoon.io -->
<svg version="1.1" xmlns="http://www.w3.org/2000/svg" width="8" height="8" viewBox="0 0 8 8">
<title>subscript2</title>
<path d="M1.516 6.5l0.45-1.5h2.068l0.45 1.5h0.888l-1.5-5h-1.744l-1.5 5h0.888zM2.716 2.5h0.568l0.45 1.5h-1.468l0.45-1.5zM8 1.5l-1.25 2-1.25-2h2.5z"></path>
<path d="M6.75 6.5h-0.5c-0.138 0-0.25-0.112-0.25-0.25s0.112-0.25 0.25-0.25h1c0.138 0 0.25-0.112 0.25-0.25s-0.112-0.25-0.25-0.25h-1c-0.414 0-0.75 0.336-0.75 0.75 0 0.192 0.073 0.367 0.192 0.5 0.137 0.153 0.337 0.25 0.558 0.25h0.5c0.138 0 0.25 0.112 0.25 0.25s-0.112 0.25-0.25 0.25h-1c-0.138 0-0.25 0.112-0.25 0.25s0.112 0.25 0.25 0.25h1c0.414 0 0.75-0.336 0.75-0.75 0-0.192-0.073-0.367-0.192-0.5-0.137-0.153-0.337-0.25-0.558-0.25z"></path>
</svg>
