<!-- Generated by IcoMoon.io -->
<svg version="1.1" xmlns="http://www.w3.org/2000/svg" width="8" height="8" viewBox="0 0 8 8">
<title>svg</title>
<path d="M7.25 3.25c-0.222 0-0.422 0.097-0.559 0.25h-1.484l1.049-1.049c0.206 0.011 0.415-0.061 0.572-0.218 0.293-0.293 0.293-0.768 0-1.061s-0.768-0.293-1.061 0c-0.157 0.157-0.23 0.366-0.218 0.572l-1.049 1.049v-1.484c0.153-0.137 0.25-0.337 0.25-0.559 0-0.414-0.336-0.75-0.75-0.75s-0.75 0.336-0.75 0.75c0 0.222 0.097 0.422 0.25 0.559v1.484l-1.049-1.049c0.011-0.206-0.061-0.415-0.218-0.572-0.293-0.293-0.768-0.293-1.061 0s-0.293 0.768 0 1.061c0.157 0.157 0.366 0.23 0.572 0.218l1.049 1.049h-1.484c-0.137-0.153-0.337-0.25-0.559-0.25-0.414 0-0.75 0.336-0.75 0.75s0.336 0.75 0.75 0.75c0.222 0 0.422-0.097 0.559-0.25h1.484l-1.049 1.049c-0.206-0.011-0.415 0.061-0.572 0.218-0.293 0.293-0.293 0.768 0 1.061s0.768 0.293 1.061 0c0.157-0.157 0.23-0.366 0.218-0.572l1.049-1.049v1.484c-0.153 0.137-0.25 0.337-0.25 0.559 0 0.414 0.336 0.75 0.75 0.75s0.75-0.336 0.75-0.75c0-0.222-0.097-0.422-0.25-0.559v-1.484l1.049 1.049c-0.011 0.206 0.061 0.415 0.218 0.572 0.293 0.293 0.768 0.293 1.061 0s0.293-0.768 0-1.061c-0.157-0.157-0.366-0.23-0.572-0.218l-1.049-1.049h1.484c0.137 0.153 0.337 0.25 0.559 0.25 0.414 0 0.75-0.336 0.75-0.75s-0.336-0.75-0.75-0.75z"></path>
</svg>
