<!-- Generated by IcoMoon.io -->
<svg version="1.1" xmlns="http://www.w3.org/2000/svg" width="8" height="8" viewBox="0 0 8 8">
<title>switch</title>
<path d="M5 1.145v1.062c0.283 0.123 0.543 0.3 0.768 0.525 0.472 0.472 0.732 1.1 0.732 1.768s-0.26 1.296-0.732 1.768c-0.472 0.472-1.1 0.732-1.768 0.732s-1.296-0.26-1.768-0.732c-0.472-0.472-0.732-1.1-0.732-1.768s0.26-1.296 0.732-1.768c0.225-0.225 0.485-0.401 0.768-0.525v-1.062c-1.446 0.43-2.5 1.769-2.5 3.355 0 1.933 1.567 3.5 3.5 3.5s3.5-1.567 3.5-3.5c0-1.585-1.054-2.924-2.5-3.355zM3.5 0h1v4h-1z"></path>
</svg>
