<!-- Generated by IcoMoon.io -->
<svg version="1.1" xmlns="http://www.w3.org/2000/svg" width="8" height="8" viewBox="0 0 8 8">
<title>target</title>
<path d="M8 3.5h-0.788c-0.216-1.393-1.319-2.496-2.712-2.712v-0.788h-1v0.788c-1.393 0.216-2.496 1.319-2.712 2.712h-0.788v1h0.788c0.216 1.393 1.319 2.496 2.712 2.712v0.788h1v-0.788c1.393-0.216 2.496-1.319 2.712-2.712h0.788v-1zM6.194 3.5h-0.779c-0.151-0.426-0.488-0.764-0.915-0.915v-0.779c0.84 0.191 1.503 0.854 1.694 1.694zM4 4.5c-0.276 0-0.5-0.224-0.5-0.5s0.224-0.5 0.5-0.5c0.276 0 0.5 0.224 0.5 0.5s-0.224 0.5-0.5 0.5zM3.5 1.806v0.779c-0.426 0.151-0.764 0.488-0.915 0.915h-0.779c0.191-0.84 0.854-1.503 1.694-1.694zM1.806 4.5h0.779c0.151 0.426 0.488 0.764 0.915 0.915v0.779c-0.84-0.191-1.503-0.854-1.694-1.694zM4.5 6.194v-0.779c0.426-0.151 0.764-0.488 0.915-0.915h0.779c-0.191 0.84-0.854 1.503-1.694 1.694z"></path>
</svg>
