<!-- Generated by IcoMoon.io -->
<svg version="1.1" xmlns="http://www.w3.org/2000/svg" width="8" height="8" viewBox="0 0 8 8">
<title>ticket</title>
<path d="M4.5 2.5l1 1-2 2-1-1zM7.824 2.324l-0.574-0.574-0.25 0.25c-0.128 0.128-0.305 0.207-0.5 0.207-0.391 0-0.707-0.317-0.707-0.707 0-0.195 0.079-0.372 0.207-0.5l0.25-0.25-0.574-0.574c-0.234-0.234-0.617-0.234-0.851 0l-4.649 4.649c-0.234 0.234-0.234 0.617 0 0.851l0.574 0.574 0.25-0.25c0.128-0.128 0.305-0.207 0.5-0.207 0.391 0 0.707 0.317 0.707 0.707 0 0.195-0.079 0.372-0.207 0.5l-0.25 0.25 0.574 0.574c0.234 0.234 0.617 0.234 0.851 0l4.649-4.649c0.234-0.234 0.234-0.617 0-0.851zM3.5 6.5l-2-2 3-3 2 2-3 3z"></path>
</svg>
