<!-- Generated by IcoMoon.io -->
<svg version="1.1" xmlns="http://www.w3.org/2000/svg" width="8" height="8" viewBox="0 0 8 8">
<title>tongue</title>
<path d="M4 8c2.209 0 4-1.791 4-4s-1.791-4-4-4-4 1.791-4 4 1.791 4 4 4zM4 0.75c1.795 0 3.25 1.455 3.25 3.25s-1.455 3.25-3.25 3.25-3.25-1.455-3.25-3.25 1.455-3.25 3.25-3.25zM2 2.5c0-0.276 0.224-0.5 0.5-0.5s0.5 0.224 0.5 0.5c0 0.276-0.224 0.5-0.5 0.5s-0.5-0.224-0.5-0.5zM5 2.5c0-0.276 0.224-0.5 0.5-0.5s0.5 0.224 0.5 0.5c0 0.276-0.224 0.5-0.5 0.5s-0.5-0.224-0.5-0.5zM6 4.5v0.5h-0.5v0.75c0 0.414-0.336 0.75-0.75 0.75s-0.75-0.336-0.75-0.75v-0.75h-2v-0.5h4z"></path>
</svg>
