<!-- Generated by IcoMoon.io -->
<svg version="1.1" xmlns="http://www.w3.org/2000/svg" width="8" height="8" viewBox="0 0 8 8">
<title>tree</title>
<path d="M7.625 6h-0.125v-1.625c0-0.482-0.393-0.875-0.875-0.875h-2.125v-1h0.125c0.206 0 0.375-0.169 0.375-0.375v-1.25c0-0.206-0.169-0.375-0.375-0.375h-1.25c-0.206 0-0.375 0.169-0.375 0.375v1.25c0 0.206 0.169 0.375 0.375 0.375h0.125v1h-2.125c-0.482 0-0.875 0.393-0.875 0.875v1.625h-0.125c-0.206 0-0.375 0.169-0.375 0.375v1.25c0 0.206 0.169 0.375 0.375 0.375h1.25c0.206 0 0.375-0.169 0.375-0.375v-1.25c0-0.206-0.169-0.375-0.375-0.375h-0.125v-1.5h2v1.5h-0.125c-0.206 0-0.375 0.169-0.375 0.375v1.25c0 0.206 0.169 0.375 0.375 0.375h1.25c0.206 0 0.375-0.169 0.375-0.375v-1.25c0-0.206-0.169-0.375-0.375-0.375h-0.125v-1.5h2v1.5h-0.125c-0.206 0-0.375 0.169-0.375 0.375v1.25c0 0.206 0.169 0.375 0.375 0.375h1.25c0.206 0 0.375-0.169 0.375-0.375v-1.25c0-0.206-0.169-0.375-0.375-0.375zM1.5 7.5h-1v-1h1v1zM4.5 7.5h-1v-1h1v1zM3.5 2v-1h1v1h-1zM7.5 7.5h-1v-1h1v1z"></path>
</svg>
