<!-- Generated by IcoMoon.io -->
<svg version="1.1" xmlns="http://www.w3.org/2000/svg" width="8" height="8" viewBox="0 0 8 8">
<title>trello</title>
<path d="M7.25 0h-6.5c-0.412 0-0.75 0.338-0.75 0.75v6.5c0 0.412 0.338 0.75 0.75 0.75h6.5c0.412 0 0.75-0.338 0.75-0.75v-6.5c0-0.412-0.338-0.75-0.75-0.75zM3.5 6c0 0.275-0.225 0.5-0.5 0.5h-1c-0.275 0-0.5-0.225-0.5-0.5v-4c0-0.275 0.225-0.5 0.5-0.5h1c0.275 0 0.5 0.225 0.5 0.5v4zM6.5 4.5c0 0.275-0.225 0.5-0.5 0.5h-1c-0.275 0-0.5-0.225-0.5-0.5v-2.5c0-0.275 0.225-0.5 0.5-0.5h1c0.275 0 0.5 0.225 0.5 0.5v2.5z"></path>
</svg>
