<!-- Generated by IcoMoon.io -->
<svg version="1.1" xmlns="http://www.w3.org/2000/svg" width="8" height="8" viewBox="0 0 8 8">
<title>truck</title>
<path d="M8 4.5l-1-2h-1.5v-1c0-0.275-0.225-0.5-0.5-0.5h-4.5c-0.275 0-0.5 0.225-0.5 0.5v4l0.5 0.5h0.634c-0.085 0.147-0.134 0.318-0.134 0.5 0 0.552 0.448 1 1 1s1-0.448 1-1c0-0.182-0.049-0.353-0.134-0.5h2.768c-0.085 0.147-0.134 0.318-0.134 0.5 0 0.552 0.448 1 1 1s1-0.448 1-1c0-0.182-0.049-0.353-0.134-0.5h0.634v-1.5zM5.5 4.5v-1.5h1.036l0.75 1.5h-1.786z"></path>
</svg>
