<!-- Generated by IcoMoon.io -->
<svg version="1.1" xmlns="http://www.w3.org/2000/svg" width="8" height="8" viewBox="0 0 8 8">
<title>tumblr</title>
<path d="M4.5 3.5l-0 1.83c0 0.464-0.006 0.732 0.043 0.863s0.171 0.267 0.305 0.345c0.177 0.106 0.379 0.159 0.607 0.159 0.405 0 0.644-0.053 1.045-0.317v1.203c-0.341 0.161-0.64 0.255-0.917 0.32s-0.577 0.097-0.899 0.097c-0.366 0-0.582-0.046-0.863-0.138s-0.521-0.225-0.719-0.395c-0.199-0.171-0.336-0.353-0.413-0.546s-0.115-0.472-0.115-0.838v-2.805h-1.074v-1.133c0.314-0.102 0.665-0.248 0.889-0.439 0.225-0.191 0.404-0.42 0.54-0.687s0.229-0.607 0.28-1.020h1.29l-0 2h2v1.5h-2z"></path>
</svg>
