<!-- Generated by IcoMoon.io -->
<svg version="1.1" xmlns="http://www.w3.org/2000/svg" width="8" height="8" viewBox="0 0 8 8">
<title>tumblr2</title>
<path d="M7.25 0h-6.5c-0.412 0-0.75 0.338-0.75 0.75v6.5c0 0.412 0.338 0.75 0.75 0.75h6.5c0.412 0 0.75-0.338 0.75-0.75v-6.5c0-0.412-0.338-0.75-0.75-0.75zM5.717 6.442c-0.236 0.111-0.45 0.189-0.641 0.234-0.191 0.044-0.398 0.067-0.62 0.067-0.253 0-0.402-0.031-0.595-0.095s-0.359-0.155-0.497-0.272c-0.138-0.119-0.231-0.244-0.284-0.377s-0.080-0.325-0.080-0.578v-1.936h-0.75v-0.781c0.217-0.070 0.469-0.172 0.622-0.303 0.155-0.131 0.28-0.289 0.372-0.473 0.094-0.184 0.158-0.419 0.194-0.703h0.784v1.275h1.278v0.986h-1.277v1.416c0 0.32-0.005 0.505 0.030 0.595s0.119 0.184 0.211 0.237c0.122 0.073 0.263 0.109 0.419 0.109 0.28 0 0.558-0.091 0.834-0.272v0.87z"></path>
</svg>
