<!-- Generated by IcoMoon.io -->
<svg version="1.1" xmlns="http://www.w3.org/2000/svg" width="8" height="8" viewBox="0 0 8 8">
<title>tux</title>
<path d="M4.435 5.757c-0.64 0.298-1.236 0.295-1.635 0.266-0.477-0.034-0.861-0.165-1.029-0.279-0.104-0.070-0.245-0.043-0.316 0.061s-0.043 0.245 0.061 0.316c0.271 0.183 0.751 0.32 1.251 0.356 0.085 0.006 0.178 0.010 0.278 0.010 0.436 0 0.989-0.042 1.581-0.317 0.114-0.053 0.163-0.188 0.11-0.302s-0.188-0.163-0.302-0.11zM6.961 5.42c0.022-1.974 0.225-5.705-3.554-5.403-3.731 0.3-2.742 4.242-2.798 5.562-0.049 0.698-0.281 1.552-0.609 2.421h1.009c0.104-0.368 0.18-0.732 0.213-1.079 0.061 0.042 0.126 0.083 0.195 0.123 0.113 0.067 0.21 0.155 0.313 0.249 0.24 0.219 0.512 0.467 1.045 0.498 0.036 0.002 0.072 0.003 0.107 0.003 0.538 0 0.906-0.236 1.202-0.425 0.142-0.091 0.264-0.169 0.379-0.207 0.327-0.103 0.614-0.268 0.827-0.479 0.033-0.033 0.064-0.067 0.093-0.101 0.119 0.437 0.282 0.928 0.463 1.418h2.154c-0.517-0.799-1.050-1.581-1.039-2.58zM0.97 4.346c0-0 0-0-0-0-0.037-0.644 0.271-1.186 0.688-1.21s0.786 0.478 0.823 1.123c0 0 0 0 0 0 0.002 0.035 0.003 0.069 0.003 0.103-0.132 0.033-0.252 0.082-0.358 0.138-0-0.005-0.001-0.010-0.001-0.014 0-0 0-0 0-0-0.036-0.366-0.231-0.642-0.436-0.617s-0.343 0.342-0.307 0.707c0 0 0 0 0 0 0.016 0.159 0.061 0.302 0.125 0.41-0.016 0.013-0.061 0.045-0.113 0.083-0.039 0.028-0.086 0.063-0.143 0.105-0.155-0.204-0.262-0.497-0.281-0.827zM5.197 5.939c-0.015 0.341-0.46 0.661-0.872 0.789l-0.002 0.001c-0.171 0.055-0.324 0.153-0.485 0.256-0.271 0.174-0.552 0.353-0.957 0.353-0.027 0-0.054-0.001-0.081-0.002-0.371-0.022-0.545-0.18-0.765-0.38-0.116-0.106-0.236-0.215-0.39-0.306l-0.003-0.002c-0.334-0.188-0.541-0.423-0.554-0.627-0.007-0.101 0.039-0.189 0.134-0.261 0.208-0.156 0.347-0.258 0.44-0.325 0.102-0.075 0.133-0.098 0.156-0.119 0.016-0.016 0.034-0.033 0.053-0.051 0.191-0.186 0.511-0.497 1.001-0.497 0.3 0 0.632 0.116 0.986 0.343 0.167 0.108 0.312 0.158 0.495 0.222 0.126 0.044 0.269 0.093 0.461 0.175l0.003 0.001c0.179 0.073 0.39 0.208 0.38 0.429zM5.099 5.139c-0.034-0.017-0.070-0.034-0.107-0.049-0.173-0.074-0.311-0.124-0.426-0.164 0.063-0.124 0.103-0.279 0.106-0.447 0-0 0-0 0-0 0.009-0.409-0.198-0.741-0.461-0.742s-0.484 0.331-0.493 0.74c0 0 0 0 0 0-0 0.013-0 0.027-0 0.040-0.162-0.075-0.322-0.129-0.478-0.162-0.001-0.015-0.002-0.031-0.002-0.046 0-0 0-0 0-0-0.015-0.745 0.442-1.362 1.022-1.378s1.061 0.576 1.076 1.321c0 0 0 0 0 0 0.007 0.337-0.083 0.647-0.237 0.888z"></path>
</svg>
