<!-- Generated by IcoMoon.io -->
<svg version="1.1" xmlns="http://www.w3.org/2000/svg" width="8" height="8" viewBox="0 0 8 8">
<title>tv</title>
<path d="M7.666 2.251c-0.694-0.1-1.433-0.172-2.204-0.213l1.288-1.288-0.5-0.5-1.754 1.754c-0.164-0.003-0.329-0.004-0.496-0.004v0l-2-2-0.5 0.5 1.517 1.517c-0.945 0.033-1.846 0.113-2.683 0.234-0.215 0.842-0.334 1.772-0.334 2.749s0.119 1.908 0.334 2.749c1.122 0.161 2.362 0.251 3.666 0.251s2.543-0.090 3.666-0.251c0.215-0.842 0.334-1.771 0.334-2.749s-0.119-1.908-0.334-2.749zM6.749 6.833c-0.842 0.108-1.771 0.167-2.749 0.167s-1.908-0.060-2.749-0.167c-0.161-0.561-0.251-1.181-0.251-1.833s0.090-1.272 0.251-1.833c0.842-0.108 1.771-0.167 2.749-0.167s1.908 0.060 2.749 0.167c0.161 0.561 0.251 1.181 0.251 1.833s-0.090 1.272-0.251 1.833z"></path>
</svg>
