<!-- Generated by IcoMoon.io -->
<svg version="1.1" xmlns="http://www.w3.org/2000/svg" width="8" height="8" viewBox="0 0 8 8">
<title>twitter</title>
<path d="M8 1.769c-0.294 0.131-0.611 0.219-0.942 0.258 0.339-0.203 0.598-0.525 0.722-0.908-0.317 0.188-0.669 0.325-1.042 0.398-0.3-0.319-0.727-0.517-1.198-0.517-0.906 0-1.641 0.734-1.641 1.641 0 0.128 0.014 0.253 0.042 0.373-1.364-0.069-2.573-0.722-3.383-1.716-0.141 0.242-0.222 0.525-0.222 0.825 0 0.569 0.289 1.072 0.73 1.366-0.269-0.008-0.522-0.083-0.744-0.205 0 0.006 0 0.014 0 0.020 0 0.795 0.566 1.459 1.317 1.609-0.137 0.037-0.283 0.058-0.433 0.058-0.106 0-0.208-0.011-0.309-0.030 0.209 0.652 0.816 1.127 1.533 1.141-0.563 0.441-1.269 0.703-2.039 0.703-0.133 0-0.263-0.008-0.392-0.023 0.728 0.467 1.591 0.737 2.517 0.737 3.019 0 4.67-2.502 4.67-4.67 0-0.072-0.002-0.142-0.005-0.212 0.32-0.23 0.598-0.519 0.819-0.848z"></path>
</svg>
