<!-- Generated by IcoMoon.io -->
<svg version="1.1" xmlns="http://www.w3.org/2000/svg" width="8" height="8" viewBox="0 0 8 8">
<title>ungroup</title>
<path d="M3 3.625c0 0.206-0.169 0.375-0.375 0.375h-0.75c-0.206 0-0.375-0.169-0.375-0.375v-0.75c0-0.206 0.169-0.375 0.375-0.375h0.75c0.206 0 0.375 0.169 0.375 0.375v0.75z"></path>
<path d="M5.5 3.625c0 0.206-0.169 0.375-0.375 0.375h-0.75c-0.206 0-0.375-0.169-0.375-0.375v-0.75c0-0.206 0.169-0.375 0.375-0.375h0.75c0.206 0 0.375 0.169 0.375 0.375v0.75z"></path>
<path d="M3 6.125c0 0.206-0.169 0.375-0.375 0.375h-0.75c-0.206 0-0.375-0.169-0.375-0.375v-0.75c0-0.206 0.169-0.375 0.375-0.375h0.75c0.206 0 0.375 0.169 0.375 0.375v0.75z"></path>
<path d="M5.5 6.125c0 0.206-0.169 0.375-0.375 0.375h-0.75c-0.206 0-0.375-0.169-0.375-0.375v-0.75c0-0.206 0.169-0.375 0.375-0.375h0.75c0.206 0 0.375 0.169 0.375 0.375v0.75z"></path>
<path d="M7.126 1.25l0.874-0.874v-0.376h-0.376l-0.874 0.874-0.874-0.874h-0.376v0.376l0.874 0.874-0.874 0.874v0.376h0.376l0.874-0.874 0.874 0.874h0.376v-0.376z"></path>
<path d="M0 6h0.5v1h-0.5v-1z"></path>
<path d="M0 4.5h0.5v1h-0.5v-1z"></path>
<path d="M6.5 3.5h0.5v1h-0.5v-1z"></path>
<path d="M6.5 6.5h0.5v1h-0.5v-1z"></path>
<path d="M6.5 5h0.5v1h-0.5v-1z"></path>
<path d="M0 3h0.5v1h-0.5v-1z"></path>
<path d="M0 1.5h0.5v1h-0.5v-1z"></path>
<path d="M4 1h1v0.5h-1v-0.5z"></path>
<path d="M2.5 1h1v0.5h-1v-0.5z"></path>
<path d="M1 1h1v0.5h-1v-0.5z"></path>
<path d="M3.5 7.5h1v0.5h-1v-0.5z"></path>
<path d="M5 7.5h1v0.5h-1v-0.5z"></path>
<path d="M2 7.5h1v0.5h-1v-0.5z"></path>
<path d="M0.5 7.5h1v0.5h-1v-0.5z"></path>
</svg>
