<!-- Generated by IcoMoon.io -->
<svg version="1.1" xmlns="http://www.w3.org/2000/svg" width="8" height="8" viewBox="0 0 8 8">
<title>user-minus</title>
<path d="M3 5.75c0-1.182 0.749-2.191 1.797-2.58 0.127-0.285 0.203-0.603 0.203-0.92 0-1.243 0-2.25-1.5-2.25s-1.5 1.007-1.5 2.25c0 0.774 0.449 1.548 1 1.858v0.412c-1.696 0.139-3 0.972-3 1.98h3.104c-0.068-0.239-0.104-0.49-0.104-0.75z"></path>
<path d="M5.75 3.5c-1.243 0-2.25 1.007-2.25 2.25s1.007 2.25 2.25 2.25c1.243 0 2.25-1.007 2.25-2.25s-1.007-2.25-2.25-2.25zM7 6h-2.5v-0.5h2.5v0.5z"></path>
</svg>
