<!-- Generated by IcoMoon.io -->
<svg version="1.1" xmlns="http://www.w3.org/2000/svg" width="9" height="8" viewBox="0 0 9 8">
<title>users</title>
<path d="M6 6.020v-0.412c0.551-0.31 1-1.084 1-1.858 0-1.243 0-2.25-1.5-2.25s-1.5 1.007-1.5 2.25c0 0.774 0.449 1.548 1 1.858v0.412c-1.696 0.139-3 0.972-3 1.98h7c0-1.008-1.304-1.841-3-1.98z"></path>
<path d="M2.556 6.213c0.432-0.282 0.969-0.497 1.561-0.628-0.118-0.139-0.224-0.294-0.316-0.461-0.238-0.432-0.363-0.907-0.363-1.374 0-0.672 0-1.307 0.239-1.826 0.232-0.504 0.649-0.816 1.244-0.933-0.132-0.598-0.484-0.99-1.42-0.99-1.5 0-1.5 1.007-1.5 2.25 0 0.774 0.449 1.548 1 1.858v0.412c-1.696 0.139-3 0.972-3 1.98h2.18c0.113-0.101 0.239-0.197 0.376-0.287z"></path>
</svg>
