<!-- Generated by IcoMoon.io -->
<svg version="1.1" xmlns="http://www.w3.org/2000/svg" width="8" height="8" viewBox="0 0 8 8">
<title>video-camera</title>
<path d="M3 2.25c0-0.69 0.56-1.25 1.25-1.25s1.25 0.56 1.25 1.25c0 0.69-0.56 1.25-1.25 1.25s-1.25-0.56-1.25-1.25zM0 2.25c0-0.69 0.56-1.25 1.25-1.25s1.25 0.56 1.25 1.25c0 0.69-0.56 1.25-1.25 1.25s-1.25-0.56-1.25-1.25zM6 4.75v-0.75c0-0.275-0.225-0.5-0.5-0.5h-5c-0.275 0-0.5 0.225-0.5 0.5v2.5c0 0.275 0.225 0.5 0.5 0.5h5c0.275 0 0.5-0.225 0.5-0.5v-0.75l2 1.25v-3.5l-2 1.25zM5 6h-4v-1.5h4v1.5z"></path>
</svg>
