<!-- Generated by IcoMoon.io -->
<svg version="1.1" xmlns="http://www.w3.org/2000/svg" width="8" height="8" viewBox="0 0 8 8">
<title>vimeo</title>
<path d="M7.997 2.141c-0.036 0.778-0.58 1.845-1.631 3.198-1.088 1.413-2.008 2.12-2.761 2.12-0.466 0-0.861-0.43-1.183-1.291-0.216-0.789-0.43-1.578-0.645-2.367-0.239-0.861-0.495-1.291-0.77-1.291-0.059 0-0.269 0.127-0.628 0.377l-0.377-0.484c0.395-0.347 0.784-0.694 1.167-1.041 0.527-0.455 0.922-0.694 1.186-0.719 0.622-0.059 1.006 0.366 1.15 1.277 0.155 0.983 0.263 1.594 0.323 1.833 0.18 0.816 0.377 1.223 0.592 1.223 0.167 0 0.419-0.264 0.755-0.794 0.334-0.528 0.514-0.931 0.539-1.208 0.048-0.456-0.131-0.686-0.539-0.686-0.192 0-0.389 0.044-0.592 0.131 0.394-1.288 1.144-1.913 2.253-1.877 0.82 0.022 1.208 0.555 1.161 1.597z"></path>
</svg>
