<!-- Generated by IcoMoon.io -->
<svg version="1.1" xmlns="http://www.w3.org/2000/svg" width="8" height="8" viewBox="0 0 8 8">
<title>vimeo2</title>
<path d="M7.25 0h-6.5c-0.412 0-0.75 0.338-0.75 0.75v6.5c0 0.412 0.338 0.75 0.75 0.75h6.5c0.412 0 0.75-0.338 0.75-0.75v-6.5c0-0.412-0.338-0.75-0.75-0.75zM6.731 2.656c-0.025 0.563-0.419 1.333-1.18 2.311-0.786 1.022-1.452 1.533-1.995 1.533-0.337 0-0.622-0.311-0.855-0.933-0.156-0.57-0.311-1.141-0.467-1.711-0.172-0.622-0.358-0.933-0.556-0.933-0.044 0-0.195 0.091-0.453 0.272l-0.272-0.35c0.286-0.25 0.567-0.502 0.844-0.752 0.381-0.328 0.666-0.502 0.856-0.519 0.45-0.044 0.727 0.264 0.831 0.922 0.112 0.711 0.191 1.152 0.234 1.325 0.13 0.589 0.272 0.883 0.428 0.883 0.12 0 0.303-0.191 0.545-0.573s0.372-0.673 0.389-0.873c0.034-0.33-0.095-0.495-0.389-0.495-0.139 0-0.281 0.031-0.428 0.095 0.284-0.93 0.827-1.383 1.628-1.356 0.594 0.017 0.873 0.402 0.839 1.155z"></path>
</svg>
