<!-- Generated by IcoMoon.io -->
<svg version="1.1" xmlns="http://www.w3.org/2000/svg" width="8" height="8" viewBox="0 0 8 8">
<title>vine</title>
<path d="M7.506 3.977c-0.206 0.047-0.405 0.069-0.584 0.069-1.009 0-1.786-0.705-1.786-1.931 0-0.602 0.233-0.913 0.561-0.913 0.313 0 0.52 0.28 0.52 0.848 0 0.323-0.086 0.678-0.15 0.888 0 0 0.311 0.542 1.161 0.377 0.181-0.402 0.278-0.92 0.278-1.375 0-1.225-0.625-1.939-1.77-1.939-1.178 0-1.867 0.905-1.867 2.098 0 1.183 0.553 2.197 1.464 2.659-0.383 0.767-0.87 1.442-1.38 1.952-0.922-1.116-1.756-2.603-2.098-5.508h-1.361c0.63 4.838 2.503 6.378 3 6.673 0.28 0.169 0.522 0.161 0.778 0.016 0.403-0.228 1.611-1.438 2.281-2.852 0.281 0 0.619-0.033 0.955-0.109v-0.953z"></path>
</svg>
