<!-- Generated by IcoMoon.io -->
<svg version="1.1" xmlns="http://www.w3.org/2000/svg" width="8" height="8" viewBox="0 0 8 8">
<title>vk</title>
<path d="M7.25 0h-6.5c-0.412 0-0.75 0.338-0.75 0.75v6.5c0 0.412 0.338 0.75 0.75 0.75h6.5c0.412 0 0.75-0.338 0.75-0.75v-6.5c0-0.412-0.338-0.75-0.75-0.75zM6.48 5.6l-0.731 0.011c0 0-0.158 0.031-0.364-0.111-0.273-0.188-0.531-0.677-0.733-0.612-0.203 0.064-0.197 0.503-0.197 0.503s0.002 0.094-0.045 0.144c-0.050 0.055-0.15 0.066-0.15 0.066h-0.327c0 0-0.722 0.044-1.358-0.619-0.694-0.722-1.306-2.155-1.306-2.155s-0.036-0.094 0.003-0.139c0.044-0.052 0.161-0.055 0.161-0.055l0.783-0.005c0 0 0.073 0.013 0.127 0.052 0.044 0.031 0.067 0.092 0.067 0.092s0.127 0.32 0.294 0.609c0.327 0.564 0.48 0.687 0.591 0.628 0.161-0.087 0.112-0.798 0.112-0.798s0.003-0.258-0.081-0.372c-0.066-0.089-0.189-0.116-0.242-0.122-0.044-0.006 0.028-0.108 0.122-0.155 0.141-0.069 0.389-0.073 0.683-0.070 0.228 0.002 0.295 0.017 0.384 0.038 0.27 0.066 0.178 0.317 0.178 0.92 0 0.194-0.034 0.466 0.105 0.555 0.059 0.039 0.206 0.006 0.573-0.617 0.173-0.295 0.305-0.642 0.305-0.642s0.028-0.063 0.072-0.089c0.045-0.027 0.106-0.019 0.106-0.019l0.823-0.005c0 0 0.247-0.030 0.287 0.083 0.042 0.117-0.092 0.391-0.428 0.839-0.552 0.736-0.614 0.667-0.155 1.092 0.438 0.406 0.528 0.605 0.544 0.63 0.178 0.3-0.203 0.323-0.203 0.323z"></path>
</svg>
