<!-- Generated by IcoMoon.io -->
<svg version="1.1" xmlns="http://www.w3.org/2000/svg" width="8" height="8" viewBox="0 0 8 8">
<title>warning</title>
<path d="M4 0.725l3.352 6.681h-6.705l3.352-6.681zM4 0c-0.172 0-0.345 0.116-0.476 0.349l-3.415 6.806c-0.262 0.465-0.039 0.846 0.495 0.846h6.791c0.534 0 0.756-0.381 0.495-0.846h0l-3.415-6.806c-0.131-0.233-0.303-0.349-0.476-0.349v0z"></path>
<path d="M4.5 6.5c0 0.276-0.224 0.5-0.5 0.5s-0.5-0.224-0.5-0.5c0-0.276 0.224-0.5 0.5-0.5s0.5 0.224 0.5 0.5z"></path>
<path d="M4 5.5c-0.276 0-0.5-0.224-0.5-0.5v-1.5c0-0.276 0.224-0.5 0.5-0.5s0.5 0.224 0.5 0.5v1.5c0 0.276-0.224 0.5-0.5 0.5z"></path>
</svg>
