<!-- Generated by IcoMoon.io -->
<svg version="1.1" xmlns="http://www.w3.org/2000/svg" width="8" height="8" viewBox="0 0 8 8">
<title>whatsapp</title>
<path d="M6.82 1.163c-0.748-0.75-1.744-1.163-2.805-1.163-2.184 0-3.962 1.778-3.962 3.964 0 0.698 0.183 1.381 0.53 1.981l-0.563 2.055 2.102-0.552c0.58 0.316 1.231 0.483 1.894 0.483h0.002c0 0 0 0 0 0 2.184 0 3.964-1.778 3.964-3.964 0-1.059-0.412-2.055-1.161-2.805zM4.017 7.263v0c-0.592 0-1.172-0.159-1.678-0.459l-0.12-0.072-1.247 0.327 0.333-1.216-0.078-0.125c-0.331-0.523-0.505-1.13-0.505-1.753 0-1.817 1.478-3.295 3.297-3.295 0.88 0 1.708 0.344 2.33 0.966 0.622 0.623 0.964 1.45 0.964 2.331-0.002 1.819-1.48 3.297-3.295 3.297zM5.823 4.794c-0.098-0.050-0.586-0.289-0.677-0.322s-0.156-0.050-0.223 0.050c-0.066 0.098-0.256 0.322-0.314 0.389-0.058 0.066-0.116 0.075-0.214 0.025s-0.419-0.155-0.797-0.492c-0.294-0.263-0.494-0.587-0.552-0.686s-0.006-0.153 0.044-0.202c0.045-0.044 0.098-0.116 0.148-0.173s0.066-0.098 0.098-0.166c0.033-0.066 0.017-0.123-0.008-0.173s-0.223-0.538-0.305-0.736c-0.080-0.194-0.163-0.167-0.223-0.17-0.058-0.003-0.123-0.003-0.189-0.003s-0.173 0.025-0.264 0.123c-0.091 0.098-0.347 0.339-0.347 0.827s0.355 0.958 0.405 1.025c0.050 0.066 0.698 1.067 1.692 1.495 0.236 0.102 0.42 0.162 0.564 0.209 0.237 0.075 0.453 0.064 0.623 0.039 0.191-0.028 0.586-0.239 0.669-0.47s0.083-0.43 0.058-0.47c-0.023-0.044-0.089-0.069-0.189-0.119z"></path>
</svg>
