<!-- Generated by IcoMoon.io -->
<svg version="1.1" xmlns="http://www.w3.org/2000/svg" width="8" height="8" viewBox="0 0 8 8">
<title>wikipedia</title>
<path d="M7.553 1.825c0 0.025-0.008 0.048-0.023 0.070-0.016 0.020-0.033 0.031-0.053 0.031-0.156 0.016-0.284 0.066-0.383 0.15-0.1 0.084-0.202 0.248-0.306 0.487l-1.612 3.636c-0.011 0.034-0.041 0.050-0.089 0.050-0.037 0-0.067-0.017-0.089-0.050l-0.905-1.891-1.041 1.891c-0.022 0.034-0.050 0.050-0.089 0.050-0.047 0-0.077-0.017-0.092-0.050l-1.583-3.634c-0.098-0.225-0.203-0.383-0.313-0.472s-0.262-0.145-0.458-0.166c-0.017 0-0.033-0.009-0.047-0.027-0.016-0.017-0.022-0.038-0.022-0.061 0-0.059 0.017-0.089 0.050-0.089 0.141 0 0.289 0.006 0.444 0.019 0.144 0.012 0.278 0.019 0.405 0.019 0.128 0 0.281-0.006 0.456-0.019 0.183-0.012 0.345-0.019 0.488-0.019 0.034 0 0.050 0.030 0.050 0.089s-0.011 0.087-0.031 0.087c-0.141 0.011-0.253 0.047-0.334 0.108s-0.122 0.141-0.122 0.241c0 0.050 0.017 0.114 0.050 0.189l1.308 2.956 0.744-1.403-0.692-1.452c-0.125-0.259-0.227-0.427-0.306-0.502s-0.202-0.12-0.364-0.137c-0.016 0-0.028-0.009-0.042-0.027s-0.020-0.038-0.020-0.061c0-0.059 0.014-0.089 0.044-0.089 0.141 0 0.27 0.006 0.389 0.019 0.114 0.012 0.234 0.019 0.364 0.019 0.127 0 0.259-0.006 0.402-0.019 0.145-0.012 0.289-0.019 0.43-0.019 0.034 0 0.050 0.030 0.050 0.089s-0.009 0.087-0.031 0.087c-0.283 0.019-0.423 0.1-0.423 0.241 0 0.063 0.033 0.161 0.098 0.294l0.458 0.93 0.456-0.85c0.063-0.12 0.095-0.222 0.095-0.303 0-0.194-0.141-0.297-0.423-0.309-0.025 0-0.037-0.030-0.037-0.087 0-0.022 0.006-0.041 0.019-0.059s0.025-0.028 0.037-0.028c0.102 0 0.225 0.006 0.373 0.019 0.141 0.012 0.258 0.019 0.348 0.019 0.066 0 0.161-0.006 0.287-0.016 0.159-0.014 0.294-0.022 0.402-0.022 0.025 0 0.037 0.025 0.037 0.075 0 0.067-0.023 0.102-0.069 0.102-0.164 0.017-0.297 0.063-0.397 0.136s-0.225 0.241-0.375 0.503l-0.611 1.119 0.822 1.675 1.214-2.823c0.042-0.103 0.063-0.198 0.063-0.284 0-0.206-0.141-0.316-0.423-0.33-0.025 0-0.037-0.030-0.037-0.087 0-0.059 0.019-0.089 0.056-0.089 0.103 0 0.225 0.006 0.367 0.019 0.131 0.012 0.241 0.019 0.328 0.019 0.094 0 0.2-0.006 0.322-0.019 0.127-0.012 0.241-0.019 0.342-0.019 0.031 0 0.047 0.025 0.047 0.075z"></path>
</svg>
