<!-- Generated by IcoMoon.io -->
<svg version="1.1" xmlns="http://www.w3.org/2000/svg" width="8" height="8" viewBox="0 0 8 8">
<title>windows</title>
<path d="M3.221 3.999c-0.373-0.192-0.735-0.289-1.077-0.289-0.047 0-0.093 0.001-0.14 0.006-0.437 0.036-0.835 0.151-1.092 0.241-0.068 0.025-0.138 0.051-0.21 0.081l-0.702 2.433c0.482-0.178 0.909-0.265 1.299-0.265 0.632 0 1.090 0.236 1.469 0.479 0.179-0.609 0.61-2.079 0.738-2.518-0.093-0.057-0.188-0.114-0.285-0.167zM4.128 4.618l-0.707 2.454c0.21 0.12 0.915 0.5 1.455 0.5 0.436 0 0.924-0.112 1.491-0.342l0.675-2.359c-0.458 0.148-0.897 0.223-1.308 0.223-0.75 0-1.274-0.243-1.605-0.476zM2.288 2.881c0.602 0.006 1.048 0.236 1.417 0.473l0.725-2.479c-0.153-0.087-0.553-0.305-0.843-0.38-0.191-0.044-0.391-0.067-0.603-0.067-0.405 0.008-0.847 0.109-1.351 0.311l-0.691 2.427c0.506-0.191 0.943-0.284 1.344-0.284 0 0 0.001 0 0.001 0zM8 1.548c-0.459 0.178-0.908 0.269-1.336 0.269-0.716 0-1.244-0.248-1.587-0.487l-0.718 2.486c0.482 0.31 1.002 0.468 1.548 0.468 0.445 0 0.906-0.107 1.371-0.318l-0.001-0.017 0.029-0.007 0.695-2.394z"></path>
</svg>
