<!-- Generated by IcoMoon.io -->
<svg version="1.1" xmlns="http://www.w3.org/2000/svg" width="8" height="8" viewBox="0 0 8 8">
<title>wink</title>
<path d="M4 8c2.209 0 4-1.791 4-4s-1.791-4-4-4-4 1.791-4 4 1.791 4 4 4zM4 0.75c1.795 0 3.25 1.455 3.25 3.25s-1.455 3.25-3.25 3.25-3.25-1.455-3.25-3.25 1.455-3.25 3.25-3.25zM4.24 5.555c1.096-0.216 1.946-0.715 2.254-1.38-0.169 1.312-1.262 2.325-2.585 2.325-0.932 0-1.749-0.502-2.21-1.257 0.55 0.43 1.52 0.514 2.541 0.312zM5 2.75c0-0.414 0.224-0.75 0.5-0.75s0.5 0.336 0.5 0.75c0 0.414-0.224 0.75-0.5 0.75s-0.5-0.336-0.5-0.75zM2.75 2.902c-0.327 0-0.604 0.122-0.707 0.293-0.028-0.046-0.043-0.251-0.043-0.303 0-0.243 0.336-0.439 0.75-0.439s0.75 0.197 0.75 0.439c0 0.051-0.015 0.257-0.043 0.303-0.103-0.171-0.381-0.293-0.707-0.293z"></path>
</svg>
