<!-- Generated by IcoMoon.io -->
<svg version="1.1" xmlns="http://www.w3.org/2000/svg" width="8" height="8" viewBox="0 0 8 8">
<title>wink2</title>
<path d="M4 0c-2.209 0-4 1.791-4 4s1.791 4 4 4c2.209 0 4-1.791 4-4s-1.791-4-4-4zM5.5 2c0.276 0 0.5 0.336 0.5 0.75s-0.224 0.75-0.5 0.75-0.5-0.336-0.5-0.75 0.224-0.75 0.5-0.75zM2.75 2.438c0.466 0 0.797 0.174 0.797 0.448 0 0.058 0.030 0.336-0.001 0.387-0.116-0.192-0.428-0.33-0.796-0.33s-0.68 0.138-0.796 0.33c-0.031-0.052-0.001-0.33-0.001-0.387 0-0.273 0.331-0.448 0.797-0.448zM3.909 6.5c-0.932 0-1.749-0.502-2.21-1.257 0.55 0.43 1.52 0.514 2.541 0.312 1.096-0.216 1.946-0.715 2.254-1.38-0.169 1.312-1.262 2.325-2.585 2.325z"></path>
</svg>
