<!-- Generated by IcoMoon.io -->
<svg version="1.1" xmlns="http://www.w3.org/2000/svg" width="8" height="8" viewBox="0 0 8 8">
<title>woman</title>
<path d="M4.5 0.75c0 0.414-0.336 0.75-0.75 0.75s-0.75-0.336-0.75-0.75c0-0.414 0.336-0.75 0.75-0.75s0.75 0.336 0.75 0.75z"></path>
<path d="M5.617 4l0.383-0.277-1.041-1.61c-0.046-0.070-0.125-0.112-0.209-0.112h-2c-0.084 0-0.162 0.042-0.209 0.112l-1.041 1.61 0.383 0.277 0.864-1.122 0.3 0.701-1.048 1.921h0.958l0.167 2.5h0.5v-2.5h0.25v2.5h0.5l0.167-2.5h0.958l-1.048-1.921 0.3-0.701 0.864 1.122z"></path>
</svg>
