<!-- Generated by IcoMoon.io -->
<svg version="1.1" xmlns="http://www.w3.org/2000/svg" width="8" height="8" viewBox="0 0 8 8">
<title>wordpress</title>
<path d="M1 4c0 1.156 0.69 2.156 1.691 2.63l-1.431-3.819c-0.166 0.363-0.26 0.765-0.26 1.189zM6.025 3.853c0-0.361-0.133-0.611-0.247-0.806-0.152-0.241-0.295-0.444-0.295-0.685 0-0.269 0.209-0.519 0.504-0.519 0.013 0 0.026 0.002 0.039 0.002-0.534-0.476-1.245-0.767-2.026-0.767-1.048 0-1.97 0.524-2.507 1.317 0.070 0.002 0.137 0.004 0.193 0.004 0.314 0 0.8-0.037 0.8-0.037 0.162-0.009 0.181 0.222 0.019 0.241 0 0-0.163 0.018-0.343 0.028l1.092 3.165 0.657-1.918-0.467-1.247c-0.162-0.009-0.315-0.028-0.315-0.028-0.162-0.009-0.143-0.25 0.019-0.241 0 0 0.495 0.037 0.79 0.037 0.314 0 0.8-0.037 0.8-0.037 0.162-0.009 0.181 0.222 0.019 0.241 0 0-0.163 0.019-0.343 0.028l1.084 3.141 0.299-0.974c0.13-0.404 0.228-0.695 0.228-0.945zM4.053 4.255l-0.9 2.547c0.269 0.077 0.553 0.119 0.848 0.119 0.349 0 0.684-0.059 0.996-0.166-0.008-0.013-0.015-0.026-0.021-0.040l-0.922-2.46zM6.633 2.598c0.013 0.093 0.020 0.193 0.020 0.3 0 0.296-0.057 0.63-0.228 1.046l-0.916 2.58c0.892-0.506 1.492-1.448 1.492-2.525 0-0.508-0.133-0.986-0.367-1.402zM4 0c-2.209 0-4 1.791-4 4s1.791 4 4 4 4-1.791 4-4-1.791-4-4-4zM4 7.5c-1.933 0-3.5-1.567-3.5-3.5s1.567-3.5 3.5-3.5 3.5 1.567 3.5 3.5-1.567 3.5-3.5 3.5z"></path>
</svg>
