<!-- Generated by IcoMoon.io -->
<svg version="1.1" xmlns="http://www.w3.org/2000/svg" width="8" height="8" viewBox="0 0 8 8">
<title>wrench</title>
<path d="M7.835 6.39l-3.598-3.084c0.168-0.315 0.263-0.674 0.263-1.056 0-1.243-1.007-2.25-2.25-2.25-0.227 0-0.447 0.034-0.653 0.097l1.3 1.3c0.194 0.194 0.194 0.513 0 0.707l-0.793 0.793c-0.194 0.194-0.513 0.194-0.707 0l-1.3-1.3c-0.063 0.207-0.097 0.426-0.097 0.653 0 1.243 1.007 2.25 2.25 2.25 0.382 0 0.741-0.095 1.056-0.263l3.084 3.598c0.179 0.209 0.484 0.221 0.679 0.026l0.793-0.793c0.194-0.194 0.183-0.5-0.026-0.679z"></path>
</svg>
