<!-- Generated by IcoMoon.io -->
<svg version="1.1" xmlns="http://www.w3.org/2000/svg" width="8" height="8" viewBox="0 0 8 8">
<title>xing2</title>
<path d="M1.216 1.58c-0.069 0-0.128 0.025-0.158 0.072-0.030 0.050-0.025 0.113 0.006 0.177l0.78 1.35c0.002 0.003 0.002 0.005 0 0.006l-1.225 2.166c-0.031 0.064-0.030 0.128 0 0.177 0.030 0.047 0.081 0.078 0.15 0.078h1.153c0.172 0 0.256-0.117 0.314-0.223 0 0 1.198-2.12 1.245-2.203-0.005-0.008-0.794-1.383-0.794-1.383-0.058-0.102-0.144-0.216-0.322-0.216h-1.15z"></path>
<path d="M6.063 0c-0.172 0-0.247 0.108-0.309 0.22 0 0-2.486 4.408-2.567 4.553 0.005 0.008 1.639 3.008 1.639 3.008 0.058 0.102 0.145 0.22 0.322 0.22h1.153c0.069 0 0.123-0.027 0.153-0.073 0.031-0.050 0.030-0.114-0.003-0.178l-1.625-2.973c-0.002-0.003-0.002-0.005 0-0.008l2.555-4.517c0.031-0.064 0.033-0.128 0.003-0.178-0.030-0.047-0.084-0.073-0.153-0.073h-1.167z"></path>
</svg>
