<!-- Generated by IcoMoon.io -->
<svg version="1.1" xmlns="http://www.w3.org/2000/svg" width="8" height="8" viewBox="0 0 8 8">
<title>xing</title>
<path d="M7.25 0h-6.5c-0.412 0-0.75 0.338-0.75 0.75v6.5c0 0.412 0.338 0.75 0.75 0.75h6.5c0.412 0 0.75-0.338 0.75-0.75v-6.5c0-0.412-0.338-0.75-0.75-0.75zM2.442 5.203h-0.864c-0.052 0-0.091-0.023-0.113-0.059-0.023-0.037-0.023-0.084 0-0.133l0.919-1.622c0.002-0.002 0.002-0.003 0-0.005l-0.584-1.013c-0.023-0.048-0.028-0.095-0.005-0.133 0.022-0.036 0.066-0.055 0.119-0.055h0.866c0.133 0 0.198 0.086 0.241 0.163 0 0 0.591 1.031 0.595 1.038-0.034 0.063-0.934 1.652-0.934 1.652-0.047 0.081-0.109 0.167-0.239 0.167zM6.534 1.189l-1.916 3.387c-0.002 0.002-0.002 0.005 0 0.006l1.22 2.228c0.023 0.048 0.025 0.097 0.002 0.134-0.022 0.036-0.063 0.055-0.116 0.055h-0.864c-0.133 0-0.198-0.088-0.242-0.164 0 0-1.227-2.25-1.23-2.256 0.061-0.108 1.925-3.414 1.925-3.414 0.047-0.083 0.103-0.164 0.231-0.164h0.877c0.052 0 0.094 0.020 0.116 0.055 0.022 0.036 0.022 0.084-0.003 0.133z"></path>
</svg>
