<!-- Generated by IcoMoon.io -->
<svg version="1.1" xmlns="http://www.w3.org/2000/svg" width="8" height="8" viewBox="0 0 8 8">
<title>yahoo2</title>
<path d="M4.009 0.544c-1.414 0-2.75-0.186-4.009-0.544 0 2.827 0 7.291 0 8 1.261-0.358 2.597-0.544 4.009-0.544 1.397 0 2.73 0.181 3.991 0.544 0-2.722 0-5.077 0-8-1.261 0.362-2.592 0.544-3.991 0.544zM6.225 1.227l-0.048 0.077c-0.045 0.072-0.086 0.133-0.142 0.219-0.075 0.113-0.216 0.336-0.384 0.623-0.047 0.080-0.105 0.175-0.164 0.278-0.114 0.192-0.242 0.409-0.344 0.581-0.042 0.073-0.084 0.148-0.128 0.223-0.112 0.195-0.228 0.397-0.339 0.591-0.114 0.202-0.227 0.4-0.339 0.597v0.198c0 0.275 0.006 0.575 0.016 0.842 0.005 0.122 0.009 0.339 0.016 0.569 0.006 0.273 0.013 0.556 0.020 0.7l0.002 0.044v0.005l-0.047-0.013c-0.019-0.005-0.036-0.009-0.055-0.014-0.056-0.013-0.117-0.022-0.177-0.028-0.036-0.003-0.073-0.005-0.111-0.005 0 0 0 0 0 0s0 0 0 0c-0.038 0-0.075 0.002-0.111 0.005-0.059 0.006-0.12 0.016-0.177 0.028-0.019 0.005-0.038 0.009-0.055 0.014l-0.047 0.013v-0.005l0.002-0.044c0.006-0.142 0.014-0.427 0.020-0.7 0.005-0.23 0.011-0.447 0.016-0.569 0.011-0.269 0.016-0.567 0.016-0.842v-0.198c-0.112-0.198-0.225-0.395-0.339-0.597-0.111-0.195-0.227-0.395-0.337-0.591-0.044-0.075-0.086-0.15-0.128-0.223-0.1-0.173-0.23-0.391-0.344-0.581-0.061-0.102-0.119-0.198-0.164-0.278-0.169-0.288-0.309-0.509-0.384-0.623-0.056-0.086-0.097-0.147-0.142-0.219l-0.048-0.077 0.087 0.025c0.111 0.031 0.225 0.047 0.347 0.047s0.239-0.016 0.348-0.047l0.027-0.008 0.014 0.023c0.216 0.389 0.795 1.342 1.142 1.913 0.119 0.197 0.214 0.352 0.261 0.431 0 0 0 0 0-0.002 0 0 0 0 0 0.002 0.047-0.078 0.142-0.234 0.261-0.431 0.347-0.569 0.927-1.522 1.142-1.913l0.014-0.023 0.027 0.008c0.109 0.031 0.227 0.047 0.348 0.047s0.236-0.016 0.347-0.047l0.083-0.025z"></path>
</svg>
