<!-- Generated by IcoMoon.io -->
<svg version="1.1" xmlns="http://www.w3.org/2000/svg" width="8" height="8" viewBox="0 0 8 8">
<title>yelp</title>
<path d="M4.757 5.105c-0.135 0.136-0.021 0.384-0.021 0.384l1.016 1.697c0 0 0.167 0.224 0.311 0.224s0.289-0.119 0.289-0.119l0.803-1.149c0 0 0.081-0.145 0.083-0.272 0.003-0.181-0.269-0.23-0.269-0.23l-1.902-0.611c-0 0-0.186-0.049-0.31 0.076zM4.66 4.25c0.097 0.165 0.366 0.117 0.366 0.117l1.898-0.555c0 0 0.259-0.105 0.296-0.245s-0.043-0.31-0.043-0.31l-0.907-1.068c0 0-0.079-0.135-0.242-0.149-0.18-0.015-0.29 0.202-0.29 0.202l-1.072 1.688c0 0-0.095 0.168-0.005 0.32zM3.764 3.592c0.224-0.055 0.259-0.38 0.259-0.38l-0.015-2.702c0 0-0.034-0.333-0.183-0.424-0.235-0.143-0.305-0.068-0.372-0.058l-1.576 0.586c0 0-0.154 0.051-0.235 0.18-0.115 0.182 0.117 0.45 0.117 0.45l1.638 2.232c0 0 0.162 0.167 0.368 0.116zM3.375 4.685c0.006-0.208-0.25-0.334-0.25-0.334l-1.694-0.856c0 0-0.251-0.103-0.373-0.031-0.093 0.055-0.176 0.155-0.184 0.243l-0.11 1.358c0 0-0.017 0.235 0.044 0.342 0.086 0.152 0.371 0.046 0.371 0.046l1.977-0.437c0.077-0.052 0.212-0.056 0.219-0.332zM3.866 5.418c-0.17-0.087-0.373 0.093-0.373 0.093l-1.324 1.458c0 0-0.165 0.223-0.123 0.36 0.040 0.128 0.105 0.192 0.198 0.237l1.33 0.42c0 0 0.161 0.033 0.283-0.002 0.173-0.050 0.141-0.322 0.141-0.322l0.030-1.973c-0 0-0.007-0.19-0.162-0.271z"></path>
</svg>
