<!-- Generated by IcoMoon.io -->
<svg version="1.1" xmlns="http://www.w3.org/2000/svg" width="8" height="8" viewBox="0 0 8 8">
<title>youtube</title>
<path d="M7.92 2.4c0 0-0.078-0.552-0.319-0.794-0.305-0.319-0.645-0.32-0.802-0.339-1.119-0.081-2.798-0.081-2.798-0.081h-0.003c0 0-1.68 0-2.798 0.081-0.156 0.019-0.497 0.020-0.802 0.339-0.241 0.242-0.317 0.794-0.317 0.794s-0.080 0.647-0.080 1.295v0.606c0 0.647 0.080 1.295 0.080 1.295s0.078 0.552 0.317 0.794c0.305 0.319 0.705 0.308 0.883 0.342 0.641 0.061 2.72 0.080 2.72 0.080s1.681-0.003 2.8-0.083c0.156-0.019 0.497-0.020 0.802-0.339 0.241-0.242 0.319-0.794 0.319-0.794s0.080-0.647 0.080-1.295v-0.606c-0.002-0.647-0.081-1.295-0.081-1.295zM3.173 5.037v-2.248l2.161 1.128-2.161 1.12z"></path>
</svg>
