<!-- Generated by IcoMoon.io -->
<svg version="1.1" xmlns="http://www.w3.org/2000/svg" width="20" height="8" viewBox="0 0 20 8">
<title>youtube2</title>
<path d="M2.688 1.323c0.002-0.007 0.003-0.012 0.003-0.014l0.008-0.059-0.37-0.002c-0.334-0.002-0.436 0-0.446 0.008-0.004 0.004-0.12 0.442-0.325 1.237-0.098 0.379-0.181 0.681-0.183 0.672s-0.12-0.441-0.261-0.961c-0.141-0.519-0.259-0.947-0.262-0.951-0.005-0.005-0.453-0.007-0.816-0.004-0.053 0-0.082-0.102 0.469 1.649 0.076 0.243 0.19 0.586 0.254 0.763 0.073 0.204 0.125 0.362 0.16 0.494 0.063 0.251 0.065 0.408 0.051 0.591-0.016 0.212-0.018 1.707-0.003 1.732 0.012 0.019 0.713 0.028 0.779 0.010 0.011-0.003 0.018-0.013 0.022-0.070 0.017-0.049 0.018-0.242 0.018-1.045v-1.026l0.045-0.141c0.029-0.093 0.103-0.336 0.164-0.541s0.134-0.45 0.164-0.545c0.264-0.862 0.517-1.71 0.523-1.758l0.005-0.040z"></path>
<path d="M6.61 2.568l-0 0.053-0.008 0-0.005 1.477-0.005 1.431-0.115 0.117c-0.128 0.131-0.231 0.18-0.324 0.157-0.101-0.025-0.099 0.014-0.107-1.678l-0.008-1.557h-0.737v0.054h-0.008v1.69c0 1.81-0 1.809 0.092 1.991 0.073 0.145 0.18 0.215 0.362 0.24h0c0.241 0.032 0.5-0.077 0.74-0.311l0.104-0.102v0.175c0 0.152 0.004 0.177 0.032 0.184 0.045 0.013 0.603 0.013 0.663 0.001l0.050-0.010v-0.052l0.008-0.002v-3.868l-0.736 0.010z"></path>
<path d="M4.741 3.331c-0.070-0.3-0.201-0.501-0.416-0.64-0.338-0.219-0.724-0.242-1.083-0.065-0.261 0.129-0.429 0.343-0.516 0.657-0.010 0.037-0.018 0.069-0.024 0.116-0.022 0.111-0.025 0.276-0.030 1.046-0.009 1.187 0.005 1.328 0.153 1.598 0.146 0.264 0.448 0.458 0.778 0.498 0.099 0.012 0.3-0.007 0.416-0.039 0.263-0.073 0.515-0.281 0.626-0.516 0.048-0.102 0.077-0.173 0.095-0.302 0.033-0.177 0.035-0.462 0.035-1.19-0-0.929-0.003-1.030-0.034-1.163zM3.901 5.75c-0.062 0.047-0.17 0.068-0.258 0.049-0.068-0.014-0.159-0.12-0.187-0.217-0.035-0.121-0.038-1.797-0.007-2.125 0.050-0.164 0.189-0.25 0.341-0.209 0.118 0.032 0.179 0.106 0.214 0.261 0.026 0.115 0.029 0.259 0.023 1.104-0.004 0.56-0.006 0.834-0.024 0.981-0.019 0.093-0.049 0.118-0.102 0.157z"></path>
<path d="M17.972 4.173h0.356l-0.006-0.323c-0.006-0.296-0.010-0.33-0.049-0.41-0.062-0.127-0.154-0.183-0.3-0.183-0.175 0-0.287 0.085-0.339 0.259-0.022 0.074-0.046 0.583-0.029 0.627 0.009 0.025 0.060 0.029 0.367 0.029z"></path>
<path d="M15.592 3.439c-0.047-0.096-0.136-0.143-0.238-0.139-0.080 0.003-0.168 0.037-0.254 0.102l-0.064 0.048v2.317l0.064 0.048c0.144 0.11 0.302 0.133 0.411 0.060 0.043-0.029 0.071-0.069 0.093-0.132 0.028-0.082 0.031-0.188 0.027-1.162-0.004-1.016-0.006-1.076-0.039-1.142z"></path>
<path d="M20.007 2.396c-0.071-0.85-0.127-1.126-0.303-1.481-0.232-0.47-0.568-0.717-1.046-0.771-0.37-0.042-1.76-0.101-3.047-0.13-2.228-0.050-5.891 0.046-6.359 0.165-0.216 0.055-0.378 0.149-0.547 0.317-0.296 0.294-0.472 0.716-0.543 1.3-0.162 1.333-0.165 2.943-0.009 4.324 0.067 0.594 0.205 0.98 0.464 1.298 0.162 0.198 0.44 0.367 0.69 0.418 0.175 0.035 1.050 0.084 2.325 0.13 0.19 0.007 0.693 0.019 1.117 0.026 0.885 0.016 2.513 0.006 3.443-0.020 0.626-0.018 1.767-0.064 1.98-0.080 0.060-0.005 0.199-0.013 0.309-0.020 0.369-0.021 0.604-0.098 0.825-0.272 0.286-0.224 0.507-0.639 0.6-1.125 0.088-0.46 0.148-1.279 0.16-2.21 0.010-0.777-0.003-1.197-0.060-1.87zM11.135 2.087l-0.414 0.005-0.018 4.415-0.359 0.005c-0.278 0.004-0.362-0-0.368-0.018-0.005-0.013-0.011-1.008-0.013-2.212l-0.005-2.189-0.809-0.010v-0.69l2.389 0.010 0.010 0.68-0.414 0.005zM13.674 4.618v1.899h-0.654v-0.2c0-0.15-0.006-0.2-0.023-0.2-0.013 0-0.072 0.050-0.132 0.11-0.129 0.131-0.283 0.237-0.413 0.286-0.271 0.101-0.528 0.042-0.638-0.146-0.1-0.173-0.102-0.211-0.102-2.003v-1.645h0.654l0.005 1.549c0.005 1.522 0.006 1.55 0.042 1.612 0.048 0.082 0.122 0.104 0.239 0.072 0.069-0.019 0.116-0.052 0.228-0.164l0.141-0.14v-2.929h0.654v1.899zM16.225 6.245c-0.058 0.128-0.186 0.254-0.291 0.285-0.275 0.081-0.495 0.015-0.749-0.224-0.079-0.074-0.152-0.135-0.164-0.135-0.013 0-0.020 0.058-0.020 0.173v0.173h-0.654v-5.124h0.654v0.836c0 0.46 0.006 0.836 0.014 0.836s0.076-0.061 0.153-0.135c0.177-0.171 0.325-0.245 0.512-0.259 0.334-0.025 0.534 0.147 0.625 0.54 0.028 0.123 0.031 0.263 0.031 1.399-0 1.384-0 1.39-0.111 1.636zM18.992 5.486c-0.006 0.142-0.023 0.306-0.039 0.363-0.091 0.337-0.333 0.576-0.683 0.674-0.471 0.132-0.99-0.084-1.197-0.499-0.116-0.233-0.12-0.279-0.12-1.416 0-0.927 0.003-1.040 0.033-1.167 0.084-0.358 0.292-0.589 0.644-0.718 0.102-0.037 0.209-0.056 0.315-0.058 0.38-0.008 0.758 0.197 0.916 0.53 0.107 0.225 0.12 0.321 0.131 0.954l0.010 0.568-1.395 0.010-0.005 0.382c-0.007 0.538 0.029 0.704 0.174 0.802 0.122 0.082 0.31 0.076 0.412-0.014 0.096-0.084 0.123-0.175 0.132-0.438l0.009-0.232h0.673l-0.011 0.259z"></path>
</svg>
