<!-- Generated by IcoMoon.io -->
<svg version="1.1" xmlns="http://www.w3.org/2000/svg" width="8" height="8" viewBox="0 0 8 8">
<title>zoom-out</title>
<path d="M7.752 6.808l-1.895-1.612c-0.196-0.176-0.405-0.257-0.575-0.249 0.447-0.524 0.718-1.204 0.718-1.947 0-1.657-1.343-3-3-3s-3 1.343-3 3 1.343 3 3 3c0.743 0 1.423-0.27 1.947-0.718-0.008 0.169 0.073 0.379 0.249 0.575l1.612 1.895c0.276 0.307 0.727 0.332 1.002 0.057s0.249-0.726-0.057-1.002zM3 5c-1.105 0-2-0.895-2-2s0.895-2 2-2 2 0.895 2 2-0.895 2-2 2zM1.5 2.5h3v1h-3z"></path>
</svg>
